<svg width="131" height="97" viewBox="0 0 131 97" fill="none" xmlns="http://www.w3.org/2000/svg">
<g id="angry">
<path id="Vector 143" d="M41.9372 62.1438C41.2766 60.5508 40.7868 59.0925 40.5737 57.2962C40.2823 54.8396 42.1075 51.086 42.8476 48.8677C43.9504 45.905 45.374 42.4443 45.9479 41.0843L85.6227 43.2893C86.8966 45.2146 89.4776 50.4859 89.6105 56.1687C89.669 58.6701 89.2674 60.773 88.384 62.4816C90.639 64.4271 95.0495 69.3193 94.6507 73.3239C94.1522 78.3297 90.7737 83.6105 83.1857 83.7755C77.1154 83.9075 71.5565 83.5567 69.5359 83.3647C66.8182 83.9536 62.9721 84.3858 57.5418 84.7656C41.812 85.8658 36.7214 77.4662 36.3408 72.3624C36.0362 68.2794 39.9448 63.8488 41.9372 62.1438Z" fill="#C9C9C9"/>
<path id="Vector 137" d="M88.2301 39.2805C87.2607 45.8856 81.0602 50.0388 78.0812 51.2898C64.9461 56.6483 56.4507 54.0229 53.8449 52.0403C43.2415 46.0357 40.3634 41.232 42.4841 29.523C44.6048 17.814 57.7274 15.1274 58.3333 15.1274L57.5692 14.2642C57.6803 13.9883 57.9667 13.0748 59.8333 12.81C61.7 12.5451 63.8333 13.9135 64.6667 14.6308C64.5556 14.4653 64.1667 13.8693 63.5 12.81C62.6667 11.4857 62.8333 10.6581 64.3333 10.1615C65.8333 9.66491 68.0799 12.4789 68.7466 12.81C69.2799 13.0748 71.0905 14.1342 71.7191 14.9618C87.0183 18.8648 89.4419 31.0242 88.2301 39.2805Z" fill="#C9C9C9"/>
<g id="Group 18306">
<g id="Group 18302">
<path id="Ellipse 279" d="M67.7699 33.8897C67.9888 38.2805 81.1948 35.2612 81.76 39.337C82.6555 45.7947 73.1355 48.845 66.4285 49.008C59.7214 49.171 48.7726 45.7669 48.7231 41.3492C48.6782 37.3412 63.5963 38.8614 62.2502 33.822C60.8417 28.5489 49.8278 33.2714 48.2266 29.7258C46.2424 25.3323 56.4257 19.6292 64.2208 19.4398C70.9278 19.2768 81.9356 22.1075 82.2278 26.8941C82.4714 30.8841 67.5923 30.3255 67.7699 33.8897Z" fill="white"/>
<path id="Vector 117" d="M65.7868 29.1504C65.7198 28.5255 66.1976 28.1167 66.4448 27.9905C66.4768 27.951 66.622 27.8958 66.9475 27.9905C67.3543 28.1088 67.0911 28.4402 66.8278 28.9729C66.5646 29.5055 67.0552 29.8724 67.0911 30.0381C67.127 30.2038 67.3663 31.34 66.5407 31.0797C65.715 30.8193 65.8705 29.9316 65.7868 29.1504Z" fill="#C9C9C9"/>
<path id="Vector 118" d="M64.074 29.1504C64.141 28.5255 63.6632 28.1167 63.4159 27.9905C63.384 27.951 63.2387 27.8958 62.9133 27.9905C62.5064 28.1088 62.7697 28.4402 63.0329 28.9729C63.2962 29.5055 62.8056 29.8724 62.7697 30.0381C62.7338 30.2038 62.4944 31.34 63.3201 31.0797C64.1457 30.8193 63.9903 29.9316 64.074 29.1504Z" fill="#C9C9C9"/>
<g id="Group 18302_2">
<path id="Ellipse 275" d="M68.1411 37.1647C68.2036 38.1992 66.9062 39.7285 65.1968 39.8103C63.4873 39.8922 62.0131 38.4956 61.9506 37.4611C61.8881 36.4267 63.261 36.1461 64.9704 36.0642C66.6799 35.9824 68.0786 36.1303 68.1411 37.1647Z" fill="#121212"/>
</g>
</g>
<path id="Vector 33 (Stroke)" d="M63.5943 43.6075C63.368 43.7185 63.0939 43.6266 62.9819 43.4019C62.8701 43.1772 62.9628 42.905 63.189 42.7938L63.1894 42.7937L63.19 42.7933C63.1903 42.7931 63.1907 42.7929 63.1911 42.7927C63.1918 42.7924 63.1927 42.7918 63.1938 42.7913C63.1962 42.7902 63.1996 42.7887 63.2035 42.7868C63.2113 42.7831 63.2221 42.7779 63.2357 42.7716C63.263 42.7591 63.3017 42.7417 63.3504 42.721C63.4478 42.6797 63.5864 42.6247 63.7541 42.568C64.0863 42.4556 64.5494 42.3314 65.0479 42.2998C65.6445 42.2621 66.1506 42.3218 66.5098 42.3917C66.6896 42.4267 66.8336 42.4642 66.9348 42.494C66.9855 42.5089 67.0255 42.5221 67.0542 42.5318C67.0684 42.5366 67.0798 42.5405 67.0883 42.5435C67.0925 42.5451 67.0961 42.5464 67.0989 42.5474C67.1002 42.5479 67.1016 42.5484 67.1026 42.5487C67.103 42.5489 67.1035 42.549 67.1039 42.5491L67.1047 42.5496C67.3404 42.6392 67.4588 42.9018 67.3686 43.1359C67.2783 43.3701 67.0139 43.4872 66.7781 43.3976L66.7795 43.3984C66.7792 43.3983 66.7783 43.3977 66.7768 43.3972C66.7736 43.396 66.7676 43.394 66.759 43.3911C66.7415 43.3851 66.7133 43.3758 66.6751 43.3646C66.5987 43.3421 66.4827 43.3118 66.334 43.2828C66.0359 43.2248 65.6096 43.1741 65.1059 43.206C64.7162 43.2306 64.3367 43.3301 64.0485 43.4276C63.9061 43.4757 63.7897 43.5221 63.71 43.5559C63.6702 43.5728 63.6396 43.5867 63.6199 43.5957C63.6101 43.6003 63.6027 43.6034 63.5985 43.6055L63.5943 43.6075Z" fill="#121212"/>
<path id="Ellipse 286" d="M56.0863 32.6162C55.92 33.2641 56.5123 33.9734 57.4093 34.2005C58.3063 34.4276 59.1683 34.0865 59.3346 33.4386C59.5009 32.7907 58.9086 32.0813 58.0116 31.8542C57.1146 31.6271 56.2526 31.9683 56.0863 32.6162Z" fill="#121212"/>
<path id="Ellipse 287" d="M73.1445 32.4642C73.3117 33.1119 72.7203 33.822 71.8236 34.0503C70.9269 34.2786 70.0645 33.9386 69.8973 33.291C69.7302 32.6433 70.3215 31.9331 71.2182 31.7048C72.1149 31.4766 72.9774 31.8165 73.1445 32.4642Z" fill="#121212"/>
</g>
<path id="Vector 136 (Stroke)" d="M64.4795 9.90892C65.3007 9.93079 66.1524 10.2513 66.9684 10.712C67.7899 11.1757 68.6122 11.8025 69.3828 12.4837C70.1003 13.118 70.7821 13.8084 71.3883 14.4742C71.4209 14.4795 71.454 14.4842 71.4863 14.4901C71.6275 14.5157 71.8116 14.5542 72.0316 14.6058C72.4719 14.7092 73.0652 14.8684 73.764 15.0937C75.1609 15.5439 76.9897 16.2611 78.8678 17.3309C82.6179 19.467 86.6244 23.0459 87.6924 28.7589C88.7307 34.3133 88.5679 38.3366 86.7585 41.7002C84.9564 45.0502 81.5688 47.6528 76.3997 50.4887C76.158 50.6212 75.8539 50.5341 75.7204 50.2941C75.5869 50.0541 75.6747 49.752 75.9163 49.6194C81.0537 46.8008 84.2183 44.3141 85.8763 41.232C87.5269 38.1636 87.7322 34.4118 86.7093 28.9399C85.716 23.6265 81.9872 20.2526 78.3704 18.1925C76.5652 17.1642 74.8027 16.4726 73.4554 16.0383C73.1004 15.9239 72.7747 15.8278 72.4857 15.748C72.7203 16.0365 72.9314 16.3067 73.1136 16.5504C73.2782 16.7707 73.2318 17.0818 73.0101 17.2452C72.7884 17.4086 72.4754 17.3626 72.3109 17.1424C71.5294 16.0968 70.196 14.5324 68.7178 13.2256C67.9788 12.5724 67.2146 11.9931 66.4743 11.5752C65.7286 11.1542 65.0429 10.9175 64.4528 10.9018C63.7356 10.8827 63.4669 11.0447 63.3734 11.1533C63.2883 11.2521 63.2305 11.4472 63.3294 11.8303C63.5283 12.6005 64.2349 13.6084 64.8695 14.3216C65.0454 14.5195 65.0347 14.8197 64.845 15.0048C64.6553 15.1898 64.353 15.1948 64.1569 15.0164C63.7194 14.6183 62.8925 14.052 61.8786 13.6951C60.868 13.3394 59.71 13.2046 58.5729 13.6042C58.0186 13.799 57.8379 13.9811 57.7907 14.0649C57.7747 14.0933 57.7445 14.1467 57.8516 14.3074C57.9677 14.4817 58.1934 14.6876 58.5107 14.9019C58.8201 15.1108 59.182 15.3048 59.5316 15.4658L60.818 16.0581L59.4421 16.3982C52.1169 18.2087 47.7977 21.7241 45.4408 25.692C43.0769 29.6716 42.6542 34.1623 43.2301 37.9641C43.6798 40.9321 45.3462 43.3712 47.2826 45.2258C49.22 47.0814 51.3962 48.3207 52.79 48.8878C53.0455 48.9918 53.1678 49.2816 53.0631 49.5353C52.9585 49.7891 52.6663 49.9105 52.4108 49.8066C50.909 49.1956 48.6239 47.8902 46.5885 45.9409C44.552 43.9904 42.7339 41.3639 42.2412 38.1119C41.6393 34.1387 42.074 29.4063 44.5798 25.1877C46.9559 21.1874 51.1651 17.6993 57.9964 15.7548C57.9805 15.7443 57.9643 15.7341 57.9486 15.7234C57.5907 15.4818 57.2397 15.1891 57.0176 14.8557C56.7865 14.5088 56.6563 14.0452 56.9176 13.5806C57.1478 13.1715 57.6222 12.8845 58.2393 12.6676C59.6554 12.17 61.059 12.353 62.2129 12.7591C62.3808 12.8182 62.5441 12.8829 62.7025 12.9508C62.5542 12.6564 62.434 12.3613 62.3607 12.0773C62.2297 11.5701 62.2147 10.9704 62.6136 10.5073C63.0041 10.0542 63.6609 9.88713 64.4795 9.90892Z" fill="#121212"/>
<path id="Vector 138 (Stroke)" d="M82.6481 13.1504C82.919 13.0973 83.1822 13.2725 83.2357 13.5416C83.3096 13.9137 83.3818 14.5695 83.2904 15.269C83.1994 15.9651 82.9371 16.7668 82.2816 17.3442C81.6656 17.8867 80.8956 17.8316 80.3024 17.642C79.7044 17.4508 79.1634 17.0904 78.8411 16.816C78.6315 16.6374 78.6074 16.3239 78.7871 16.1157C78.9669 15.9075 79.2826 15.8835 79.4922 16.062C79.7443 16.2767 80.1708 16.5566 80.6087 16.6967C81.0515 16.8382 81.386 16.8054 81.6182 16.601C82.0228 16.2446 82.2242 15.7121 82.2988 15.1409C82.373 14.5733 82.3131 14.0285 82.2546 13.7336C82.2012 13.4646 82.3773 13.2035 82.6481 13.1504Z" fill="#E41B0C"/>
<path id="Vector 139 (Stroke)" d="M85.418 13.7735C85.1827 13.6299 84.8747 13.7032 84.7301 13.9369C84.5374 14.2485 84.2528 14.8164 84.1078 15.4801C83.9632 16.1422 83.9461 16.9574 84.3722 17.7004C84.7695 18.3933 85.5018 18.6007 86.1144 18.6302C86.734 18.6601 87.3573 18.5195 87.7493 18.3816C88.0096 18.2901 88.1458 18.0062 88.0536 17.7477C87.9614 17.4892 87.6756 17.3539 87.4153 17.4455C87.1105 17.5527 86.6199 17.6603 86.163 17.6384C85.699 17.616 85.3918 17.4714 85.2412 17.2088C84.9825 16.7576 84.9693 16.2204 85.085 15.6905C85.2004 15.1623 85.4327 14.6984 85.5823 14.4565C85.7267 14.2229 85.6533 13.917 85.418 13.7735Z" fill="#E41B0C"/>
<path id="Vector 140 (Stroke)" d="M78.062 19.0867C77.9471 18.8373 78.0578 18.5427 78.3089 18.4286C78.607 18.2932 79.1407 18.1142 79.746 18.0941C80.3579 18.0738 81.0812 18.2165 81.6802 18.7747C82.2416 19.2978 82.2884 20.118 82.2263 20.741C82.1609 21.3968 81.955 22.035 81.7949 22.3925C81.6826 22.6431 81.387 22.7558 81.1348 22.6443C80.8825 22.5328 80.7689 22.2393 80.8812 21.9887C81.0041 21.7143 81.1776 21.1791 81.2311 20.643C81.2878 20.0739 81.1932 19.683 80.996 19.4991C80.6467 19.1737 80.2138 19.0724 79.7795 19.0868C79.3386 19.1014 78.9356 19.2361 78.7245 19.3319C78.4735 19.4459 78.1768 19.336 78.062 19.0867Z" fill="#E41B0C"/>
<path id="Vector 141 (Stroke)" d="M83.5635 22.9198C83.2939 22.9788 83.0272 22.8093 82.9678 22.5415C82.8974 22.2235 82.8336 21.6676 82.9413 21.0757C83.0502 20.4773 83.3429 19.8052 84.0186 19.3412C84.6517 18.9063 85.4689 19.0336 86.069 19.2251C86.7008 19.4268 87.2855 19.7611 87.6037 19.9919C87.8266 20.1537 87.8754 20.4644 87.7125 20.6858C87.5496 20.9073 87.2368 20.9557 87.0138 20.7939C86.7696 20.6167 86.2794 20.3356 85.7629 20.1708C85.2147 19.9958 84.81 20.0053 84.5875 20.1581C84.1936 20.4286 84.0027 20.8276 83.9254 21.2523C83.8469 21.6835 83.8946 22.1031 83.9445 22.3282C84.0038 22.596 83.8332 22.8609 83.5635 22.9198Z" fill="#E41B0C"/>
<path id="Vector 144" d="M55.1168 56.1443C55.5019 55.5227 54.7156 53.4947 54.2743 52.5584L51.2054 53.933L51.8673 55.0685C52.79 55.6861 54.7317 56.7658 55.1168 56.1443Z" fill="white"/>
<path id="Vector 145" d="M72.7868 58.0702C70.3379 55.5065 71.7664 53.1674 72.7868 52.3184L75.5362 53.248L78.1487 55.3979L75.3496 56.1392L72.7868 58.0702Z" fill="white"/>
<path id="Vector 142 (Stroke)" d="M87.9184 47.966C88.1786 47.8744 88.4643 48.0096 88.5567 48.268C89.3715 50.5485 90.0435 53.2964 90.1104 56.1571C90.1665 58.5529 89.8108 60.6267 88.9997 62.3609C90.1366 63.3843 91.6733 65.0055 92.9272 66.8532C94.2779 68.8437 95.3654 71.1914 95.1482 73.3728C94.8903 75.9626 93.886 78.6436 91.9415 80.7046C89.988 82.7749 87.1159 84.1866 83.1967 84.2719C77.1797 84.4027 71.6637 84.0607 69.5652 83.8658C66.8148 84.4542 62.9599 84.8847 57.5769 85.2611C49.6179 85.8178 44.28 83.9738 40.8738 81.2787C37.474 78.5887 36.0424 75.0832 35.8422 72.399C35.6781 70.1986 36.6467 67.9585 37.8575 66.0924C38.9687 64.3798 40.3226 62.9235 41.3318 62.0137C41.311 61.9662 41.2876 61.9147 41.2637 61.8588C41.1329 61.5521 40.9583 61.1221 40.7836 60.628C40.4396 59.6549 40.0736 58.3761 40.0736 57.2961C40.0737 53.262 41.6749 50.8032 42.3728 48.7116C42.4596 48.4512 42.7428 48.3101 43.005 48.3964C43.267 48.4827 43.4091 48.7636 43.3223 49.0239C42.54 51.3687 41.0737 53.474 41.0736 57.2961C41.0736 58.1985 41.3896 59.3438 41.7273 60.2989C41.8934 60.7689 42.0599 61.1791 42.1846 61.4715C42.2469 61.6175 42.2985 61.7338 42.3344 61.8129C42.3523 61.8524 42.3664 61.8827 42.3757 61.9028C42.3804 61.9129 42.3839 61.9206 42.3861 61.9254C42.3873 61.9278 42.3882 61.9296 42.3887 61.9306C42.3889 61.931 42.389 61.9314 42.3891 61.9316L42.3946 61.9432L42.3995 61.9549C43.0446 63.5106 43.9853 64.9364 45.5059 66.0042C47.0273 67.0724 49.1733 67.8133 52.2823 67.9217C54.5945 68.0022 56.9713 67.2368 59.362 66.011C60.8971 65.2239 62.4242 64.2541 63.9278 63.2154C65.2496 62.3022 66.5459 61.3408 67.8122 60.4063C69.0755 59.4739 70.3101 58.5673 71.4952 57.7749C73.4739 56.4519 75.3927 55.3907 77.1488 55.0935C75.886 53.7008 73.1208 51.8762 69.0092 52.521C67.1743 52.8088 65.4042 53.2959 63.7592 53.8391C61.7896 54.4895 60.0297 55.2091 58.5287 55.7676C57.7851 56.0443 57.1024 56.2823 56.504 56.4436C55.9316 56.5978 55.3951 56.693 54.9356 56.666C54.1578 56.7275 53.0206 56.5776 52.0697 55.9046C51.4831 55.4894 50.9927 54.8927 50.699 54.0761C50.697 54.0712 50.6953 54.0661 50.6934 54.0612C50.4906 53.4907 50.3835 52.8135 50.4066 52.0163C50.4146 51.7422 50.6446 51.5264 50.9206 51.5343C51.1967 51.5422 51.4139 51.7706 51.406 52.0448C51.3953 52.4146 51.417 52.7466 51.4643 53.0447C53.7442 51.4768 56.2109 51.1753 58.3715 51.3836C60.5956 51.5981 62.5174 52.3546 63.627 52.8375C65.2534 52.3075 67.0158 51.8283 68.8533 51.5401C74.1527 50.7091 77.4907 53.6164 78.5212 55.2419C78.6182 55.3949 78.6238 55.5883 78.5359 55.7465C78.4479 55.9048 78.2801 56.0032 78.0981 56.0032C76.4335 56.0032 74.4079 57.025 72.0538 58.599C70.891 59.3765 69.6745 60.2695 68.4089 61.2035C67.3262 62.0026 66.2078 62.8305 65.0678 63.6331C67.2121 65.1282 71.5891 67.3557 76.3936 67.5056C77.0658 67.5265 77.7456 67.5068 78.4281 67.439C83.3574 66.9494 86.42 65.1928 87.9392 62.2549C88.7741 60.6402 89.1679 58.625 89.1107 56.1804C89.047 53.4534 88.4046 50.8123 87.6143 48.6004C87.522 48.3419 87.6581 48.0578 87.9184 47.966ZM41.7602 62.9732C40.8389 63.8394 39.669 65.1339 38.698 66.6304C37.5326 68.4266 36.6989 70.4432 36.8393 72.3256C37.0197 74.7452 38.3238 77.9916 41.4968 80.5022C44.6635 83.0078 49.7359 84.8137 57.5066 84.2702C62.9339 83.8906 66.7495 83.4601 69.4294 82.8794C71.981 82.3265 73.4262 81.6525 74.2582 80.8271C75.0673 80.0244 75.3609 79.0125 75.4307 77.5902C75.4857 76.4692 74.7243 75.1623 73.2885 73.7963C71.875 72.4515 69.9052 71.1429 67.7781 70.0221C64.9834 68.5496 61.9661 67.4269 59.6651 66.9721C57.2473 68.1926 54.7469 69.0013 52.2471 68.9142C48.9931 68.8008 46.6451 68.0204 44.9285 66.815C43.4314 65.7638 42.4481 64.4125 41.7602 62.9732ZM88.515 63.2671C86.6971 66.2657 83.3537 67.948 78.5277 68.4273C77.8034 68.4992 77.0841 68.52 76.3754 68.4984C75.4281 68.4941 73.8726 68.5667 72.307 68.7981C71.121 68.9735 69.973 69.2342 69.0824 69.5989C70.9434 70.6427 72.6714 71.8337 73.9802 73.0789C75.4607 74.4875 76.5068 76.0629 76.4294 77.6387C76.3542 79.1699 76.028 80.4748 74.9649 81.5296C74.3469 82.1428 73.5032 82.6473 72.3744 83.074C75.0687 83.2311 79.0005 83.3698 83.1749 83.279C86.8435 83.1992 89.4545 81.888 91.212 80.0253C92.9783 78.1532 93.9125 75.691 94.1531 73.2752C94.3346 71.452 93.4165 69.3512 92.0981 67.4083C90.9634 65.7362 89.5801 64.2508 88.515 63.2671ZM64.199 64.2354C63.1482 64.9533 62.0774 65.6418 60.9929 66.2586C63.1333 66.814 65.6424 67.7962 67.9978 69.0147C69.0603 68.4281 70.5434 68.0666 71.9734 67.8441C68.5626 66.9539 65.7239 65.3538 64.199 64.2354ZM58.2748 52.3723C56.1975 52.172 53.8806 52.4847 51.7696 54.0499C51.9985 54.522 52.313 54.8571 52.6501 55.0957C53.3749 55.6087 54.2793 55.7288 54.8861 55.6741L54.9278 55.6706L54.9698 55.6735C55.2644 55.696 55.6825 55.6357 56.2419 55.485C56.7932 55.3365 57.4401 55.1123 58.1778 54.8378C59.328 54.4098 60.6951 53.8613 62.196 53.3263C61.1484 52.9312 59.7809 52.5175 58.2748 52.3723Z" fill="#121212"/>
<path id="Vector 146 (Stroke)" d="M53.8472 30.5805C53.9727 30.3362 54.2738 30.2392 54.5198 30.3638C55.3664 30.7927 56.7219 31.5875 58.1147 31.8341C58.766 31.9494 59.217 31.8585 59.5355 31.7235C59.8635 31.5845 60.0814 31.388 60.2758 31.2183C60.4832 31.0372 60.7993 31.0575 60.9817 31.2635C61.1639 31.4694 61.1435 31.7831 60.9361 31.9642C60.7507 32.1262 60.4226 32.4275 59.9279 32.6371C59.4235 32.8509 58.7746 32.9597 57.9393 32.8118C56.3588 32.532 54.826 31.6338 54.0654 31.2485C53.8194 31.1238 53.7218 30.8248 53.8472 30.5805ZM75.5242 30.0432C75.7361 29.8673 76.0515 29.8954 76.2285 30.1059C76.4055 30.3163 76.3773 30.6295 76.1654 30.8054C75.4355 31.411 74.4808 31.8351 73.5652 32.1115C72.6467 32.3889 71.7269 32.5297 71.0384 32.5443C70.3958 32.5579 69.9378 32.4461 69.5813 32.1771C69.265 31.9383 69.0627 31.5797 68.912 31.3624C68.7554 31.1366 68.8127 30.8275 69.0401 30.6719C69.2675 30.5163 69.5788 30.5733 69.7354 30.7992C69.9696 31.1368 70.0377 31.2741 70.1862 31.3862C70.2947 31.4681 70.4963 31.5624 71.0171 31.5514C71.6039 31.5389 72.4329 31.4155 73.2743 31.1615C74.1185 30.9066 74.9348 30.5323 75.5242 30.0432Z" fill="#121212"/>
</g>
</svg>
