<svg width="180" height="118" viewBox="0 0 180 118" fill="none" xmlns="http://www.w3.org/2000/svg">
<g clip-path="url(#clip0_1183_2327)">
<path d="M51.1951 130.83C49.7645 127.349 48.7039 124.162 48.2425 120.237C47.6114 114.869 51.5639 106.667 53.1666 101.82C55.5549 95.3458 58.6376 87.7838 59.8805 84.812L145.799 89.6302C148.558 93.8372 154.147 105.356 154.435 117.773C154.561 123.239 153.692 127.834 151.779 131.568C156.662 135.819 166.213 146.509 165.35 155.26C164.27 166.198 156.954 177.737 140.521 178.098C127.376 178.386 115.338 177.62 110.962 177.2C105.077 178.487 96.7476 179.431 84.9878 180.261C50.924 182.665 39.9 164.311 39.0757 153.159C38.4162 144.237 46.8805 134.555 51.1951 130.83Z" fill="#C9C9C9"/>
<path d="M151.445 80.8706C149.346 95.3036 135.918 104.379 129.467 107.112C101.022 118.822 82.625 113.085 76.9819 108.752C54.0196 95.6316 47.787 85.1349 52.3795 59.5492C56.9719 33.9636 85.3898 28.0929 86.702 28.0929L85.0471 26.2066C85.2877 25.6038 85.9079 23.6077 89.9503 23.029C93.9927 22.4503 98.6126 25.4404 100.417 27.0077C100.177 26.646 99.3344 25.3439 97.8907 23.029C96.0861 20.1354 96.447 18.3269 99.6953 17.2418C102.944 16.1567 107.809 22.3056 109.252 23.029C110.407 23.6077 114.329 25.9226 115.69 27.7312C148.821 36.2597 154.07 62.8294 151.445 80.8706Z" fill="#C9C9C9"/>
<path d="M107.138 69.0912C107.612 78.6856 136.21 72.088 137.434 80.9943C139.373 95.105 118.757 101.77 104.233 102.126C89.7081 102.483 65.9976 95.0443 65.8904 85.3912C65.7932 76.6332 98.0992 79.955 95.1842 68.9431C92.1341 57.4209 68.2829 67.74 64.8152 59.9924C60.5183 50.3921 82.5709 37.9301 99.4517 37.5162C113.976 37.16 137.814 43.3455 138.447 53.8047C138.975 62.5236 106.753 61.3028 107.138 69.0912Z" fill="white"/>
<path d="M102.843 58.7355C102.698 57.3699 103.733 56.4768 104.268 56.2009C104.338 56.1147 104.652 55.994 105.357 56.2009C106.238 56.4594 105.668 57.1837 105.098 58.3476C104.528 59.5114 105.59 60.3132 105.668 60.6752C105.746 61.0373 106.264 63.5202 104.476 62.9512C102.688 62.3822 103.024 60.4425 102.843 58.7355Z" fill="#C9C9C9"/>
<path d="M99.1342 58.7355C99.2792 57.3699 98.2445 56.4768 97.709 56.2009C97.6399 56.1147 97.3253 55.994 96.6205 56.2009C95.7395 56.4594 96.3095 57.1837 96.8796 58.3476C97.4497 59.5114 96.3873 60.3132 96.3095 60.6752C96.2318 61.0373 95.7136 63.5202 97.5015 62.9512C99.2895 62.3822 98.9529 60.4425 99.1342 58.7355Z" fill="#C9C9C9"/>
<path d="M107.942 76.2479C108.077 78.5083 105.267 81.85 101.566 82.0288C97.8636 82.2077 94.6712 79.156 94.5358 76.8956C94.4005 74.6351 97.3734 74.022 101.075 73.8432C104.777 73.6643 107.806 73.9875 107.942 76.2479Z" fill="#121212"/>
<path d="M98.2644 90.6673L98.2649 90.6665L98.137 90.7222C97.4867 90.9664 96.7439 90.6819 96.4286 90.0449C96.1137 89.4081 96.3377 88.6453 96.9253 88.2754L97.0475 88.2062L97.0502 88.2055C97.0509 88.2051 97.0516 88.2039 97.0525 88.2035L97.083 88.1896C97.1014 88.1807 97.1266 88.1683 97.1577 88.1538C97.2201 88.1249 97.3078 88.0853 97.4169 88.0386C97.635 87.9452 97.9432 87.8214 98.3166 87.6939C99.0543 87.4422 100.093 87.1599 101.218 87.088C102.548 87.0031 103.677 87.1376 104.481 87.2954C104.883 87.3744 105.207 87.4599 105.436 87.5281C105.551 87.5622 105.643 87.5924 105.71 87.6152C105.743 87.6265 105.77 87.6363 105.79 87.6437C105.8 87.6474 105.809 87.6506 105.816 87.6532C105.82 87.6545 105.823 87.6554 105.826 87.6564C105.827 87.6569 105.828 87.6571 105.83 87.6575L105.832 87.659C105.832 87.6613 105.812 87.7137 105.343 88.9411L105.833 87.6595C106.54 87.9308 106.894 88.7241 106.624 89.4318C106.354 90.1396 105.561 90.4932 104.854 90.222L104.857 90.2234L104.859 90.2236L104.861 90.2245L104.859 90.2244C104.854 90.2227 104.843 90.218 104.826 90.2124C104.793 90.201 104.736 90.1827 104.659 90.1598C104.504 90.1137 104.265 90.0503 103.956 89.9896C103.336 89.8679 102.446 89.7599 101.394 89.8271C100.596 89.8781 99.8089 90.0854 99.2031 90.2922C98.9049 90.3939 98.6612 90.4923 98.4958 90.5632C98.4133 90.5985 98.3507 90.6264 98.3112 90.6448C98.2915 90.6539 98.2772 90.6608 98.2694 90.6646L98.2644 90.6673Z" fill="#121212"/>
<path d="M81.8359 66.3082C81.4758 67.7239 82.7586 69.2739 84.7011 69.7702C86.6436 70.2664 88.5103 69.521 88.8704 68.1052C89.2305 66.6895 87.9477 65.1395 86.0052 64.6432C84.0627 64.147 82.1961 64.8924 81.8359 66.3082Z" fill="#121212"/>
<path d="M118.777 65.9761C119.139 67.3913 117.858 68.943 115.916 69.4419C113.974 69.9408 112.107 69.1978 111.745 67.7826C111.383 66.3673 112.663 64.8156 114.605 64.3167C116.547 63.8179 118.415 64.5608 118.777 65.9761Z" fill="#121212"/>
<path d="M100.023 16.2747C101.899 16.3251 103.813 17.0611 105.609 18.0843C107.422 19.117 109.227 20.5068 110.909 22.0071C112.436 23.3696 113.889 24.8482 115.186 26.2796C115.212 26.2841 115.237 26.2878 115.262 26.2923C115.576 26.3498 115.981 26.435 116.463 26.5491C117.428 26.7777 118.724 27.1286 120.248 27.6243C123.294 28.6149 127.282 30.193 131.38 32.5482C139.557 37.2481 148.348 45.1545 150.691 57.804C152.946 69.9755 152.61 78.8793 148.627 86.3519C144.665 93.7839 137.237 99.5195 126.029 105.724C125.304 106.125 124.391 105.864 123.99 105.139C123.589 104.414 123.851 103.501 124.576 103.1C135.688 96.9484 142.449 91.5636 145.979 84.9407C149.488 78.3585 149.95 70.2732 147.741 58.3509C145.621 46.9062 137.661 39.6191 129.885 35.1497C126.006 32.9204 122.217 31.4199 119.32 30.4778C119.031 30.3839 118.751 30.297 118.481 30.2142C118.68 30.4725 118.87 30.7193 119.046 30.9564C119.539 31.6221 119.399 32.5619 118.733 33.055C118.067 33.548 117.128 33.4082 116.635 32.7425C114.955 30.4746 112.087 27.0784 108.912 24.2464C107.325 22.831 105.694 21.5855 104.125 20.6917C102.539 19.7884 101.123 19.3055 99.9422 19.2737C98.4333 19.2333 98.0136 19.5844 97.9344 19.6771C97.8796 19.7412 97.7244 20.0003 97.9256 20.7864C98.3308 22.3697 99.804 24.5101 101.17 26.0589C101.697 26.6572 101.664 27.564 101.095 28.1224C100.525 28.6805 99.6176 28.6951 99.0301 28.1556C98.1203 27.3202 96.3775 26.1133 94.239 25.3538C92.1106 24.5979 89.7055 24.3239 87.3601 25.1556C86.3733 25.5056 86.0276 25.8125 85.9265 25.929C85.9411 25.9619 85.9656 26.01 86.0076 26.0735C86.2152 26.3879 86.6517 26.8014 87.3221 27.2581C87.9682 27.6984 88.7309 28.1114 89.4734 28.4564L93.323 30.2454L89.2049 31.2728C73.4345 35.2058 64.182 42.827 59.1424 51.388C54.0819 59.9845 53.1714 69.6964 54.408 77.9329C55.364 84.3005 58.9098 89.5527 63.0613 93.5648C67.2162 97.58 71.8831 100.259 74.8562 101.48C75.6225 101.794 75.9889 102.671 75.6746 103.437C75.36 104.203 74.4839 104.57 73.7176 104.255C70.4201 102.902 65.4258 100.021 60.9773 95.722C56.5253 91.4195 52.5258 85.6021 51.4412 78.3782C50.1271 69.6254 51.0725 59.184 56.5574 49.8665C61.6679 41.185 70.635 33.6235 85.0379 29.305C84.4517 28.8504 83.8969 28.3224 83.5037 27.7269C82.952 26.8913 82.6045 25.7081 83.2713 24.512C83.8456 23.482 84.9953 22.8108 86.3582 22.3274C89.5419 21.1985 92.6841 21.6189 95.243 22.5276C95.2835 22.5421 95.3237 22.5579 95.364 22.5726C95.225 22.2216 95.1071 21.8733 95.0193 21.5306C94.7226 20.3712 94.6597 18.8935 95.6531 17.7298C96.6224 16.5945 98.2072 16.226 100.023 16.2747Z" fill="#121212"/>
<path d="M139.277 23.366C140.09 23.2059 140.878 23.7349 141.039 24.5476C141.205 25.3927 141.368 26.8726 141.163 28.4558C140.959 30.0282 140.365 31.8917 138.841 33.2458C137.347 34.574 135.496 34.4171 134.148 33.9822C132.786 33.5426 131.567 32.7211 130.84 32.0964C130.212 31.5565 130.14 30.6095 130.68 29.9812C131.22 29.353 132.167 29.2813 132.795 29.821C133.312 30.2651 134.189 30.8433 135.07 31.1277C135.965 31.4164 136.506 31.3077 136.848 31.0036C137.62 30.3175 138.032 29.2666 138.187 28.0701C138.341 26.8843 138.216 25.7401 138.095 25.1277C137.935 24.3149 138.464 23.5261 139.277 23.366Z" fill="#E41B0C"/>
<path d="M145.573 24.7805C144.867 24.3465 143.943 24.5672 143.51 25.2733C143.075 25.983 142.437 27.2677 142.111 28.7743C141.786 30.2759 141.737 32.1734 142.729 33.9194C143.692 35.6147 145.456 36.0947 146.845 36.1622C148.255 36.2307 149.66 35.9099 150.545 35.5957C151.325 35.3188 151.733 34.4601 151.455 33.679C151.177 32.8981 150.32 32.4896 149.54 32.7665C148.916 32.9879 147.909 33.209 146.987 33.1642C146.045 33.1184 145.558 32.8299 145.335 32.4377C144.845 31.5741 144.803 30.5163 145.042 29.4131C145.279 28.315 145.761 27.3448 146.067 26.8453C146.5 26.1392 146.278 25.2144 145.573 24.7805Z" fill="#E41B0C"/>
<path d="M129.046 36.9183C128.702 36.1651 129.033 35.2744 129.787 34.9291C130.469 34.6166 131.68 34.2066 133.06 34.1603C134.46 34.1134 136.147 34.4437 137.548 35.7609C138.913 37.0453 138.996 39.0154 138.859 40.3987C138.712 41.8817 138.253 43.3193 137.891 44.1352C137.554 44.8923 136.668 45.2341 135.912 44.8985C135.155 44.5627 134.813 43.676 135.15 42.9186C135.401 42.3535 135.763 41.2273 135.874 40.1059C135.995 38.8844 135.77 38.2081 135.493 37.9476C134.84 37.3339 134.024 37.1305 133.158 37.1594C132.272 37.1891 131.455 37.4646 131.034 37.6574C130.281 38.0024 129.391 37.6714 129.046 36.9183Z" fill="#E41B0C"/>
<path d="M141.429 45.5255C140.62 45.7032 139.819 45.1915 139.641 44.3825C139.48 43.6493 139.336 42.3774 139.581 41.0172C139.83 39.638 140.506 38.0554 142.086 36.9602C143.629 35.8908 145.572 36.2268 146.893 36.6523C148.31 37.1086 149.616 37.8617 150.336 38.3886C151.004 38.8779 151.15 39.8162 150.66 40.4847C150.171 41.1529 149.233 41.2982 148.564 40.8092C148.066 40.4445 147.044 39.8523 145.974 39.5077C144.808 39.1325 144.105 39.2114 143.795 39.4261C143.06 39.936 142.688 40.6935 142.534 41.5497C142.376 42.425 142.472 43.285 142.571 43.7384C142.749 44.5476 142.238 45.3478 141.429 45.5255Z" fill="#E41B0C"/>
<path d="M79.7363 117.72C80.5704 116.362 78.8676 111.93 77.912 109.885L71.266 112.888L72.6994 115.369C74.6976 116.719 78.9023 119.078 79.7363 117.72Z" fill="white"/>
<path d="M118.002 121.928C112.699 116.326 115.792 111.215 118.002 109.36L123.956 111.391L129.614 116.089L123.552 117.709L118.002 121.928Z" fill="white"/>
<path d="M150.632 99.4584C151.413 99.1822 152.27 99.5909 152.546 100.371C154.321 105.383 155.789 111.432 155.935 117.739C156.054 122.892 155.316 127.396 153.616 131.201C156.074 133.464 159.308 136.94 161.964 140.889C164.903 145.259 167.327 150.492 166.842 155.407C166.277 161.138 164.073 167.087 159.788 171.669C155.477 176.281 149.147 179.408 140.554 179.597C127.565 179.882 115.653 179.142 111.048 178.714C105.065 180 96.7102 180.937 85.0931 181.757C67.7783 182.979 56.1075 178.935 48.6312 172.966C41.1742 167.013 38.0211 159.244 37.5794 153.269C37.2144 148.329 39.3674 143.342 42.0081 139.235C44.3568 135.582 47.1992 132.458 49.3822 130.439C49.3723 130.416 49.362 130.391 49.3519 130.368C49.066 129.691 48.6848 128.743 48.3031 127.654C47.5554 125.52 46.7425 122.67 46.7425 120.237C46.7426 111.334 50.266 105.814 51.7425 101.349C52.0026 100.562 52.8515 100.136 53.638 100.396C54.4241 100.656 54.851 101.504 54.5911 102.29C52.8623 107.519 49.7426 111.973 49.7425 120.237C49.7425 122.135 50.4055 124.582 51.1341 126.661C51.4904 127.678 51.8479 128.567 52.1156 129.2C52.2492 129.516 52.3602 129.767 52.4369 129.938C52.4749 130.023 52.5041 130.088 52.5238 130.13C52.5336 130.152 52.5416 130.168 52.5462 130.178L52.5521 130.19L52.5677 130.224L52.5824 130.26C53.959 133.61 55.9544 136.652 59.1654 138.927C62.3783 141.204 66.941 142.806 73.6126 143.04C78.5186 143.213 83.5917 141.574 88.7376 138.911C92.0392 137.203 95.3291 135.096 98.5775 132.831C101.434 130.84 104.236 128.744 106.98 126.701C109.715 124.664 112.396 122.677 114.971 120.94C118.977 118.237 122.933 115.987 126.629 115.163C123.777 112.3 118.109 108.911 109.887 110.212C105.943 110.836 102.133 111.894 98.5843 113.077C94.3284 114.495 90.5387 116.059 87.2718 117.286C85.659 117.891 84.1655 118.416 82.8499 118.774C81.6144 119.11 80.4154 119.33 79.3607 119.275C77.6045 119.411 75.0465 119.07 72.8949 117.534C70.605 115.898 68.9927 113.066 69.1185 108.688C69.1423 107.86 69.8334 107.208 70.6615 107.232C71.4895 107.256 72.1412 107.946 72.1175 108.774C72.1026 109.293 72.1175 109.776 72.1576 110.224C77.0345 107.062 82.2538 106.46 86.8255 106.905C91.6101 107.37 95.7495 108.987 98.1878 110.05C101.681 108.908 105.468 107.874 109.418 107.249C121.091 105.402 128.471 111.864 130.774 115.529C131.064 115.991 131.081 116.574 130.817 117.052C130.553 117.53 130.049 117.827 129.503 117.827C126.041 117.827 121.752 119.984 116.649 123.427C114.14 125.12 111.512 127.065 108.771 129.107C106.58 130.738 104.316 132.429 102.009 134.078C106.758 137.299 115.872 141.818 125.826 142.131C127.264 142.176 128.718 142.134 130.177 141.988C140.772 140.926 147.242 137.132 150.444 130.884C152.212 127.434 153.058 123.103 152.935 117.808C152.798 111.905 151.419 106.178 149.718 101.373C149.442 100.592 149.851 99.7349 150.632 99.4584ZM50.6888 133.338C48.786 135.199 46.4725 137.838 44.5316 140.857C42.0266 144.752 40.2773 149.066 40.5716 153.048C40.9543 158.226 43.7263 165.211 50.5033 170.621C57.261 176.017 68.1337 179.947 84.8822 178.765C96.6327 177.936 104.87 176.997 110.642 175.735C116.146 174.531 119.177 173.079 120.892 171.363C122.539 169.714 123.162 167.625 123.311 164.562C123.421 162.301 121.888 159.557 118.798 156.59C115.774 153.687 111.545 150.849 106.958 148.411C100.986 145.235 94.5534 142.817 89.638 141.817C84.4115 144.462 78.9718 146.231 73.5072 146.038C66.3993 145.788 61.2301 144.066 57.431 141.374C54.298 139.154 52.1882 136.338 50.6888 133.338ZM152.146 133.935C148.063 140.361 140.772 143.94 130.476 144.972C128.891 145.131 127.319 145.177 125.771 145.13C123.738 145.121 120.391 145.278 117.025 145.781C114.813 146.111 112.691 146.577 110.947 147.196C114.708 149.382 118.19 151.847 120.876 154.426C124.101 157.522 126.484 161.077 126.307 164.708C126.142 168.099 125.422 171.073 123.015 173.483C121.952 174.547 120.6 175.455 118.912 176.249C124.621 176.548 132.341 176.777 140.489 176.598C148.328 176.426 153.873 173.604 157.597 169.62C161.348 165.609 163.343 160.32 163.857 155.113C164.235 151.277 162.317 146.789 159.475 142.564C157.167 139.132 154.377 136.06 152.146 133.935ZM99.3958 135.911C97.4685 137.233 95.5064 138.507 93.5208 139.681C97.9126 140.921 102.908 142.928 107.626 145.375C109.517 144.366 111.941 143.671 114.389 143.191C107.894 141.224 102.509 138.168 99.3958 135.911ZM86.5345 109.891C82.2032 109.47 77.4109 110.104 73.0199 113.267C73.4686 114.08 74.041 114.666 74.638 115.092C76.1058 116.14 77.9567 116.392 79.1986 116.28L79.3245 116.268L79.4505 116.278C80.0152 116.321 80.8645 116.205 82.0628 115.879C83.2369 115.56 84.623 115.076 86.2181 114.477C88.4208 113.65 91.0132 112.608 93.8519 111.563C91.7795 110.84 89.262 110.156 86.5345 109.891Z" fill="#121212"/>
<path d="M76.6164 61.6705C76.9935 60.9329 77.8966 60.6408 78.6342 61.0179C80.5036 61.9735 83.3647 63.666 86.302 64.1908C87.6348 64.4289 88.5282 64.2384 89.1399 63.9769C89.7806 63.7029 90.2073 63.318 90.632 62.9438C91.2535 62.3961 92.2019 62.4558 92.7495 63.0774C93.2968 63.6989 93.2363 64.6464 92.6148 65.194C92.217 65.5446 91.4607 66.2467 90.3199 66.7346C89.1496 67.2349 87.6611 67.4811 85.7748 67.1442C82.2734 66.5187 78.88 64.5119 77.2688 63.6882C76.5312 63.3112 76.2393 62.4081 76.6164 61.6705ZM123.662 60.368C124.297 59.8365 125.243 59.9204 125.775 60.5554C126.306 61.1905 126.222 62.1364 125.587 62.6683C123.948 64.0409 121.822 64.9896 119.809 65.6028C117.788 66.2186 115.758 66.5333 114.224 66.566C112.781 66.5968 111.681 66.3447 110.806 65.6779C110.051 65.1029 109.557 64.2273 109.266 63.8031C108.797 63.1205 108.97 62.1866 109.652 61.7172C110.335 61.2479 111.269 61.421 111.738 62.1034C112.016 62.5079 112.102 62.6625 112.29 62.9209C112.434 63.1192 112.534 63.2233 112.624 63.2918C112.755 63.3918 113.084 63.5897 114.16 63.5667C115.388 63.5405 117.146 63.2774 118.936 62.7322C120.734 62.1842 122.444 61.3878 123.662 60.368Z" fill="#121212"/>
</g>
<defs>
<clipPath id="clip0_1183_2327">
<rect width="109" height="102" fill="white" transform="translate(47 16)"/>
</clipPath>
</defs>
</svg>
