<svg width="133" height="100" viewBox="0 0 133 100" fill="none" xmlns="http://www.w3.org/2000/svg">
<g id="celeb">
<path id="Vector 149" d="M93.0712 81.5343C96.3744 70.9524 88.9822 57.7279 85.096 52.9922L53.6989 54.0999C52.1471 58.9685 46.534 78.8888 44.9795 83.004C43.0364 88.148 88.9421 94.7616 93.0712 81.5343Z" fill="#C9C9C9"/>
<path id="Vector 110" d="M70.8622 80.2707C72.609 80.2254 76.2063 79.8702 77.2042 79.6003C78.2022 79.3305 80.6917 77.457 82.0394 73.9721C83.387 70.4872 80.0386 66.4366 79.6981 66.1616C79.3577 65.8865 74.4317 60.4269 68.67 60.8835C62.9084 61.3401 58.1914 63.717 56.9218 64.978C55.6522 66.2391 53.3288 69.0701 54.8736 72.8741C56.4185 76.6782 58.7826 80.5836 70.8622 80.2707Z" fill="white"/>
<g id="Group 18306">
<g id="Group 18302">
<path id="Union" d="M79.9589 22.599C79.7828 20.5156 80.0583 16.8322 82.5689 18.7666C84.876 20.5442 85.4394 25.6068 85.4452 28.4879C92.2107 40.9635 87.9503 43.8332 85.4415 52.4365C77.0257 61.2367 68.435 62.5625 56.9265 56.2331C45.4181 49.9036 40.8839 39.3911 46.5352 29.0964C51.7435 19.6089 63.9669 16.1347 74.8597 20.6026C74.0552 19.1062 73.3569 16.8698 75.8216 17.5493C78.5074 18.2897 79.6989 21.2243 79.9589 22.599Z" fill="#C9C9C9"/>
<path id="Union (Stroke)" d="M80.0597 20.6627C80.6185 20.502 81.2228 20.7302 81.8403 21.2082C83.0348 22.1328 83.7169 23.8572 84.1092 25.5864C84.4914 27.2713 84.621 29.0686 84.6279 30.412C85.8177 31.9278 87.0011 33.6272 87.7974 35.4799L87.8754 35.6649L87.881 35.6784L87.8859 35.6927C89.2465 39.6836 90.0675 46.4752 85.3922 52.6212C86.6746 54.0169 88.4701 56.3024 90.0299 58.9958C91.702 61.8833 93.129 65.2835 93.3268 68.5832L92.4004 68.6396C92.2152 65.5507 90.8681 62.2992 89.2284 59.4676C87.7415 56.9001 86.0347 54.7142 84.8026 53.3578C83.2801 55.1665 81.262 56.8964 78.6264 58.4606C78.4055 58.5916 78.1209 58.5173 77.9909 58.2946C77.861 58.0718 77.9347 57.7849 78.1555 57.6538C80.9061 56.0214 82.9388 54.2182 84.4189 52.3569C89.0938 46.4778 88.3364 39.9014 87.0119 36.0082C86.244 34.1582 85.0434 32.4387 83.8015 30.8676L83.7 30.7392L83.7004 30.5747C83.7035 29.2639 83.5826 27.4615 83.2046 25.7952C82.8207 24.1031 82.1963 22.6639 81.275 21.9508C80.7414 21.5378 80.4484 21.5245 80.3141 21.5631C80.1777 21.6024 80.0096 21.7511 79.8606 22.1383C79.5645 22.9074 79.5273 24.1548 79.6028 25.1045C79.6224 25.3528 79.4457 25.573 79.2009 25.6057C78.956 25.6383 78.7287 25.4718 78.6838 25.2268C78.5771 24.6459 78.269 23.7099 77.6987 22.8461C77.1299 21.9848 76.3247 21.2301 75.2321 20.9314C74.7013 20.7863 74.4581 20.8356 74.3669 20.8829C74.3171 20.9087 74.2547 20.9626 74.2435 21.1708C74.2317 21.3903 74.2879 21.6936 74.4075 22.0497C74.5245 22.398 74.6903 22.7626 74.8652 23.0922L75.4711 24.2335L74.2816 23.7468C64.4588 19.7268 53.4704 22.9551 48.7685 31.5178C45.5713 38.119 45.2742 42.7537 46.9598 46.4268C48.6618 50.1356 52.437 52.993 57.7119 55.8976L57.2672 56.7194C51.9779 53.8068 47.9562 50.8268 46.1174 46.8199C44.2631 42.7792 44.6802 37.8224 47.9395 31.0969L47.9448 31.0861L47.9504 31.0759C52.7439 22.3322 63.659 18.9467 73.5723 22.4749C73.5573 22.4331 73.5425 22.3914 73.5285 22.3497C73.3937 21.9481 73.2953 21.5133 73.3165 21.12C73.3383 20.7154 73.4965 20.2817 73.942 20.0505C74.3462 19.8407 74.8734 19.8635 75.4751 20.028C76.851 20.4042 77.8223 21.3442 78.4712 22.327C78.5698 22.4762 78.6608 22.6276 78.7459 22.7788C78.8015 22.4278 78.8821 22.093 78.9953 21.7992C79.1819 21.3145 79.5031 20.8228 80.0597 20.6627Z" fill="#121212"/>
<path id="Ellipse 279" d="M67.6245 40.424C66.9644 44.7286 78.8569 45.1738 78.5593 49.2358C78.0879 55.6715 69.2068 56.8945 63.3346 55.8272C57.4624 54.7599 48.5876 49.453 49.4004 45.1532C50.1379 41.2522 63.0267 44.4901 62.8309 39.3495C62.6261 33.9706 51.0872 35.658 50.3798 31.9217C49.5032 27.2919 59.476 23.6135 66.3008 24.854C72.173 25.9213 81.2103 30.6821 80.5373 35.3845C79.9763 39.3045 68.1604 36.9296 67.6245 40.424Z" fill="white"/>
<g id="Group 18302_2">
<path id="Ellipse 275" d="M67.6079 45.3429C67.386 46.4548 65.6106 47.7119 63.8076 47.323C62.0046 46.9342 60.8567 45.0465 61.0786 43.9347C61.3005 42.8228 62.8081 42.9078 64.6111 43.2967C66.4141 43.6855 67.8298 44.2311 67.6079 45.3429Z" fill="#121212"/>
</g>
</g>
<path id="Vector 33 (Stroke)" d="M66.344 49.9936C66.5851 49.9061 66.8509 50.0323 66.9379 50.2753C67.0247 50.5184 66.8999 50.7867 66.6588 50.8744L66.6583 50.8744L66.6577 50.8748L66.6532 50.8764C66.6506 50.8773 66.6471 50.8784 66.6428 50.8799C66.6342 50.8829 66.6221 50.8873 66.6069 50.8924C66.5764 50.9026 66.5329 50.9166 66.4785 50.933C66.3697 50.9657 66.2156 51.0084 66.0299 51.0493C65.6619 51.1302 65.1534 51.2076 64.6192 51.1807C63.9788 51.1484 63.4468 51.0218 63.0727 50.9021C62.8854 50.8422 62.7367 50.7836 62.6327 50.7391C62.5807 50.7168 62.5398 50.6979 62.5107 50.684C62.4961 50.6771 62.4844 50.6714 62.4758 50.6671C62.4716 50.665 62.4681 50.6632 62.4654 50.6618C62.464 50.6611 62.4628 50.6605 62.4618 50.66C62.4613 50.6597 62.4609 50.6596 62.4605 50.6594L62.4597 50.6588C62.2323 50.5396 62.1433 50.257 62.2615 50.0276C62.3795 49.7986 62.6593 49.7091 62.8866 49.8276C62.8871 49.8278 62.8878 49.8284 62.8889 49.8289C62.8924 49.8306 62.8989 49.8338 62.908 49.8382C62.9263 49.8469 62.956 49.8606 62.9959 49.8776C63.0757 49.9118 63.1967 49.9597 63.3533 50.0097C63.667 50.1101 64.1195 50.2185 64.6655 50.2461C65.0892 50.2674 65.5103 50.2052 65.8323 50.1344C65.9915 50.0994 66.1227 50.0633 66.2128 50.0362C66.2578 50.0227 66.2924 50.0112 66.3148 50.0037C66.3258 50 66.3339 49.9973 66.3389 49.9956C66.3414 49.9947 66.3432 49.9939 66.344 49.9936Z" fill="#121212"/>
<path id="Vector 86 (Stroke)" d="M73.0238 40.1382C74.2695 40.5127 74.949 41.5611 75.1243 42.2419C75.1947 42.5156 75.0319 42.7951 74.7606 42.8662C74.4892 42.9372 74.212 42.773 74.1416 42.4994C74.0395 42.1028 73.5814 41.3741 72.7336 41.1193C72.3519 41.0046 71.9389 41.0353 71.5613 41.1631C71.1792 41.2924 70.8729 41.5078 70.7037 41.7104C70.5232 41.9267 70.2028 41.9545 69.9883 41.7725C69.7739 41.5904 69.7465 41.2674 69.9271 41.0511C70.2347 40.6826 70.7088 40.3714 71.2385 40.1922C71.7728 40.0114 72.4032 39.9517 73.0238 40.1382Z" fill="#121212"/>
<path id="Vector 87 (Stroke)" d="M58.7212 37.455C60.018 37.5442 60.9094 38.4165 61.2287 39.0418C61.357 39.2932 61.2591 39.602 61.0099 39.7314C60.7607 39.8608 60.4545 39.7621 60.3261 39.5108C60.1401 39.1465 59.5344 38.5371 58.6518 38.4764C58.2545 38.4491 57.8582 38.5706 57.5177 38.7789C57.1732 38.9897 56.9212 39.2677 56.8003 39.5029C56.6713 39.7539 56.3648 39.852 56.1159 39.7219C55.8671 39.5918 55.77 39.2827 55.899 39.0318C56.1189 38.6041 56.5136 38.1954 56.9912 37.9032C57.4731 37.6085 58.0751 37.4106 58.7212 37.455Z" fill="#121212"/>
</g>
<path id="Vector 147" d="M64.9871 52.4007C57.1308 56.4856 40.0289 64.6057 34.4715 64.4062C28.9142 64.2067 27.9039 60.3839 28.0934 58.4975C28.2335 56.7273 29.4976 53.207 33.4332 53.2868C35.1074 53.3207 36.2506 53.8931 36.864 54.7112C38.0531 56.2973 37.7398 58.5508 34.9592 59.8544C36.0827 59.9924 37.3534 59.7365 37.7913 59.6261C38.4819 59.452 54.4527 53.9525 62.3518 51.2246L64.9871 52.4007Z" fill="#C1B8FF"/>
<path id="Vector 147 (Stroke)" d="M66.0616 52.3685L65.1997 52.8167C61.2637 54.8633 55.0129 57.9203 49.0466 60.4419C46.064 61.7026 43.1452 62.8322 40.6188 63.6353C38.1099 64.4327 35.9317 64.9271 34.4552 64.8741C31.5629 64.7703 29.7808 63.7151 28.7588 62.3691C27.7542 61.0458 27.5291 59.4996 27.6312 58.4601C27.7067 57.5061 28.0803 56.0921 28.971 54.9145C29.8769 53.7168 31.312 52.7756 33.4425 52.8187C35.2126 52.8546 36.5106 53.4637 37.2343 54.4289C37.9055 55.3243 38.1703 56.4372 37.8443 57.5242C37.6438 58.1931 37.2288 58.8206 36.5948 59.366C37.071 59.3089 37.4706 59.2245 37.6788 59.1721C37.828 59.1344 38.9271 58.7681 40.6614 58.1798C42.3785 57.5974 44.686 56.8085 47.219 55.9397C52.285 54.2023 58.2522 52.1455 62.2015 50.7816L62.3733 50.7223L66.0616 52.3685ZM62.3304 51.7265C58.3809 53.0904 52.5117 55.1132 47.5178 56.826C44.9844 57.6948 42.6758 58.4841 40.9572 59.0671C39.2561 59.6441 38.1001 60.0308 37.9038 60.0803C37.4491 60.1949 36.1119 60.4675 34.903 60.3189C34.3158 60.2468 33.6998 60.0687 33.2363 59.6677C32.7487 59.2458 32.4862 58.6268 32.5367 57.8122C32.6181 56.4979 33.4028 55.6248 34.2807 55.0842C34.7985 54.7652 35.3643 54.5508 35.8782 54.4162C35.3168 54.0372 34.5101 53.7767 33.424 53.7546C31.619 53.7181 30.4541 54.4971 29.709 55.4821C28.9487 56.4872 28.6205 57.7187 28.5559 58.5348L28.5552 58.5448C28.4702 59.3917 28.6566 60.6944 29.4958 61.7998C30.3209 62.8866 31.8229 63.8429 34.4879 63.9386C35.79 63.9853 37.8337 63.5393 40.3399 62.7427C42.8286 61.9516 45.7183 60.8334 48.6877 59.5784C54.206 57.246 59.9748 54.4509 63.9091 52.4314L62.3304 51.7265ZM36.6417 55.2108C36.0954 55.2962 35.3793 55.5042 34.7642 55.8831C34.0522 56.3216 33.52 56.9561 33.4634 57.8705C33.4288 58.4287 33.6001 58.7491 33.8404 58.9571C34.0819 59.166 34.4417 59.3014 34.8864 59.3707C36.1103 58.7668 36.7342 57.9929 36.956 57.2533C37.161 56.5695 37.042 55.8503 36.6417 55.2108Z" fill="#121212"/>
<g id="Group 18314">
<path id="Vector 148" d="M39.5171 78.1959C38.2657 75.5455 41.8636 71.6752 43.819 70.0713C54.9257 58.9492 46.8695 55.6361 53.6743 54.374C60.4791 53.112 61.4959 64.7863 61.5741 67.3893C61.6523 69.9924 59.2276 78.5904 52.8921 82.0611C46.5566 85.5319 41.0815 81.5089 39.5171 78.1959Z" fill="#C9C9C9"/>
<path id="Vector 148 (Stroke)" d="M53.5901 53.9137C55.4418 53.5703 56.9254 54.1127 58.0792 55.1615C59.2131 56.1923 60.0135 57.696 60.5827 59.2721C61.722 62.4269 61.9981 66.0539 62.0378 67.3752C62.0799 68.7778 61.4637 71.6546 60.0565 74.6028C58.6444 77.5614 56.398 80.673 53.1136 82.4723C49.8161 84.2787 46.7162 84.1421 44.2376 83.1049C41.7788 82.076 39.9312 80.1613 39.0981 78.3971C38.3567 76.8267 39.0821 74.996 40.079 73.4823C41.0929 71.9429 42.5052 70.5487 43.5065 69.7243C46.2465 66.9781 47.7868 64.7324 48.6701 62.8994C49.552 61.0695 49.789 59.6315 49.8979 58.4809C49.9503 57.9276 49.9779 57.3572 50.0334 56.9054C50.0915 56.4323 50.1897 55.9739 50.4227 55.5628C50.9069 54.7087 51.8664 54.2334 53.5901 53.9137ZM57.4575 55.8568C56.5044 54.9904 55.3088 54.5466 53.758 54.8342C52.0797 55.1455 51.4946 55.5579 51.2285 56.0275C51.0863 56.2782 51.0076 56.5909 50.9548 57.0203C50.8994 57.471 50.882 57.9348 50.822 58.5695C50.706 59.7952 50.4489 61.3499 49.505 63.3087C48.564 65.2611 46.9501 67.5953 44.146 70.4033L44.1299 70.4199L44.112 70.4342C43.159 71.2159 41.8065 72.5509 40.852 74.0002C39.8741 75.4851 39.4263 76.9147 39.9363 77.9948C40.6676 79.5435 42.3396 81.2969 44.5932 82.24C46.8271 83.1748 49.6327 83.314 52.6707 81.6497C55.7217 79.9782 57.8555 77.0557 59.2201 74.1968C60.5895 71.3277 61.1462 68.6041 61.1101 67.4036C61.0716 66.1219 60.8003 62.6101 59.7105 59.5924C59.1652 58.0824 58.4305 56.7413 57.4575 55.8568Z" fill="#121212"/>
<path id="Vector 151" d="M53.7785 58.0916C55.0505 55.8174 59.1559 57.8 59.6763 58.0916C59.2137 57.4307 58.2654 56.0389 58.1729 55.7591C58.0804 55.4792 56.3612 54.6705 55.5131 54.3012L53.0268 54.7677L50.5983 56.1089L49.6731 62.1151C48.3432 64.02 45.6603 67.9347 45.5678 68.3546C45.4753 68.7744 42.4069 71.7562 40.8843 73.1945L39.4387 76.2268C40.094 76.0713 42.6073 74.734 47.4181 70.6288C53.4315 65.4973 52.5064 60.3658 53.7785 58.0916Z" fill="white"/>
<path id="Vector 152 (Stroke)" d="M53.5901 53.9137C55.4418 53.5703 56.9254 54.1127 58.0792 55.1615C59.2131 56.1923 60.0134 57.696 60.5827 59.2721C61.722 62.4269 61.9981 66.0539 62.0378 67.3752C62.0799 68.7778 61.4637 71.6546 60.0565 74.6028C58.6444 77.5614 56.398 80.673 53.1136 82.4723C49.8161 84.2787 46.7162 84.1421 44.2376 83.1049C41.7788 82.076 39.9312 80.1613 39.0981 78.3971C38.3567 76.8267 39.0821 74.996 40.079 73.4823C41.0929 71.9429 42.5052 70.5487 43.5065 69.7243C46.2465 66.9781 47.7868 64.7324 48.6701 62.8994C49.552 61.0695 49.789 59.6315 49.8979 58.4809C49.9503 57.9276 49.9779 57.3572 50.0334 56.9054C50.0915 56.4323 50.1897 55.9739 50.4227 55.5628C50.9069 54.7087 51.8664 54.2334 53.5901 53.9137ZM57.4575 55.8568C56.5044 54.9904 55.3088 54.5466 53.758 54.8342C52.0797 55.1455 51.4946 55.5579 51.2285 56.0275C51.0863 56.2782 51.0076 56.5909 50.9548 57.0203C50.8994 57.471 50.882 57.9348 50.822 58.5695C50.706 59.7952 50.4489 61.3499 49.505 63.3087C48.564 65.2611 46.9501 67.5953 44.146 70.4033L44.1299 70.4199L44.112 70.4342C43.159 71.2159 41.8065 72.5509 40.852 74.0002C39.8741 75.4851 39.4263 76.9147 39.9363 77.9948C40.6676 79.5435 42.3396 81.2969 44.5932 82.24C46.8271 83.1748 49.6327 83.314 52.6707 81.6497C55.7217 79.9782 57.8555 77.0557 59.2201 74.1968C60.5895 71.3277 61.1462 68.6041 61.1101 67.4036C61.0716 66.1219 60.8003 62.6101 59.7105 59.5924C59.1652 58.0824 58.4305 56.7413 57.4575 55.8568Z" fill="#121212"/>
<path id="Vector 150 (Stroke)" d="M50.7003 53.7982C50.7833 53.5536 51.0471 53.4232 51.2896 53.5069C51.5321 53.5906 51.6614 53.8566 51.5784 54.1012C51.4918 54.3565 51.5174 54.7668 51.6482 55.2697C51.7737 55.7525 51.9746 56.2413 52.1465 56.6046C52.2569 56.8378 52.1591 57.1175 51.9277 57.2288C51.6964 57.3402 51.4195 57.2411 51.3091 57.0079C51.1225 56.6137 50.8958 56.0668 50.7502 55.507C50.6099 54.9673 50.5206 54.3279 50.7003 53.7982ZM53.0788 53.1626C53.2639 52.9838 53.5579 52.99 53.7352 53.1766C54.0774 53.5367 54.2232 54.1076 54.3083 54.5928C54.3957 55.0914 54.4419 55.6735 54.4927 56.0756C54.5251 56.332 54.3454 56.5665 54.0911 56.5992C53.8369 56.6319 53.6043 56.4504 53.5719 56.1939C53.5118 55.7181 53.4777 55.2307 53.3945 54.7558C53.3089 54.2674 53.1939 53.9602 53.065 53.8245C52.8876 53.6379 52.8938 53.3415 53.0788 53.1626ZM55.4267 52.3903C55.5805 52.1837 55.8714 52.142 56.0764 52.297C56.231 52.414 56.319 52.5917 56.3699 52.7103C56.4291 52.8487 56.4798 53.0112 56.5232 53.1789C56.6105 53.5161 56.6823 53.9252 56.738 54.3175C56.794 54.7119 56.8356 55.1012 56.8597 55.4037C56.8717 55.5545 56.8795 55.6876 56.8828 55.791C56.8844 55.8421 56.885 55.8913 56.8838 55.934C56.8833 55.9515 56.8828 56.0419 56.8544 56.1279C56.7733 56.3732 56.5102 56.5057 56.2671 56.4239C56.0485 56.3504 55.9206 56.1288 55.9558 55.9066C55.9562 55.8904 55.9564 55.8624 55.9551 55.821C55.9525 55.738 55.9456 55.621 55.9343 55.4787C55.9117 55.1948 55.8725 54.8247 55.8193 54.4501C55.7658 54.0733 55.6996 53.7036 55.6249 53.4156C55.5874 53.2707 55.5509 53.1587 55.5179 53.0816C55.5021 53.0449 55.4907 53.0254 55.4858 53.0173C55.3104 52.8568 55.2817 52.5852 55.4267 52.3903Z" fill="#121212"/>
</g>
<g id="Vector 153">
<path d="M48.2465 16.4674C47.2788 16.8578 46.9294 18.6903 46.8756 19.5578C45.6123 19.5578 43.2146 19.1674 43.7307 17.606C44.3758 15.6542 46.2305 13.5398 46.8756 13.8651C47.5207 14.1904 49.4561 15.9795 48.2465 16.4674Z" fill="url(#paint0_linear_1428_6213)"/>
<path d="M39.3761 40.7835C39.5697 40.0679 38.2741 39.401 37.6021 39.157C35.828 39.157 35.1022 40.3769 35.828 41.5968C36.5538 42.8167 39.1342 41.6781 39.3761 40.7835Z" fill="url(#paint1_linear_1428_6213)"/>
<path d="M30.7477 36.636C30.8122 37.2866 29.5381 37.7745 28.893 37.9372C27.9791 37.5034 25.9254 36.4408 25.0223 35.6601C23.8933 34.6842 24.0546 32.4071 25.6674 31.6752C27.2802 30.9432 27.4415 32.7324 27.8447 33.7083C28.2479 34.6842 30.6671 35.8227 30.7477 36.636Z" fill="url(#paint2_linear_1428_6213)"/>
<path d="M23.2482 47.3708C23.7643 46.9805 22.0655 45.907 21.1516 45.419C20.5871 46.0696 19.5065 47.501 19.7001 48.0214C19.942 48.672 22.6031 47.8588 23.2482 47.3708Z" fill="url(#paint3_linear_1428_6213)"/>
<path d="M25.0223 72.0122C24.1191 71.8821 22.8719 70.8737 22.3612 70.3857C22.1193 70.5755 21.5386 71.1665 21.1516 72.0122C20.6677 73.0695 22.845 74.208 23.732 74.452C24.6191 74.6959 26.1512 72.1749 25.0223 72.0122Z" fill="url(#paint4_linear_1428_6213)"/>
<path d="M110.662 48.0214C111.307 46.6389 109.613 45.419 109.13 44.9311C109.64 44.3347 110.839 43.207 111.549 43.4673C112.258 43.7275 113.027 46.6118 113.323 48.0214C112.221 48.4823 110.146 49.1275 110.662 48.0214Z" fill="url(#paint5_linear_1428_6213)"/>
<path d="M104.936 32.2444C103.969 32.0818 103.807 30.6179 103.969 30.2113C104.356 30.2113 105.85 28.5848 106.549 27.7716C107.409 27.8529 109.13 28.2433 109.13 29.1541C109.13 30.2926 105.904 32.4071 104.936 32.2444Z" fill="url(#paint6_linear_1428_6213)"/>
<path d="M99.7753 37.2052C100.259 36.4733 98.6464 35.6601 98.1626 35.6601L95.5821 37.2052C95.7971 37.8558 96.2917 39.2384 96.5498 39.5637C96.8723 39.9703 99.2915 37.9372 99.7753 37.2052Z" fill="url(#paint7_linear_1428_6213)"/>
<path d="M103.969 53.7955C104.936 53.3075 102.92 51.4371 102.275 50.9491C101.227 50.9491 100.662 52.2503 101.146 53.2262C101.63 54.2021 103.001 54.2834 103.969 53.7955Z" fill="url(#paint8_linear_1428_6213)"/>
<path d="M64.7777 13.8651C63.7455 13.8651 63.1649 11.6964 63.0036 10.6121C63.9175 10.2868 65.7131 9.83134 65.5841 10.6121C65.4551 11.3928 66.5518 12.6723 67.1162 13.2144C66.7668 13.4313 65.8099 13.8651 64.7777 13.8651Z" fill="url(#paint9_linear_1428_6213)"/>
</g>
</g>
<defs>
<linearGradient id="paint0_linear_1428_6213" x1="84.944" y1="24.7363" x2="66.6618" y2="21.8828" gradientUnits="userSpaceOnUse">
<stop stop-color="#C290D0"/>
<stop offset="1" stop-color="#DFA87A"/>
</linearGradient>
<linearGradient id="paint1_linear_1428_6213" x1="84.944" y1="24.7363" x2="66.6618" y2="21.8828" gradientUnits="userSpaceOnUse">
<stop stop-color="#C290D0"/>
<stop offset="1" stop-color="#DFA87A"/>
</linearGradient>
<linearGradient id="paint2_linear_1428_6213" x1="84.944" y1="24.7363" x2="66.6618" y2="21.8828" gradientUnits="userSpaceOnUse">
<stop stop-color="#C290D0"/>
<stop offset="1" stop-color="#DFA87A"/>
</linearGradient>
<linearGradient id="paint3_linear_1428_6213" x1="84.944" y1="24.7363" x2="66.6618" y2="21.8828" gradientUnits="userSpaceOnUse">
<stop stop-color="#C290D0"/>
<stop offset="1" stop-color="#DFA87A"/>
</linearGradient>
<linearGradient id="paint4_linear_1428_6213" x1="84.944" y1="24.7363" x2="66.6618" y2="21.8828" gradientUnits="userSpaceOnUse">
<stop stop-color="#C290D0"/>
<stop offset="1" stop-color="#DFA87A"/>
</linearGradient>
<linearGradient id="paint5_linear_1428_6213" x1="84.944" y1="24.7363" x2="66.6618" y2="21.8828" gradientUnits="userSpaceOnUse">
<stop stop-color="#C290D0"/>
<stop offset="1" stop-color="#DFA87A"/>
</linearGradient>
<linearGradient id="paint6_linear_1428_6213" x1="84.944" y1="24.7363" x2="66.6618" y2="21.8828" gradientUnits="userSpaceOnUse">
<stop stop-color="#C290D0"/>
<stop offset="1" stop-color="#DFA87A"/>
</linearGradient>
<linearGradient id="paint7_linear_1428_6213" x1="84.944" y1="24.7363" x2="66.6618" y2="21.8828" gradientUnits="userSpaceOnUse">
<stop stop-color="#C290D0"/>
<stop offset="1" stop-color="#DFA87A"/>
</linearGradient>
<linearGradient id="paint8_linear_1428_6213" x1="84.944" y1="24.7363" x2="66.6618" y2="21.8828" gradientUnits="userSpaceOnUse">
<stop stop-color="#C290D0"/>
<stop offset="1" stop-color="#DFA87A"/>
</linearGradient>
<linearGradient id="paint9_linear_1428_6213" x1="84.944" y1="24.7363" x2="66.6618" y2="21.8828" gradientUnits="userSpaceOnUse">
<stop stop-color="#C290D0"/>
<stop offset="1" stop-color="#DFA87A"/>
</linearGradient>
</defs>
</svg>
