<svg width="393" height="293" viewBox="0 0 393 293" fill="none" xmlns="http://www.w3.org/2000/svg">
<path d="M126.205 99.1978C129.942 85.5825 160.326 78.7443 167.742 73.3606L231.475 64.1805C231.475 72.6262 283.609 91.112 286.355 126.401C286.88 133.15 286.881 139.174 286.527 144.491C289.163 147.634 293.089 155.199 291.94 164.214C300.137 175.179 309.826 195.615 301.896 212.501C313.583 223.992 325.036 248.737 279.644 256.113C227.407 264.601 180.379 263.415 167.742 245.566C163.166 248.958 148.409 256.622 126.205 258.656C98.4503 261.2 82.2707 242.76 80.7454 232.269C79.5251 223.876 88.0554 214.65 92.4731 211.086C91.479 208.712 90.6915 206.034 90.2022 203.02C87.5177 186.488 99.5881 170.261 105.959 164.214C105.343 157.403 107.966 150.668 110.041 147.208C106.682 123.904 118.568 106.056 126.205 99.1978Z" fill="#FBBFBB"/>
<path d="M165.042 172.61L158.451 164.759L168.056 167.9L204.78 169.862L229.075 166.722L217.398 178.106L207.982 180.461L174.835 176.143L165.042 172.61Z" fill="#C9C9C9"/>
<path d="M234.926 76.2366C235.217 75.5376 236.021 75.2069 236.72 75.4984C236.725 75.5004 236.739 75.5053 236.763 75.514C236.8 75.5272 236.848 75.5448 236.911 75.5667C237.04 75.6112 237.207 75.6684 237.421 75.7415C237.844 75.8864 238.424 76.0856 239.136 76.3411C240.561 76.8524 242.513 77.587 244.821 78.5618C249.432 80.5101 255.478 83.4243 261.571 87.4427C273.718 95.4539 286.301 108.027 287.722 126.295C288.234 132.881 288.252 138.792 287.928 144.044C290.669 147.552 294.303 154.986 293.361 163.834C297.446 169.405 301.7 177.2 304.004 185.74C306.291 194.215 306.687 203.532 302.962 212.122C305.741 214.973 308.492 218.536 310.473 222.437C312.611 226.646 313.902 231.347 313.246 236.001C311.904 245.524 302.685 253.759 279.864 257.467C251.434 262.087 224.464 263.862 203.67 261.626C193.277 260.509 184.344 258.382 177.524 255.05C173.446 253.058 170.079 250.61 167.621 247.658C162.032 251.395 147.513 258.081 126.33 260.022C112.11 261.325 100.797 257.252 92.8323 251.46C84.9259 245.71 80.2189 238.182 79.388 232.466C78.7051 227.768 80.7548 223.007 83.3538 219.106C85.6912 215.597 88.5978 212.596 90.8294 210.672C89.9718 208.439 89.2918 205.967 88.8489 203.241C87.4435 194.585 89.9085 186.093 93.4612 179.067C96.8492 172.366 101.286 166.882 104.543 163.678C104.129 156.994 106.56 150.54 108.617 146.931C107.005 135.365 107.815 126.748 110.053 120.104C112.327 113.353 116.043 108.739 119.995 105.19C120.559 104.684 121.426 104.73 121.932 105.293C122.438 105.857 122.391 106.724 121.827 107.23C118.143 110.539 114.743 114.772 112.652 120.98C110.555 127.204 109.74 135.512 111.398 147.012C112.049 151.529 113.288 156.265 115.269 161.178C115.552 161.88 115.212 162.679 114.51 162.962C113.808 163.245 113.008 162.906 112.725 162.203C111.257 158.564 110.179 155.007 109.432 151.552C108.039 154.996 106.914 159.546 107.325 164.091C107.622 167.388 108.725 170.659 111.098 173.535C111.58 174.119 111.497 174.983 110.913 175.465C110.329 175.947 109.465 175.865 108.983 175.281C106.889 172.744 105.652 169.951 105.024 167.124C102.159 170.232 98.6685 174.846 95.9085 180.304C92.5044 187.036 90.277 194.923 91.556 202.8C92.0284 205.71 92.7863 208.285 93.7376 210.556C98.0036 220.741 106.221 224.97 110.325 225.841C111.066 225.998 111.539 226.726 111.382 227.467C111.225 228.208 110.497 228.681 109.756 228.524C105.132 227.543 96.7994 223.215 91.9788 213.318C90.0082 215.104 87.598 217.682 85.636 220.627C83.1708 224.328 81.5656 228.377 82.1028 232.072C82.7972 236.848 86.9424 243.785 94.4456 249.242C101.891 254.656 112.546 258.531 126.079 257.291C146.796 255.393 160.82 248.877 166.009 245.438C165.138 244.051 164.445 242.567 163.95 240.982C162.437 236.141 162.962 232.028 164.945 228.631C166.897 225.286 170.178 222.781 173.926 220.918C181.408 217.2 191.225 215.807 197.954 215.638C198.711 215.619 199.34 216.217 199.36 216.974C199.379 217.731 198.78 218.361 198.023 218.38C191.492 218.544 182.125 219.907 175.147 223.374C171.665 225.105 168.896 227.301 167.313 230.014C165.759 232.676 165.26 235.979 166.568 240.164C168.18 245.326 172.314 249.451 178.728 252.585C185.15 255.723 193.734 257.799 203.963 258.899C224.414 261.097 251.112 259.359 279.423 254.759C301.994 251.092 309.459 243.225 310.531 235.618C311.082 231.708 310.013 227.587 308.028 223.679C306.353 220.382 304.061 217.309 301.677 214.75C297.62 222.182 290.254 228.766 278.323 233.542C277.62 233.824 276.822 233.482 276.54 232.779C276.259 232.076 276.601 231.277 277.304 230.995C289.664 226.047 296.614 219.225 300.083 211.837C303.866 203.782 303.616 194.829 301.356 186.454C299.44 179.355 296.097 172.76 292.679 167.644C292.333 169.001 291.872 170.379 291.276 171.769C290.977 172.465 290.171 172.787 289.475 172.489C288.779 172.19 288.457 171.384 288.755 170.688C289.732 168.41 290.307 166.181 290.579 164.041C291.384 157.73 289.555 152.158 287.557 148.497C286.011 163.217 281.736 172.054 278.839 175.318C278.336 175.884 277.469 175.936 276.903 175.433C276.336 174.93 276.285 174.064 276.787 173.497C279.368 170.59 284.042 161.168 285.158 144.4C285.508 139.151 285.508 133.194 284.988 126.508C283.663 109.488 271.927 97.5589 260.061 89.7327C248.198 81.9089 236.57 78.4073 235.664 78.0296C234.965 77.7382 234.635 76.9356 234.926 76.2366ZM172.085 215.886C172.705 215.451 173.56 215.601 173.995 216.221C174.431 216.841 174.28 217.696 173.66 218.131C167.497 222.457 159.268 225.608 151.566 227.794C143.845 229.986 136.54 231.24 132.146 231.725C131.393 231.808 130.715 231.265 130.632 230.512C130.549 229.759 131.092 229.081 131.845 228.998C136.094 228.529 143.249 227.304 150.817 225.156C158.403 223.002 166.291 219.953 172.085 215.886ZM126.269 193.694C126.752 193.111 127.616 193.029 128.2 193.512C132.414 197.003 144.555 204.47 158.856 205.974C159.609 206.053 160.156 206.728 160.076 207.481C159.997 208.234 159.322 208.781 158.569 208.701C143.597 207.127 130.964 199.363 126.45 195.624C125.867 195.141 125.786 194.277 126.269 193.694ZM260.449 190.534C261.024 190.041 261.89 190.108 262.382 190.683C262.875 191.258 262.807 192.124 262.232 192.617C260.332 194.243 257.253 195.738 253.671 197.094C250.05 198.465 245.77 199.747 241.354 200.898C232.52 203.201 223.049 205.005 217.017 205.964C216.269 206.083 215.567 205.573 215.448 204.826C215.329 204.078 215.838 203.374 216.586 203.255C222.553 202.307 231.935 200.519 240.662 198.243C245.027 197.106 249.204 195.852 252.7 194.529C256.234 193.19 258.932 191.832 260.449 190.534ZM152.699 159.287C153.082 158.635 153.922 158.417 154.575 158.8C157.313 160.408 160.016 163.003 162.504 165.905C165.005 168.821 167.35 172.122 169.361 175.211C171.373 178.303 173.061 181.204 174.246 183.33C174.839 184.394 175.308 185.267 175.628 185.874C175.788 186.178 175.912 186.416 175.995 186.578C176.037 186.659 176.069 186.721 176.091 186.764L176.122 186.826C176.123 186.828 176.124 186.829 176.124 186.829L176.125 186.83C176.125 186.831 176.125 186.831 174.901 187.449L176.125 186.831C176.466 187.508 176.194 188.332 175.518 188.673C174.842 189.014 174.017 188.743 173.676 188.067V188.066L173.675 188.064C173.674 188.062 173.672 188.058 173.669 188.053C173.664 188.044 173.657 188.029 173.648 188.01C173.628 187.971 173.598 187.912 173.558 187.834C173.478 187.679 173.358 187.449 173.202 187.154C172.891 186.563 172.432 185.71 171.851 184.666C170.687 182.578 169.031 179.733 167.062 176.706C165.091 173.677 162.817 170.484 160.421 167.69C158.013 164.881 155.542 162.548 153.187 161.164C152.534 160.781 152.315 159.941 152.699 159.287ZM252.282 137.208C252.635 136.538 253.464 136.281 254.134 136.634C254.804 136.987 255.061 137.817 254.708 138.487C252.466 142.744 246.355 150.824 239.576 158.736C232.791 166.656 225.163 174.611 219.814 178.564C219.205 179.014 218.346 178.885 217.896 178.276C217.446 177.667 217.575 176.808 218.184 176.358C223.263 172.605 230.721 164.858 237.494 156.951C244.275 149.037 250.198 141.164 252.282 137.208Z" fill="#121212"/>
<path d="M186.624 53.468C189.587 48.0893 193.299 37.8386 184.442 39.8664C176.302 41.73 168.749 54.6285 165.27 62.3671C133.675 81.6919 130.513 95.2925 132.203 120.606C134.527 155.425 167.501 172.948 205.052 170.475C242.603 168.002 265.523 146.802 263.199 111.983C261.205 82.1063 236.001 56.2987 202.29 54.5449C206.182 51.5385 210.688 46.4085 203.459 45.1205C195.581 43.717 188.953 50.1008 186.624 53.468Z" fill="#C9C9C9"/>
<path d="M184.646 58.8152C187.365 53.8208 190.771 44.3023 182.64 46.1832C175.166 47.9123 168.234 59.8893 165.04 67.0753C147.516 76.1612 133.7 89.9809 131.987 110.828C130.225 132.277 139.907 147.277 144.969 152.096C157.976 167.708 178.592 171.312 201.294 170.099L203.498 169.967C237.976 167.678 258.104 158.288 257.325 114.28C255.352 84.4795 229.984 61.4544 199.031 59.8188C202.604 57.0276 206.74 52.2638 200.102 51.0662C192.869 49.7612 186.784 55.6886 184.646 58.8152ZM183.254 48.8559C184.25 48.6256 184.725 48.677 184.906 48.7204C184.947 48.8453 185.014 49.146 184.976 49.7517C184.84 51.8982 183.554 55.0892 182.238 57.5058C181.539 58.7897 181.968 60.3948 183.213 61.1563C184.458 61.9178 186.082 61.5686 186.908 60.362C187.793 59.067 189.59 57.0808 191.93 55.5951C194.257 54.1182 196.887 53.2747 199.611 53.7662C200.161 53.8654 200.519 53.9778 200.744 54.0677C200.555 54.4428 200.194 54.9625 199.619 55.589C198.961 56.3074 198.152 57.0267 197.345 57.6572L191.566 62.172L198.882 62.5581C228.581 64.1275 252.673 86.1607 254.584 114.387C254.958 136.001 250.183 148.353 241.823 155.71C233.319 163.192 220.499 166.088 203.32 167.229C179.948 168.781 159.615 165.388 147.076 150.338L146.975 150.216L146.861 150.108C142.342 145.805 133.032 131.595 134.72 111.048C136.325 91.5095 149.227 78.3624 166.299 69.5109L167.154 69.0675L167.545 68.1865C169.087 64.7185 171.522 60.1206 174.431 56.2227C177.442 52.1883 180.537 49.4846 183.254 48.8559Z" fill="#121212"/>
<path d="M187.263 114.934C186.945 127.56 153.13 122.614 151.91 134.358C149.978 152.965 174.442 161.097 191.568 161.121C208.695 161.146 236.452 150.644 236.337 137.952C236.232 126.437 198.187 128.938 201.347 114.374C204.653 99.1354 236.388 109.981 240.28 99.6913C245.104 86.9408 218.802 71.2337 198.897 71.2051C181.771 71.1806 153.831 80.0392 153.348 93.8068C152.944 105.283 187.522 104.685 187.263 114.934Z" fill="white"/>
<path d="M182.558 127.607C182.704 130.971 187.193 135.477 192.475 135.167C197.756 134.857 201.83 129.849 201.684 126.484C201.537 123.12 197.226 122.675 191.944 122.985C186.662 123.294 182.411 124.242 182.558 127.607Z" fill="#121212"/>
<path d="M183.289 141.449C182.627 141.29 181.937 141.677 181.705 142.362C181.474 143.047 181.782 143.787 182.399 144.081L182.526 144.134L182.527 144.135L182.528 144.135C182.529 144.136 182.531 144.136 182.533 144.137C182.536 144.138 182.541 144.14 182.546 144.142C182.557 144.146 182.573 144.151 182.592 144.158C182.631 144.171 182.685 144.189 182.755 144.212C182.896 144.257 183.098 144.321 183.353 144.395C183.863 144.543 184.588 144.736 185.463 144.918C187.202 145.279 189.58 145.606 192.051 145.431C195.051 145.219 197.535 144.558 199.275 143.947C200.145 143.641 200.833 143.347 201.309 143.126C201.546 143.016 201.732 142.923 201.861 142.856C201.925 142.823 201.976 142.796 202.013 142.776C202.031 142.766 202.045 142.758 202.056 142.752C202.061 142.749 202.066 142.746 202.069 142.744C202.071 142.743 202.072 142.743 202.074 142.742L202.077 142.741C202.077 142.741 202.078 142.74 201.445 141.515L202.077 142.74C202.733 142.37 202.981 141.52 202.632 140.843C202.283 140.167 201.468 139.918 200.813 140.289L200.812 140.289C200.808 140.291 200.802 140.295 200.792 140.301C200.77 140.312 200.735 140.332 200.686 140.357C200.588 140.407 200.436 140.484 200.234 140.578C199.829 140.766 199.221 141.027 198.44 141.301C196.876 141.85 194.625 142.45 191.9 142.643C189.75 142.795 187.626 142.51 186.02 142.177C185.222 142.011 184.563 141.836 184.107 141.704C183.879 141.638 183.703 141.582 183.586 141.544C183.528 141.525 183.484 141.51 183.456 141.501L183.42 141.488L183.421 141.488L183.289 141.449Z" fill="#121212"/>
<path d="M171.42 118.393C175.177 118.013 177.679 115.321 178.542 113.442C178.892 112.682 178.569 111.79 177.823 111.451C177.076 111.112 176.188 111.454 175.839 112.214C175.334 113.312 173.66 115.142 171.176 115.393C170.06 115.506 168.925 115.187 167.931 114.598C166.927 114.004 166.176 113.199 165.804 112.501C165.417 111.773 164.513 111.512 163.785 111.916C163.058 112.321 162.782 113.239 163.17 113.966C163.829 115.204 164.989 116.38 166.386 117.207C167.793 118.039 169.548 118.582 171.42 118.393Z" fill="#121212"/>
<path d="M214.971 119.371C211.215 118.991 208.714 116.301 207.85 114.421C207.501 113.661 207.822 112.769 208.568 112.428C209.314 112.088 210.203 112.429 210.552 113.189C211.057 114.288 212.731 116.118 215.217 116.369C216.333 116.482 217.468 116.163 218.462 115.575C219.466 114.98 220.217 114.174 220.588 113.477C220.976 112.749 221.879 112.488 222.606 112.892C223.333 113.297 223.608 114.215 223.22 114.943C222.56 116.182 221.4 117.357 220.003 118.184C218.596 119.017 216.842 119.56 214.971 119.371Z" fill="#121212"/>
<path d="M207.607 197.234L208.595 162.556C198.168 155.23 180.948 158.2 173.641 160.601V169.862V192.809V198.263C189.282 206.495 202.802 201.007 207.607 197.234Z" fill="#86EFAC"/>
<path d="M176.385 165.366C189.263 169.602 199.793 168.118 205.78 165.053L204.905 195.792C200.195 198.864 189.233 202.641 176.385 196.567V165.366ZM190.002 160.673C194.874 160.578 199.719 161.204 203.761 162.981C198.291 165.457 188.658 166.66 176.659 162.568C180.125 161.641 184.946 160.772 190.002 160.673ZM173.641 198.263C189.282 206.495 202.802 201.007 207.607 197.233L208.595 162.556C198.168 155.23 180.948 158.2 173.641 160.601V198.263Z" fill="#121212"/>
<path d="M177.168 183.516C177.282 174.888 165.48 173.032 159.565 173.183C153.764 181.308 159.129 192.369 162.536 196.884C167.366 196.023 177.055 192.145 177.168 183.516Z" fill="#C9C9C9"/>
<path d="M158.199 173.218C158.192 172.458 158.798 171.826 159.552 171.807C162.045 171.744 165.562 172.018 168.884 172.987C169.328 172.622 169.78 172.264 170.228 171.923C171.094 171.266 171.979 170.654 172.777 170.213C173.176 169.992 173.585 169.797 173.981 169.663C174.356 169.536 174.837 169.423 175.333 169.485C176.08 169.578 176.601 170.265 176.496 171.019C176.392 171.774 175.701 172.31 174.954 172.217C175.045 172.229 175.02 172.202 174.813 172.272C174.627 172.335 174.375 172.448 174.06 172.622C173.436 172.967 172.682 173.481 171.873 174.094C173.871 175.022 175.714 176.334 176.953 178.134C177.858 177.909 178.565 177.727 178.866 177.629C179.587 177.395 180.351 177.791 180.572 178.514C180.794 179.237 180.389 180.014 179.668 180.249C179.388 180.34 178.848 180.485 178.157 180.66C178.411 181.528 178.548 182.476 178.534 183.512C178.499 186.215 177.629 188.489 176.312 190.374C177.115 191.06 177.894 191.618 178.56 191.926C179.241 192.241 179.53 193.057 179.207 193.749C178.883 194.441 178.067 194.746 177.386 194.431C176.429 193.987 175.436 193.263 174.515 192.476C173.849 193.125 173.134 193.71 172.395 194.234C169.15 196.535 165.317 197.783 162.753 198.24C162.008 198.373 161.307 197.873 161.187 197.125C161.068 196.376 161.575 195.662 162.319 195.529C164.585 195.125 168.011 194.002 170.847 191.992C171.447 191.566 172.014 191.104 172.535 190.607C171.661 189.705 170.915 188.84 170.434 188.236C169.966 187.648 170.066 186.781 170.657 186.299C171.248 185.818 172.107 185.904 172.576 186.492C172.973 186.991 173.589 187.708 174.316 188.47C175.224 187.051 175.777 185.41 175.802 183.52C175.813 182.722 175.699 181.989 175.479 181.316C173.808 181.715 172.036 182.127 170.898 182.387C170.16 182.556 169.435 182.093 169.279 181.352C169.124 180.611 169.596 179.872 170.334 179.703C171.297 179.483 172.641 179.168 173.986 178.85C173.002 177.811 171.665 176.985 170.09 176.333C169.877 176.244 169.661 176.159 169.443 176.078C168.67 176.748 167.966 177.392 167.423 177.91C166.871 178.437 166.006 178.419 165.493 177.871C164.979 177.323 165.01 176.451 165.562 175.924C165.795 175.702 166.058 175.458 166.341 175.198C163.898 174.677 161.44 174.512 159.578 174.559C158.823 174.579 158.205 173.978 158.199 173.218Z" fill="#121212"/>
<path d="M201.893 184.45C201.779 175.821 213.582 173.966 219.497 174.117C223.325 187.972 219.497 189.797 216.526 197.818C211.696 196.957 202.007 193.078 201.893 184.45Z" fill="#C9C9C9"/>
<path d="M205.341 169.06C204.647 168.748 203.844 169.058 203.546 169.752C203.249 170.446 203.57 171.26 204.264 171.571C205.378 172.071 206.433 173.005 207.553 174.194C207.697 174.348 207.844 174.511 207.995 174.677C207.963 174.69 207.93 174.704 207.898 174.717C205.541 175.694 203.321 177.169 201.945 179.312C201.844 179.265 201.745 179.221 201.649 179.177C201.091 178.921 200.547 178.678 200.196 178.563C199.475 178.329 198.711 178.724 198.489 179.447C198.268 180.17 198.673 180.947 199.394 181.182C199.561 181.236 199.94 181.4 200.551 181.681C200.644 181.723 200.741 181.767 200.841 181.813C200.627 182.62 200.515 183.497 200.527 184.446C200.564 187.245 201.495 189.584 202.891 191.507C201.957 191.848 200.928 192.218 200.092 192.605C199.411 192.921 199.122 193.737 199.446 194.429C199.77 195.12 200.584 195.426 201.266 195.11C202.345 194.611 203.533 194.236 204.872 193.719C205.444 194.245 206.047 194.729 206.667 195.168C209.911 197.469 213.745 198.716 216.309 199.173C217.054 199.306 217.755 198.806 217.875 198.058C217.994 197.309 217.487 196.595 216.742 196.462C214.477 196.058 211.051 194.935 208.215 192.925C207.984 192.761 207.759 192.589 207.538 192.415C207.954 192.131 208.33 191.807 208.627 191.434C209.096 190.846 208.996 189.979 208.405 189.497C207.813 189.015 206.955 189.101 206.486 189.689C206.298 189.925 205.966 190.167 205.486 190.424C204.145 188.787 203.291 186.815 203.26 184.454C203.253 183.931 203.3 183.436 203.394 182.967C204.7 183.536 206.132 184.108 207.274 184.37C208.012 184.539 208.737 184.076 208.893 183.335C209.049 182.593 208.577 181.855 207.839 181.686C206.957 181.484 205.747 181.008 204.502 180.468C205.507 179.1 207.065 178.056 208.972 177.266C209.304 177.128 209.645 177.002 209.991 176.882C210.308 177.221 210.622 177.547 210.931 177.841C211.483 178.368 212.348 178.351 212.861 177.802C213.309 177.325 213.343 176.602 212.98 176.075C215.337 175.597 217.688 175.447 219.484 175.492C220.239 175.512 220.856 174.912 220.863 174.152C220.87 173.392 220.264 172.759 219.51 172.74C217.176 172.681 213.945 172.918 210.816 173.743C210.414 173.29 209.99 172.815 209.52 172.316C208.351 171.074 206.981 169.796 205.341 169.06Z" fill="#121212"/>
<path d="M195.287 147.765C195.964 147.426 196.788 147.701 197.127 148.378C197.281 148.686 197.436 149.189 197.557 149.728C197.685 150.298 197.797 151.015 197.82 151.787C197.864 153.266 197.587 155.286 196.043 156.65C195.988 156.697 195.905 156.792 195.91 157.11C195.915 157.462 196.033 157.951 196.289 158.553C196.796 159.748 197.683 161.018 198.353 161.816C198.84 162.396 198.764 163.261 198.184 163.748C197.604 164.235 196.738 164.16 196.252 163.58C195.477 162.657 194.413 161.154 193.764 159.624C193.441 158.863 193.18 158.001 193.168 157.151C193.154 156.269 193.415 155.311 194.227 154.594C194.849 154.045 195.114 153.068 195.079 151.869C195.062 151.303 194.979 150.761 194.881 150.327C194.833 150.112 194.783 149.931 194.74 149.795C194.692 149.645 194.666 149.59 194.673 149.605C194.335 148.927 194.609 148.103 195.287 147.765ZM184.917 152.371C185.531 152.046 186.304 152.233 186.698 152.823C187.026 153.316 186.992 153.942 186.662 154.394C186.677 154.475 186.704 154.589 186.75 154.74C186.945 155.386 187.264 156.054 187.599 156.91C187.863 157.584 187.786 158.257 187.639 158.777C187.49 159.306 187.233 159.807 186.965 160.238C186.43 161.1 185.722 161.884 185.227 162.356C184.678 162.878 183.81 162.856 183.288 162.308C182.766 161.759 182.788 160.89 183.336 160.368C183.713 160.011 184.255 159.405 184.636 158.791C184.827 158.484 184.945 158.226 185 158.033C185.024 157.948 185.029 157.897 185.03 157.873C184.788 157.261 184.354 156.294 184.125 155.536C184.003 155.136 183.885 154.64 183.902 154.146C183.919 153.626 184.103 152.906 184.796 152.443L184.917 152.371Z" fill="#121212"/>
</svg>
