<svg width="180" height="118" viewBox="0 0 180 118" fill="none" xmlns="http://www.w3.org/2000/svg">
<g clip-path="url(#clip0_1184_435)">
<g clip-path="url(#clip1_1184_435)">
<path d="M157.74 153.664C165.105 130.377 148.624 101.274 139.96 90.8525L69.9598 93.2902C66.5002 104.004 53.9857 147.842 50.52 156.898C46.1879 168.218 148.535 182.772 157.74 153.664Z" fill="#C9C9C9"/>
<path d="M108.226 150.883C112.12 150.783 120.14 150.001 122.365 149.408C124.59 148.814 130.14 144.691 133.145 137.022C136.15 129.353 128.684 120.439 127.925 119.834C127.166 119.228 116.184 107.214 103.338 108.218C90.4925 109.223 79.976 114.454 77.1455 117.229C74.3149 120.004 69.1347 126.234 72.579 134.606C76.0233 142.977 81.2941 151.571 108.226 150.883Z" fill="white"/>
<path d="M128.515 23.9721C128.121 19.3878 128.735 11.2832 134.333 15.5403C139.478 19.4526 140.736 30.5922 140.75 36.9318C155.839 64.3849 146.341 70.6978 140.75 89.6274C121.987 108.988 102.833 111.902 77.1698 97.9715C51.5069 84.0404 41.393 60.9075 53.9905 38.2574C65.6004 17.3833 92.8544 9.74296 117.144 19.5777C115.35 16.2848 113.792 11.3636 119.288 12.8595C125.277 14.4896 127.935 20.9472 128.515 23.9721Z" fill="#C9C9C9"/>
<path d="M128.648 19.386C130.048 18.989 131.508 19.5679 132.915 20.6426C135.677 22.7528 137.22 26.6488 138.098 30.4677C138.947 34.1557 139.239 38.0807 139.262 41.0409C141.81 44.2519 144.352 47.8502 146.125 51.7722L146.482 52.5911L146.499 52.6319L146.513 52.6723C149.552 61.4644 151.403 76.4246 141.08 90.0112C143.94 93.1158 147.86 98.0713 151.274 103.888C155.015 110.262 158.227 117.798 158.674 125.136L155.931 125.307C155.522 118.587 152.547 111.486 148.902 105.275C145.699 99.8182 142.038 95.1481 139.328 92.1635C135.937 96.0691 131.486 99.7986 125.723 103.173C125.068 103.556 124.227 103.338 123.844 102.687C123.461 102.035 123.681 101.196 124.336 100.813C130.436 97.2405 134.935 93.2994 138.206 89.2402C148.52 76.439 146.859 62.1148 143.928 53.607C142.234 49.5821 139.581 45.8299 136.819 42.3824L136.518 42.0068L136.52 41.5254C136.526 38.6587 136.257 34.72 135.421 31.0854C134.567 27.3761 133.196 24.3111 131.24 22.8172C130.081 21.9314 129.54 21.9788 129.395 22.02C129.245 22.0625 128.927 22.264 128.609 23.0795C127.978 24.6961 127.89 27.3764 128.057 29.4555C128.116 30.1814 127.594 30.8267 126.869 30.9241C126.145 31.0213 125.471 30.5357 125.338 29.8194C125.107 28.5812 124.436 26.5653 123.192 24.7062C121.952 22.8544 120.217 21.2596 117.882 20.6294C116.725 20.317 116.285 20.4505 116.196 20.496C116.178 20.5049 116.18 20.5046 116.173 20.5185C116.156 20.5497 116.118 20.6446 116.107 20.8436C116.084 21.2632 116.195 21.8826 116.456 22.6498C116.709 23.3943 117.07 24.1799 117.454 24.8936L119.252 28.2358L115.725 26.8115C93.9513 18.015 69.6527 25.0875 59.2686 43.7432C52.1679 58.2181 51.5511 68.2974 55.2485 76.2461C58.9951 84.3004 67.3248 90.5454 79.0823 96.9356L77.7643 99.34C65.9648 92.927 56.9072 86.3255 52.7561 77.4014C48.5586 68.3773 49.5305 57.3541 56.8174 42.5124L56.8329 42.4808L56.8498 42.451C67.525 23.2314 91.6747 15.7155 113.732 23.1529C113.489 22.356 113.32 21.5006 113.364 20.701C113.416 19.7385 113.805 18.6443 114.945 18.0607C115.96 17.5408 117.238 17.6174 118.605 17.9863C121.775 18.842 124.001 20.977 125.477 23.1832C125.534 23.2679 125.589 23.3537 125.643 23.4388C125.752 22.9639 125.886 22.5101 126.049 22.0913C126.48 20.9885 127.252 19.7819 128.648 19.386Z" fill="#121212"/>
<path d="M101.004 63.1956C99.5323 72.6685 126.047 73.6483 125.383 82.5873C124.332 96.7499 104.532 99.4414 91.4398 97.0927C78.3478 94.744 58.5613 83.0652 60.3736 73.603C62.0178 65.0183 90.7533 72.1438 90.3169 60.8311C89.8603 48.9941 64.1343 52.7075 62.5571 44.4852C60.6027 34.2967 82.8371 26.2019 98.053 28.9317C111.145 31.2804 131.294 41.7573 129.793 52.1056C128.542 60.732 102.199 55.5059 101.004 63.1956Z" fill="white"/>
<path d="M100.967 74.0204C100.472 76.4672 96.5141 79.2337 92.4943 78.3779C88.4745 77.5221 85.9153 73.3681 86.41 70.9213C86.9046 68.4745 90.2658 68.6615 94.2856 69.5173C98.3054 70.3731 101.462 71.5736 100.967 74.0204Z" fill="#121212"/>
<path d="M98.0368 83.9366C98.7508 83.681 99.5372 84.05 99.7935 84.7606C100.05 85.4715 99.6786 86.2554 98.9645 86.5116L98.5003 85.2245L98.9639 86.5124L98.9631 86.5118L98.9617 86.512C98.9609 86.5123 98.9602 86.5134 98.9592 86.5138C98.9569 86.5146 98.9539 86.516 98.9506 86.5172C98.9441 86.5195 98.9354 86.5216 98.9252 86.5251C98.9045 86.5323 98.876 86.5421 98.8406 86.5538C98.7695 86.5772 98.6692 86.6089 98.5444 86.646C98.2951 86.7201 97.943 86.8164 97.5193 86.9083C96.6818 87.09 95.5161 87.2666 94.2848 87.2053C92.8226 87.1326 91.6079 86.8466 90.752 86.5765C90.3234 86.4412 89.9818 86.3093 89.7412 86.2075C89.6208 86.1566 89.5246 86.1133 89.4557 86.0808C89.4217 86.0648 89.3943 86.0511 89.3735 86.0408C89.3631 86.0357 89.354 86.0309 89.347 86.0274C89.3435 86.0256 89.3399 86.0239 89.3372 86.0226C89.336 86.022 89.3345 86.0215 89.3335 86.021L89.3319 86.0199C89.3316 86.0197 89.3311 86.019 89.9658 84.8044L89.3311 86.0193C88.6579 85.6711 88.3961 84.8448 88.7466 84.174C89.0972 83.5032 89.9281 83.242 90.6012 83.5902C90.6078 83.5934 90.6191 83.5991 90.6352 83.6067C90.6721 83.6241 90.7336 83.6524 90.8181 83.6881C90.9872 83.7596 91.2474 83.8606 91.5853 83.9673C92.2629 84.1812 93.2428 84.4127 94.4257 84.4716C95.3298 84.5166 96.237 84.3863 96.9379 84.2342C97.2833 84.1592 97.5674 84.0813 97.7615 84.0236C97.8581 83.9949 97.9317 83.9712 97.9787 83.9557C98.0022 83.9479 98.0191 83.9425 98.0288 83.9391C98.0325 83.9379 98.0352 83.9371 98.0368 83.9366ZM90.5967 83.588L90.5946 83.5877C90.5951 83.5879 90.5964 83.5883 90.5983 83.5892L90.5967 83.588Z" fill="#121212"/>
<path d="M113.15 62.2101C116.07 63.0764 117.666 65.4979 118.084 67.0994C118.292 67.8995 117.81 68.7181 117.007 68.9279C116.204 69.1377 115.384 68.6595 115.175 67.8594C114.975 67.0899 114.034 65.6007 112.287 65.0823C111.522 64.8554 110.68 64.9119 109.896 65.1738C109.097 65.4404 108.476 65.8803 108.151 66.2655C107.615 66.8985 106.667 66.9796 106.034 66.4472C105.4 65.9147 105.321 64.9702 105.856 64.3373C106.593 63.4654 107.712 62.7462 108.947 62.3337C110.196 61.9167 111.68 61.7742 113.15 62.2101Z" fill="#121212"/>
<path d="M81.1811 56.2893C84.2199 56.4956 86.3105 58.5078 87.0716 59.9789C87.4518 60.714 87.163 61.6198 86.4265 62.001C85.6901 62.3818 84.7851 62.0944 84.405 61.3595C84.0393 60.6527 82.7923 59.4051 80.9722 59.2815C80.1751 59.2274 79.3657 59.4674 78.6584 59.8945C77.9387 60.3292 77.4304 60.894 77.198 61.3405C76.8151 62.0754 75.9088 62.3618 75.1738 61.9808C74.4389 61.5998 74.153 60.6954 74.5354 59.9604C75.0625 58.948 75.9964 58.0012 77.11 57.3288C78.2361 56.6489 79.652 56.1856 81.1811 56.2893Z" fill="#121212"/>
<path d="M95.1269 89.5511C77.6113 98.5406 39.4826 116.41 27.0924 115.971C14.7023 115.532 12.4499 107.119 12.8724 102.968C13.1848 99.0725 16.003 91.3256 24.7776 91.5011C28.5102 91.5758 31.0588 92.8352 32.4265 94.6358C35.0776 98.126 34.379 103.085 28.1798 105.954C30.6846 106.258 33.5176 105.695 34.4938 105.452C36.0335 105.068 71.6405 92.9661 89.2516 86.9629L95.1269 89.5511Z" fill="#C1B8FF"/>
<path d="M98.3139 89.457L95.7534 90.7715C86.9724 95.2781 73.0272 102.009 59.7153 107.562C53.0608 110.339 46.543 112.829 40.897 114.601C35.3026 116.356 30.3983 117.461 27.0444 117.342C20.5159 117.111 16.441 114.753 14.0903 111.697C11.791 108.708 11.2734 105.217 11.5063 102.858C11.6788 100.708 12.529 97.5285 14.563 94.874C16.6421 92.1608 19.9396 90.0325 24.8052 90.1299C28.8189 90.2102 31.8248 91.5761 33.519 93.8066C35.0722 95.8516 35.6974 98.4141 34.9341 100.927C34.5574 102.167 33.8599 103.334 32.8471 104.386C33.4109 104.29 33.8715 104.194 34.1626 104.121C34.1626 104.121 34.1661 104.119 34.1743 104.117C34.1833 104.115 34.1965 104.112 34.2124 104.107C34.2443 104.098 34.2861 104.085 34.3384 104.069C34.4433 104.037 34.5816 103.994 34.7534 103.939C35.097 103.83 35.563 103.679 36.1391 103.49C37.2907 103.112 38.8737 102.586 40.7876 101.945C44.6152 100.664 49.7593 98.9274 55.4067 97.0156C66.7009 93.1922 80.0042 88.6664 88.8091 85.665L89.3149 85.4922L98.3139 89.457ZM89.187 88.4326C80.3828 91.4334 67.3678 95.8617 56.2856 99.6133C50.6376 101.525 45.4907 103.263 41.6587 104.546C37.8779 105.812 35.2791 106.669 34.8247 106.782C33.7986 107.038 30.771 107.65 28.0151 107.315C26.6769 107.153 25.2273 106.749 24.1216 105.805C22.944 104.799 22.3244 103.327 22.4429 101.438C22.6338 98.3976 24.4773 96.3888 26.4936 95.1631C27.4228 94.5983 28.4173 94.1798 29.3686 93.8789C28.2294 93.2999 26.7089 92.9113 24.7505 92.8721C20.8417 92.7939 18.3424 94.4519 16.7407 96.542C15.0941 98.6907 14.3797 101.333 14.2397 103.077L14.2387 103.092L14.2368 103.106C14.0544 104.898 14.4562 107.674 16.2651 110.025C18.0325 112.323 21.2795 114.393 27.1411 114.601C29.9822 114.701 34.4902 113.736 40.0766 111.983C45.6116 110.247 52.0441 107.791 58.6596 105.031C70.6547 100.027 83.1821 94.0514 91.9262 89.6387L89.187 88.4326ZM31.7651 96.1113C30.6134 96.3129 29.1657 96.7487 27.9184 97.5068C26.3902 98.4359 25.2972 99.7464 25.1802 101.61C25.1092 102.743 25.4575 103.338 25.9028 103.719C26.3574 104.107 27.0533 104.384 27.9585 104.536C30.5681 103.243 31.8554 101.625 32.31 100.129C32.7138 98.7995 32.5152 97.3939 31.7651 96.1113Z" fill="#121212"/>
<path d="M38.3417 146.317C35.5515 140.485 43.5732 131.967 47.9327 128.438C72.6952 103.962 54.7337 96.6712 69.905 93.8938C85.0763 91.1164 87.3433 116.807 87.5177 122.536C87.692 128.264 82.2862 147.185 68.1611 154.823C54.0361 162.461 41.8293 153.608 38.3417 146.317Z" fill="#C9C9C9"/>
<path d="M69.6581 92.5451C73.8929 91.7699 77.3027 92.9977 79.9482 95.3713C82.5353 97.6926 84.3449 101.061 85.623 104.554C88.1817 111.547 88.7996 119.572 88.8886 122.494C88.9848 125.656 87.5878 132.044 84.4365 138.561C81.2702 145.109 76.2204 152.024 68.8134 156.03C61.3686 160.055 54.3525 159.754 48.7392 157.436C43.1838 155.141 38.9996 150.871 37.1044 146.909C35.3644 143.272 37.0861 139.094 39.3154 135.753C41.5941 132.338 44.7594 129.252 47.0087 127.422C53.0921 121.402 56.4984 116.493 58.4462 112.504C60.3892 108.525 60.9102 105.403 61.1503 102.899C61.2642 101.711 61.3302 100.416 61.454 99.4211C61.5857 98.3639 61.8109 97.3015 62.3642 96.3381C63.5239 94.3189 65.8 93.2514 69.6581 92.5451ZM78.1171 97.4123C76.0653 95.5713 73.5028 94.6301 70.1523 95.2434C66.425 95.9257 65.2564 96.8106 64.7431 97.7043C64.46 98.1972 64.2913 98.8314 64.1757 99.76C64.0523 100.751 64.0176 101.733 63.8808 103.16C63.6195 105.885 63.0387 109.349 60.9111 113.707C58.7924 118.047 55.1684 123.214 48.8964 129.413L48.8486 129.461L48.7958 129.504C46.6891 131.21 43.7003 134.123 41.5966 137.276C39.4228 140.534 38.529 143.531 39.579 145.726C41.1716 149.055 44.835 152.857 49.7861 154.902C54.6792 156.923 60.8288 157.229 67.5087 153.617C74.2267 149.985 78.9424 143.621 81.9667 137.366C85.0059 131.081 86.2246 125.144 86.1464 122.577C86.061 119.771 85.4579 112.086 83.0468 105.496C81.84 102.198 80.2274 99.3058 78.1171 97.4123Z" fill="#121212"/>
<path d="M70.1373 102.075C72.9734 97.0698 82.1262 101.433 83.2865 102.075C82.2551 100.62 80.141 97.5575 79.9347 96.9415C79.7285 96.3256 75.8954 94.5461 74.0047 93.7334L68.4614 94.76L63.0471 97.7115L60.9845 110.929C58.0195 115.121 52.0379 123.736 51.8317 124.66C51.6254 125.584 44.7844 132.145 41.3897 135.311L38.1669 141.984C39.6279 141.642 45.2313 138.699 55.9569 129.665C69.3638 118.372 67.3012 107.079 70.1373 102.075Z" fill="white"/>
<path d="M69.6581 92.5451C73.8929 91.7699 77.3027 92.9977 79.9482 95.3713C82.5353 97.6926 84.3449 101.061 85.623 104.554C88.1817 111.547 88.7996 119.572 88.8886 122.494C88.9848 125.656 87.5878 132.044 84.4365 138.561C81.2702 145.109 76.2204 152.024 68.8134 156.03C61.3686 160.055 54.3525 159.754 48.7392 157.436C43.1838 155.141 38.9996 150.871 37.1044 146.909C35.3644 143.272 37.0861 139.094 39.3154 135.753C41.5941 132.338 44.7594 129.252 47.0087 127.422C53.0921 121.402 56.4984 116.493 58.4462 112.504C60.3892 108.525 60.9102 105.403 61.1503 102.899C61.2642 101.711 61.3302 100.416 61.454 99.4211C61.5857 98.3639 61.8109 97.3015 62.3642 96.3381C63.5239 94.3189 65.8 93.2514 69.6581 92.5451ZM78.1171 97.4123C76.0653 95.5713 73.5028 94.6301 70.1523 95.2434C66.425 95.9257 65.2564 96.8106 64.7431 97.7043C64.46 98.1972 64.2913 98.8314 64.1757 99.76C64.0523 100.751 64.0176 101.733 63.8808 103.16C63.6195 105.885 63.0387 109.349 60.9111 113.707C58.7924 118.047 55.1684 123.214 48.8964 129.413L48.8486 129.461L48.7958 129.504C46.6891 131.21 43.7003 134.123 41.5966 137.276C39.4228 140.534 38.529 143.531 39.579 145.726C41.1716 149.055 44.835 152.857 49.7861 154.902C54.6792 156.923 60.8288 157.229 67.5087 153.617C74.2267 149.985 78.9424 143.621 81.9667 137.366C85.0059 131.081 86.2246 125.144 86.1464 122.577C86.061 119.771 85.4579 112.086 83.0468 105.496C81.84 102.198 80.2274 99.3058 78.1171 97.4123Z" fill="#121212"/>
<path d="M62.9561 92.5138C63.2023 91.7977 63.9831 91.4171 64.6993 91.6632C65.4154 91.9095 65.796 92.6893 65.5499 93.4054C65.3917 93.8657 65.4249 94.6833 65.713 95.7765C65.9855 96.8108 66.4239 97.8652 66.8018 98.6535C67.1292 99.3363 66.8411 100.155 66.1583 100.483C65.4754 100.81 64.6567 100.522 64.3292 99.839C63.9078 98.9602 63.3927 97.735 63.0606 96.4748C62.7442 95.2735 62.5206 93.7811 62.9561 92.5138ZM68.3429 90.9835C68.8885 90.4585 69.7561 90.4751 70.2813 91.0207C71.1231 91.895 71.46 93.2474 71.6495 94.3146C71.8459 95.4207 71.9538 96.7373 72.0636 97.5949C72.1595 98.3459 71.629 99.0327 70.878 99.1291C70.1268 99.2252 69.439 98.6938 69.3429 97.9425C69.2053 96.868 69.1333 95.8306 68.9493 94.7941C68.7584 93.7193 68.5143 93.1398 68.3057 92.923C67.7805 92.3774 67.7972 91.5088 68.3429 90.9835ZM73.5401 89.3263C73.9932 88.7194 74.8531 88.5949 75.46 89.048C75.8805 89.362 76.1066 89.8252 76.2237 90.0949C76.3657 90.4219 76.4831 90.7984 76.5821 91.1759C76.7816 91.936 76.9444 92.851 77.0694 93.7199C77.1953 94.5951 77.2876 95.4593 77.3419 96.132C77.3689 96.4671 77.3871 96.766 77.3946 97.0011C77.3983 97.1169 77.4005 97.2325 77.3975 97.3361C77.3961 97.3872 77.3927 97.4506 77.3858 97.5177C77.3814 97.5614 77.3673 97.703 77.3136 97.8634C77.073 98.5814 76.2953 98.9681 75.5772 98.7277C74.9412 98.5145 74.5657 97.8806 74.6554 97.2394C74.6557 97.2095 74.6557 97.1604 74.6534 97.089C74.6478 96.9141 74.6335 96.6626 74.6085 96.3527C74.5586 95.7349 74.4721 94.9275 74.3546 94.1105C74.2361 93.2871 74.0904 92.4879 73.9288 91.8722C73.8474 91.5619 73.771 91.3348 73.7071 91.1876C73.6941 91.1577 73.6815 91.1353 73.6729 91.1183C73.1956 90.6448 73.1265 89.8806 73.5401 89.3263Z" fill="#121212"/>
<path d="M57.8038 10.4749C55.6464 11.3339 54.8673 15.3666 54.7474 17.2756C51.9308 17.2756 46.5851 16.4166 47.7358 12.9804C49.1741 8.68523 53.3091 4.03209 54.7474 4.74796C56.1857 5.46383 60.5006 9.4011 57.8038 10.4749Z" fill="url(#paint0_linear_1184_435)"/>
<path d="M38.0274 63.9859C38.4588 62.411 35.5703 60.9435 34.0721 60.4066C30.1168 60.4066 28.4987 63.0911 30.1168 65.7756C31.7349 68.4601 37.488 65.9546 38.0274 63.9859Z" fill="url(#paint1_linear_1184_435)"/>
<path d="M18.7903 54.8586C18.9341 56.2904 16.0935 57.3642 14.6552 57.7221C12.6176 56.7676 8.03902 54.4291 6.02542 52.711C3.50841 50.5634 3.86803 45.5524 7.46376 43.9417C11.0595 42.331 11.419 46.2682 12.3179 48.4158C13.2169 50.5634 18.6105 53.069 18.7903 54.8586Z" fill="url(#paint2_linear_1184_435)"/>
<path d="M196.959 79.914C198.397 76.8715 194.621 74.187 193.543 73.1132C194.681 71.8008 197.354 69.3191 198.936 69.8918C200.518 70.4645 202.232 76.8119 202.892 79.914C200.434 80.9281 195.808 82.3479 196.959 79.914Z" fill="url(#paint3_linear_1184_435)"/>
<path d="M184.194 45.1944C182.036 44.8365 181.677 41.6151 182.036 40.7203C182.899 40.7203 186.231 37.1409 187.789 35.3513C189.707 35.5302 193.543 36.3893 193.543 38.3937C193.543 40.8992 186.351 45.5524 184.194 45.1944Z" fill="url(#paint4_linear_1184_435)"/>
<path d="M172.687 56.1114C173.766 54.5007 170.17 52.711 169.092 52.711L163.339 56.1114C163.818 57.5431 164.921 60.5856 165.496 61.3014C166.215 62.1963 171.609 57.7221 172.687 56.1114Z" fill="url(#paint5_linear_1184_435)"/>
<path d="M182.036 92.6206C184.194 91.5468 179.699 87.4306 178.261 86.3568C175.924 86.3568 174.665 89.2202 175.744 91.3678C176.822 93.5154 179.879 93.6944 182.036 92.6206Z" fill="url(#paint6_linear_1184_435)"/>
<path d="M94.6601 4.74796C92.3589 4.74796 91.0644 -0.0244985 90.7048 -2.41073C92.7424 -3.1266 96.7456 -4.12882 96.458 -2.41073C96.1703 -0.692635 98.6154 2.12309 99.8739 3.3162C99.0948 3.79345 96.9614 4.74796 94.6601 4.74796Z" fill="url(#paint7_linear_1184_435)"/>
</g>
</g>
<defs>
<linearGradient id="paint0_linear_1184_435" x1="139.621" y1="28.6717" x2="98.8863" y2="22.2304" gradientUnits="userSpaceOnUse">
<stop stop-color="#C290D0"/>
<stop offset="1" stop-color="#DFA87A"/>
</linearGradient>
<linearGradient id="paint1_linear_1184_435" x1="139.621" y1="28.6717" x2="98.8863" y2="22.2304" gradientUnits="userSpaceOnUse">
<stop stop-color="#C290D0"/>
<stop offset="1" stop-color="#DFA87A"/>
</linearGradient>
<linearGradient id="paint2_linear_1184_435" x1="139.621" y1="28.6717" x2="98.8863" y2="22.2304" gradientUnits="userSpaceOnUse">
<stop stop-color="#C290D0"/>
<stop offset="1" stop-color="#DFA87A"/>
</linearGradient>
<linearGradient id="paint3_linear_1184_435" x1="139.621" y1="28.6717" x2="98.8863" y2="22.2304" gradientUnits="userSpaceOnUse">
<stop stop-color="#C290D0"/>
<stop offset="1" stop-color="#DFA87A"/>
</linearGradient>
<linearGradient id="paint4_linear_1184_435" x1="139.621" y1="28.6717" x2="98.8863" y2="22.2304" gradientUnits="userSpaceOnUse">
<stop stop-color="#C290D0"/>
<stop offset="1" stop-color="#DFA87A"/>
</linearGradient>
<linearGradient id="paint5_linear_1184_435" x1="139.621" y1="28.6717" x2="98.8863" y2="22.2304" gradientUnits="userSpaceOnUse">
<stop stop-color="#C290D0"/>
<stop offset="1" stop-color="#DFA87A"/>
</linearGradient>
<linearGradient id="paint6_linear_1184_435" x1="139.621" y1="28.6717" x2="98.8863" y2="22.2304" gradientUnits="userSpaceOnUse">
<stop stop-color="#C290D0"/>
<stop offset="1" stop-color="#DFA87A"/>
</linearGradient>
<linearGradient id="paint7_linear_1184_435" x1="139.621" y1="28.6717" x2="98.8863" y2="22.2304" gradientUnits="userSpaceOnUse">
<stop stop-color="#C290D0"/>
<stop offset="1" stop-color="#DFA87A"/>
</linearGradient>
<clipPath id="clip0_1184_435">
<rect width="180" height="118" fill="white"/>
</clipPath>
<clipPath id="clip1_1184_435">
<rect width="209" height="175" fill="white" transform="translate(-6 -4)"/>
</clipPath>
</defs>
</svg>
