<svg width="200" height="200" viewBox="0 0 200 200" fill="none" xmlns="http://www.w3.org/2000/svg">
<path d="M109.821 50.9025C106.854 45.9513 103.076 36.4804 111.703 38.2077C119.631 39.7952 127.181 51.6606 130.69 58.7983C168.45 80.4455 167.348 90.1825 166.146 113.766C164.493 146.205 129.459 164.095 92.9896 162.47C56.5207 160.844 32.4268 140.319 34.0801 107.88C35.6039 77.9852 61.9717 54.4248 94.6429 52.1864C90.8153 49.4592 86.3558 44.767 93.346 43.4386C100.964 41.9909 107.504 47.8114 109.821 50.9025Z" fill="#C9C9C9"/>
<path d="M125.037 48.6509C126.541 47.9599 128.328 48.3395 130.237 49.3853C133.94 51.4145 136.553 55.8518 138.363 60.4058C140.124 64.8365 141.24 69.6787 141.827 73.3419C145.866 77.0895 149.971 81.3769 152.973 86.2903C153.368 86.9366 153.164 87.7808 152.517 88.1757C151.871 88.5703 151.027 88.3665 150.632 87.7203C147.743 82.9911 143.709 78.8013 139.618 75.0327L139.263 74.7066L139.191 74.2302C138.648 70.6568 137.555 65.7976 135.815 61.4193C134.046 56.9693 131.73 53.3313 128.919 51.791C127.285 50.8954 126.502 50.9968 126.182 51.1435C125.858 51.2928 125.465 51.7386 125.22 52.8498C124.734 55.0553 125.154 58.459 125.761 61.0155C125.93 61.7256 125.513 62.444 124.813 62.6492C124.112 62.8541 123.374 62.4742 123.133 61.7853C122.598 60.2546 121.36 57.8409 119.434 55.7352C117.513 53.6361 114.995 51.9328 111.887 51.5845C110.371 51.4148 109.748 51.6549 109.541 51.8051C109.446 51.8743 109.3 52.0144 109.355 52.5705C109.414 53.1597 109.692 53.952 110.169 54.8691C110.636 55.765 111.242 56.6865 111.861 57.5091L114.142 60.5408L110.449 59.6677C81.7541 52.8792 52.9214 66.3367 43.6071 91.6457C37.5956 111.001 38.7383 123.743 44.9074 133.02C51.1402 142.392 62.7131 148.578 78.4538 154.262C99.9248 162.015 120.293 164.677 136.415 154.283C137.052 153.873 137.9 154.056 138.311 154.693C138.721 155.329 138.538 156.178 137.901 156.588C120.632 167.722 99.1505 164.652 77.5226 156.842C61.7366 151.141 49.3895 144.713 42.6237 134.539C35.7974 124.275 34.8607 110.546 40.9976 90.8025L41.0077 90.7699L41.0197 90.7378C50.5218 64.8545 79.0851 50.9761 107.832 56.3154C107.8 56.2556 107.767 56.1962 107.736 56.1363C107.194 55.0943 106.735 53.9386 106.626 52.8417C106.514 51.7119 106.77 50.4281 107.929 49.5857C108.977 48.8245 110.462 48.6651 112.193 48.859C116.163 49.3038 119.248 51.4699 121.457 53.8845C121.741 54.1951 122.012 54.5116 122.27 54.8308C122.286 53.9239 122.368 53.0494 122.543 52.2585C122.854 50.8481 123.539 49.3395 125.037 48.6509Z" fill="#121212"/>
<path d="M99.1644 107.923C99.1618 119.949 132.074 116.109 132.967 127.319C134.382 145.079 110.459 152.191 93.8507 151.774C77.2424 151.357 50.5852 140.649 51.01 128.571C51.3955 117.614 88.226 120.971 85.5212 107.028C82.691 92.4389 51.6505 101.947 48.1294 92.0528C43.7663 79.7927 69.6585 65.518 88.961 66.0023C105.569 66.4189 132.443 75.5684 132.573 88.6851C132.681 99.6191 99.1665 98.1608 99.1644 107.923Z" fill="#EFEFEF"/>
<path d="M101.19 121.35C101.048 124.478 96.6928 128.663 91.5676 128.368C86.4424 128.073 82.4884 123.411 82.6304 120.283C82.7724 117.155 86.9566 116.746 92.0818 117.041C97.207 117.336 101.332 118.222 101.19 121.35Z" fill="#121212"/>
<path d="M99.6387 134.508C100.304 134.146 101.136 134.392 101.499 135.056C101.861 135.721 101.616 136.554 100.951 136.916L100.95 136.917L100.948 136.918C100.947 136.919 100.946 136.919 100.945 136.92C100.943 136.921 100.94 136.923 100.937 136.924C100.93 136.928 100.92 136.933 100.908 136.939C100.885 136.951 100.854 136.968 100.814 136.989C100.733 137.03 100.619 137.087 100.476 137.155C100.189 137.292 99.7799 137.474 99.284 137.665C98.3015 138.044 96.9281 138.474 95.4377 138.628C93.6538 138.813 92.1295 138.693 91.0445 138.525C90.5012 138.44 90.0651 138.344 89.7581 138.266C89.6044 138.227 89.4827 138.192 89.3958 138.166C89.3526 138.153 89.3178 138.143 89.292 138.135C89.2793 138.131 89.2683 138.127 89.2599 138.125C89.2557 138.123 89.2517 138.122 89.2486 138.121C89.2473 138.12 89.2459 138.12 89.2447 138.12L89.2421 138.119C88.5248 137.876 88.1387 137.098 88.3809 136.38C88.6235 135.663 89.4021 135.278 90.1196 135.52L90.1153 135.518C90.1162 135.518 90.1191 135.52 90.1235 135.521C90.1334 135.525 90.1517 135.53 90.1778 135.538C90.2309 135.554 90.3167 135.578 90.4324 135.608C90.6642 135.666 91.0155 135.744 91.4647 135.814C92.3651 135.954 93.6493 136.056 95.1554 135.9C96.3206 135.779 97.4462 135.434 98.2985 135.106C98.7195 134.943 99.0629 134.79 99.298 134.678C99.4153 134.622 99.5052 134.577 99.5632 134.547C99.5921 134.532 99.6137 134.522 99.6263 134.515L99.6387 134.508Z" fill="#121212"/>
<path d="M113.709 105.52C117.33 106.017 119.664 108.613 120.443 110.419C120.771 111.18 120.421 112.063 119.66 112.391C118.899 112.719 118.017 112.368 117.689 111.607C117.251 110.591 115.706 108.822 113.301 108.492C112.223 108.344 111.117 108.597 110.145 109.099C109.159 109.609 108.42 110.318 108.05 110.927C107.619 111.634 106.696 111.859 105.988 111.428C105.281 110.998 105.057 110.075 105.487 109.367C106.188 108.215 107.374 107.155 108.767 106.435C110.174 105.708 111.902 105.272 113.709 105.52Z" fill="#121212"/>
<path d="M68.9326 110.002C69.3775 111.972 71.9341 113.073 74.6429 112.462C77.3518 111.85 79.187 109.757 78.7421 107.787C78.2972 105.817 75.7406 104.716 73.0317 105.327C70.3229 105.939 68.4876 108.032 68.9326 110.002Z" fill="#121212"/>
</svg>
