<svg width="393" height="332" viewBox="0 0 393 332" fill="none" xmlns="http://www.w3.org/2000/svg">
<g clip-path="url(#clip0_250_263)">
<path d="M29 190.5L-2.5 185.5L-13 232.5L98 227H162H230.5L271.5 232.5L315.5 244L377.5 252.5L405 254.5L418.5 246.5L412 200H372C339.333 203.167 273.5 209.5 271.5 209.5C269.5 209.5 155 203.167 98 200L29 190.5Z" fill="white"/>
<path d="M339.848 293.413C332.444 263.243 330.13 257.863 330.13 246.133L291.75 238.331C306.388 266.373 294.033 267.317 310.693 290.213C314.732 295.764 320.351 299.384 325.6 301.047C327.574 301.673 329.495 302.022 331.261 302.093C334.412 302.22 337.065 301.461 338.631 299.81C340.002 298.364 340.54 296.233 339.848 293.413Z" fill="#C9C9C9"/>
<path d="M332.77 294.205C337.484 294.855 339.603 293.061 340.275 290.371L338.255 279.12C339.694 282.252 341.114 287.01 340.275 290.371L341.455 296.948L338.255 301.976H329.113L317.685 296.948L298.145 260.549L291.182 238.348L304.598 240.729C312.98 264.732 324.225 293.026 332.77 294.205Z" fill="white"/>
<path d="M332.862 193.027C333.196 192.348 334.018 192.067 334.697 192.401C335.377 192.735 335.657 193.557 335.323 194.236C328.888 207.329 328.944 224.48 331.62 242.324C334.294 260.149 339.52 278.337 343.196 293.5C343.814 296.05 343.565 298.255 342.548 299.978C343.593 300.844 344.649 301.804 345.246 302.6C345.7 303.205 345.578 304.065 344.972 304.52C344.366 304.974 343.506 304.851 343.052 304.245C342.646 303.704 341.764 302.888 340.7 302.011C339.205 303.121 337.269 303.702 335.144 303.848C335.258 304.333 335.356 304.794 335.422 305.201C335.474 305.522 335.513 305.843 335.521 306.134C335.528 306.354 335.53 306.813 335.319 307.235C334.981 307.913 334.157 308.187 333.479 307.849C332.874 307.546 332.592 306.857 332.779 306.23C332.779 306.224 332.779 306.217 332.779 306.21C332.776 306.092 332.758 305.904 332.715 305.641C332.635 305.15 332.491 304.514 332.309 303.802C331.431 303.719 330.525 303.574 329.602 303.368C329.605 303.383 329.609 303.398 329.612 303.412C329.67 303.644 329.722 303.835 329.767 303.981C329.816 304.144 329.841 304.194 329.834 304.181C330.172 304.858 329.898 305.682 329.221 306.02C328.543 306.359 327.72 306.084 327.381 305.407C327.21 305.065 327.065 304.537 326.95 304.072C326.836 303.614 326.718 303.07 326.602 302.502C321.365 300.647 315.917 296.939 311.952 291.424C303.013 278.987 296.595 259.234 290.4 239.501C290.174 238.778 290.575 238.008 291.298 237.781C292.02 237.554 292.791 237.956 293.018 238.679C299.256 258.55 305.552 277.82 314.179 289.822C317.432 294.349 321.765 297.514 326.006 299.326C325.961 299.069 325.918 298.831 325.883 298.619C325.758 297.872 326.264 297.165 327.011 297.041C327.758 296.917 328.464 297.422 328.589 298.169C328.687 298.755 328.826 299.551 328.981 300.382C329.837 300.624 330.676 300.811 331.49 300.937C331.3 300.321 331.118 299.751 330.963 299.285C330.723 298.567 331.112 297.789 331.83 297.55C332.548 297.31 333.326 297.699 333.565 298.417C333.808 299.143 334.114 300.118 334.414 301.138C336.027 301.095 337.377 300.771 338.401 300.227C338.03 299.952 337.695 299.71 337.42 299.518C336.8 299.083 336.649 298.228 337.083 297.607C337.517 296.987 338.373 296.836 338.993 297.27C339.363 297.529 339.833 297.87 340.353 298.258C340.827 297.255 340.961 295.918 340.531 294.145C336.893 279.139 331.606 260.716 328.908 242.73C326.213 224.764 326.041 206.905 332.862 193.027Z" fill="#121212"/>
<path d="M144.296 56.6178C140.669 87.8906 150.037 98.9204 175.016 131.151V134.173C175.016 134.173 141.873 134.173 135.734 125.612C129.596 117.05 117.404 89.1507 114.584 80.2873C111.058 69.208 112.569 44.5311 123.145 27.4086C133.72 10.2861 152.354 9.78261 158.9 18.3439C164.138 25.1929 146.139 40.7262 144.296 56.6178Z" fill="#C9C9C9"/>
<path d="M144.295 56.6173C140.667 87.8902 150.036 98.92 175.015 131.151V134.172C175.015 134.172 159.812 129.777 153.674 121.216C147.536 112.654 138.553 99.045 135.733 90.1816C132.208 79.1023 130.475 54.8557 141.051 37.7332C151.626 20.6107 154.444 19.5759 156.73 21.4053C160.72 24.5988 146.138 40.7258 144.295 56.6173Z" fill="white"/>
<path d="M175.016 134.173L175.015 135.544H174.915C174.85 135.544 174.754 135.543 174.63 135.542C174.382 135.54 174.018 135.536 173.555 135.527C172.627 135.51 171.297 135.477 169.684 135.409C166.459 135.274 162.087 135.005 157.516 134.465C152.953 133.926 148.145 133.111 144.063 131.873C140.064 130.66 136.441 128.95 134.62 126.41C131.461 122.004 126.828 112.768 122.667 103.631C118.495 94.4691 114.713 85.2168 113.276 80.7031C111.43 74.9018 110.944 65.7414 112.217 55.9375C113.493 46.1101 116.56 35.4597 121.978 26.6885C127.458 17.8151 135.088 13.1625 142.296 11.8945C149.448 10.6363 156.323 12.7148 159.99 17.5107C161.744 19.804 161.398 22.6649 160.375 25.4512C159.341 28.2664 157.449 31.4636 155.427 34.8008C151.296 41.6182 146.538 49.1917 145.658 56.7754C143.866 72.2272 145.293 82.5341 150.17 92.9434C155.1 103.466 163.564 114.136 176.1 130.312L176.387 130.682V135.544H175.016V134.173ZM157.812 19.1768C154.932 15.4116 149.216 13.462 142.771 14.5957C136.382 15.7198 129.407 19.88 124.312 28.1289C119.153 36.48 116.178 46.7298 114.937 56.291C113.692 65.8757 114.211 74.5932 115.891 79.8711C117.275 84.2208 120.999 93.35 125.163 102.494C129.338 111.663 133.87 120.657 136.849 124.813C138.097 126.553 140.918 128.054 144.859 129.249C148.719 130.419 153.347 131.21 157.838 131.741C162.319 132.271 166.618 132.536 169.799 132.669C171.388 132.735 172.696 132.769 173.604 132.785C173.618 132.785 173.631 132.785 173.645 132.785V131.62C161.355 115.766 152.739 104.892 147.687 94.1074C142.542 83.1261 141.099 72.2808 142.934 56.46C143.897 48.1523 149.061 40.0132 153.081 33.3789C155.134 29.9903 156.874 27.0259 157.8 24.5059C158.736 21.9571 158.676 20.3078 157.812 19.1768Z" fill="#121212"/>
<path d="M266.17 196.508C271.49 195.444 282.828 195.283 296.92 195.546C311.081 195.811 328.211 196.511 345.235 197.226C362.269 197.94 379.195 198.668 392.978 198.989C399.87 199.15 405.962 199.208 410.88 199.113C415.83 199.018 419.493 198.767 421.584 198.338C422.326 198.186 423.051 198.664 423.203 199.406C423.355 200.148 422.877 200.872 422.135 201.024C419.769 201.51 415.874 201.76 410.933 201.855C405.958 201.952 399.822 201.892 392.915 201.731C379.1 201.41 362.142 200.68 345.12 199.966C328.089 199.251 310.992 198.552 296.869 198.288C282.677 198.023 271.673 198.204 266.708 199.197C258.308 200.877 239.596 201.212 219.797 200.973C199.928 200.732 178.768 199.909 165.346 199.223C164.59 199.184 164.008 198.539 164.047 197.783C164.086 197.027 164.73 196.445 165.486 196.483C178.882 197.168 200.006 197.991 219.83 198.23C239.724 198.471 258.113 198.119 266.17 196.508Z" fill="#121212"/>
<path d="M196.389 224.08C224.73 224.137 254.975 225.732 276.908 232.658C311.499 243.581 365.161 250.276 387.695 252.256C388.45 252.322 389.008 252.988 388.941 253.742C388.875 254.497 388.209 255.055 387.455 254.988C364.886 253.006 310.974 246.292 276.082 235.273C254.589 228.486 224.724 226.88 196.383 226.823C182.233 226.795 168.511 227.151 156.448 227.43C144.407 227.708 133.983 227.91 126.497 227.564C110.26 226.815 67.1001 228.953 30.584 231.192C15.6359 232.109 1.82452 233.042 -8.53125 233.796C-13.7095 234.173 -18.0212 234.506 -21.1777 234.77C-24.381 235.037 -26.303 235.227 -26.7861 235.314C-27.5313 235.45 -28.2454 234.956 -28.3809 234.211C-28.5163 233.466 -28.0215 232.752 -27.2764 232.616C-26.6268 232.498 -24.5293 232.297 -21.4063 232.036C-18.2361 231.771 -13.9137 231.438 -8.73047 231.061C1.63674 230.305 15.4586 229.372 30.416 228.455C66.8676 226.22 110.204 224.066 126.624 224.824C133.995 225.164 144.313 224.966 156.385 224.688C168.435 224.409 182.197 224.051 196.389 224.08Z" fill="#121212"/>
<path d="M21.5342 196.943C25.3816 197.253 31.4159 198.297 37.6094 199.24C43.8724 200.194 50.3409 201.054 55.251 201.054C56.0082 201.054 56.6221 201.668 56.6221 202.425C56.622 203.182 56.0081 203.796 55.251 203.796C50.1046 203.796 43.4418 202.903 37.1973 201.952C30.8833 200.991 25.0321 199.977 21.3135 199.678C20.5587 199.617 19.9958 198.955 20.0567 198.2C20.1176 197.445 20.7793 196.883 21.5342 196.943Z" fill="#121212"/>
<path d="M139.452 207.913C143.494 208.188 149.836 209.113 156.377 209.953C162.976 210.801 169.814 211.566 175.015 211.566C175.772 211.566 176.386 212.181 176.386 212.938C176.386 213.696 175.772 214.31 175.015 214.31C169.615 214.31 162.613 213.518 156.028 212.673C149.386 211.82 143.2 210.917 139.267 210.649C138.511 210.598 137.94 209.944 137.991 209.188C138.043 208.433 138.697 207.862 139.452 207.913Z" fill="#121212"/>
<path d="M359.784 222.542C363.826 222.817 370.168 223.742 376.709 224.582C383.308 225.43 390.146 226.195 395.347 226.195C396.104 226.195 396.718 226.81 396.718 227.567C396.718 228.325 396.104 228.938 395.347 228.938C389.947 228.938 382.945 228.147 376.36 227.302C369.718 226.449 363.532 225.546 359.599 225.278C358.843 225.227 358.272 224.573 358.323 223.817C358.375 223.062 359.029 222.491 359.784 222.542Z" fill="#121212"/>
<path d="M357.424 231.916C357.546 231.169 358.252 230.662 358.999 230.784C363.448 231.512 365.808 231.874 372.637 232.603C373.39 232.683 373.935 233.358 373.854 234.111C373.774 234.864 373.099 235.41 372.346 235.33C365.461 234.596 363.05 234.226 358.556 233.491C357.808 233.369 357.302 232.663 357.424 231.916Z" fill="#121212"/>
<path d="M225.392 217.056C229.434 217.33 235.776 218.256 242.316 219.096C248.916 219.943 255.754 220.709 260.954 220.709C261.711 220.709 262.325 221.324 262.325 222.081C262.325 222.838 261.711 223.452 260.954 223.452C255.554 223.452 248.552 222.661 241.968 221.815C235.325 220.962 229.139 220.059 225.206 219.792C224.45 219.741 223.879 219.087 223.931 218.331C223.982 217.575 224.636 217.004 225.392 217.056Z" fill="#121212"/>
<path d="M78.3627 213.749C76.3427 213.669 73.1568 213.743 69.9176 213.773C66.6306 213.803 63.2568 213.79 60.7249 213.551C59.9711 213.48 59.3021 214.033 59.2307 214.787C59.1594 215.54 59.7128 216.209 60.4666 216.281C63.1594 216.535 66.6674 216.546 69.9426 216.516C73.2654 216.485 76.3233 216.413 78.2545 216.489C79.0113 216.519 79.6489 215.93 79.6787 215.173C79.7086 214.417 79.1195 213.779 78.3627 213.749Z" fill="#121212"/>
<path d="M47.9355 219.338C48.6929 219.338 49.3076 219.952 49.3076 220.709C49.3076 221.466 48.6929 222.08 47.9355 222.08C44.8067 222.08 42.4636 222.304 40.5537 222.528C38.6879 222.748 37.0712 222.994 35.5938 222.994C34.8364 222.994 34.2227 222.38 34.2227 221.623C34.2228 220.866 34.8364 220.252 35.5938 220.252C36.859 220.252 38.2138 220.041 40.2334 219.804C42.2088 219.571 44.6653 219.338 47.9355 219.338Z" fill="#121212"/>
<path d="M156.475 218.902C157.224 219.015 157.741 219.713 157.628 220.462C157.515 221.211 156.816 221.727 156.067 221.614C152.973 221.149 150.623 221.022 148.701 220.96C146.823 220.9 145.188 220.903 143.727 220.684C142.978 220.571 142.462 219.873 142.575 219.124C142.687 218.375 143.385 217.859 144.134 217.972C145.386 218.16 146.757 218.153 148.789 218.218C150.777 218.282 153.241 218.416 156.475 218.902Z" fill="#121212"/>
<path d="M313.725 217.988C314.474 218.101 314.99 218.799 314.878 219.548C314.765 220.297 314.066 220.813 313.317 220.7C310.223 220.235 307.873 220.108 305.951 220.046C304.073 219.986 302.438 219.989 300.977 219.77C300.228 219.657 299.712 218.959 299.825 218.21C299.937 217.461 300.635 216.945 301.384 217.058C302.636 217.246 304.007 217.239 306.039 217.304C308.027 217.368 310.491 217.502 313.725 217.988Z" fill="#121212"/>
<path d="M218.949 135.267C193.774 134.535 169.172 125.366 161.305 120.186L142.561 208.368C152.279 203.034 170.234 200.139 175.417 212.939C176.661 216.01 178.652 221.666 180.508 226.652C182.832 232.895 199.992 274.938 203.148 282.379C209.028 296.241 218.036 314.117 226.575 320.6C228.596 322.135 230.591 323.031 232.512 323.085C232.764 323.092 233.015 323.085 233.264 323.062C234.907 322.915 236.468 322.391 237.883 321.473C244.33 317.294 247.749 304.951 242.057 282.836C238.493 268.988 224.898 218.512 225.397 208.368C243.347 215.576 286.206 225.179 309.159 205.924C323.797 233.966 327.67 282.139 344.33 305.035C348.369 310.586 353.988 314.205 359.237 315.869C361.211 316.495 363.132 316.844 364.897 316.915C368.048 317.042 370.702 316.283 372.268 314.632C373.639 313.186 374.177 311.055 373.485 308.235C366.08 278.065 356.362 235.338 369.782 208.368C383.203 181.398 382.286 143.187 347.146 123.95C308.736 102.922 250.417 136.181 218.949 135.267Z" fill="#C9C9C9"/>
<path d="M372.129 121.427C366.05 114.181 361.955 126.619 360.668 133.743C361.072 129.004 359.961 118.715 352.288 115.477C345.248 112.506 345.444 120.291 346.621 125.59C362.099 140.253 370.316 151.455 372.49 155.224C375.007 145.435 377.715 128.087 372.129 121.427Z" fill="#C9C9C9"/>
<path d="M294.781 188.254C278.325 206.539 247.241 202.882 227.584 197.853L225.299 208.824C286.096 225.738 306.666 208.824 307.123 206.539C307.489 204.71 299.047 193.587 294.781 188.254Z" fill="white"/>
<path d="M-18.3115 181.092C-18.1425 180.354 -17.407 179.892 -16.6689 180.061C3.26927 184.627 52.1491 194.205 88.2315 196.027C88.9879 196.066 89.5704 196.709 89.5322 197.466C89.494 198.222 88.85 198.805 88.0938 198.767C51.7689 196.932 2.70345 187.311 -17.2803 182.734C-18.0184 182.565 -18.4803 181.83 -18.3115 181.092Z" fill="#121212"/>
<path d="M293.41 184.598C302.4 195.264 319.312 203.832 326.78 224.367C332.265 239.452 352.019 306.54 365.275 308.368C369.99 309.018 372.108 307.224 372.78 304.534L370.761 293.283C372.2 296.415 373.62 301.173 372.78 304.534L373.961 311.111L370.761 316.139H361.618L350.19 311.111L330.651 274.712L316.723 230.31L308.495 206.539L293.41 184.598Z" fill="white"/>
<path d="M191.472 178.197C192.569 167.958 192.996 161.741 189.643 156.255C186.194 150.611 182.787 169.969 182.787 169.969L171.816 179.568L161.302 196.025L154.902 203.796H164.502L173.187 209.281L182.787 234.423L215.23 307.542L224.829 319.428L229.4 321.256L236.257 320.342C237.324 318.97 239.914 315.771 241.743 313.942C243.571 312.114 243.114 301.6 242.657 296.572C242.657 307.085 233.108 308.208 225.756 302.99C211.585 292.933 191.472 222.995 188.729 208.367C186.586 196.939 190.1 190.996 191.472 178.197Z" fill="white"/>
<path d="M128.319 96.9354C125.352 91.9831 121.575 82.5104 130.201 84.238C138.127 85.8259 145.675 97.6936 149.183 104.833C186.937 126.484 185.835 136.223 184.633 159.812C182.98 192.257 147.953 210.151 111.49 208.525C75.0283 206.9 50.9388 186.37 52.5918 153.925C54.1153 124.024 80.4782 100.458 113.143 98.2195C109.316 95.4918 104.858 90.7987 111.847 89.47C119.463 88.022 126.002 93.8437 128.319 96.9354Z" fill="#C9C9C9"/>
<path d="M126.171 91.9512C127.402 90.8442 129.221 90.6753 131.355 91.1074C135.492 91.9459 139.305 95.4079 142.385 99.2197C145.382 102.928 147.884 107.222 149.532 110.546C154.501 112.926 159.693 115.802 164.018 119.603C164.586 120.103 164.642 120.969 164.142 121.538C163.642 122.107 162.775 122.162 162.206 121.662C158.043 118.004 152.948 115.201 147.924 112.816L147.488 112.61L147.278 112.177C145.699 108.925 143.213 104.608 140.252 100.943C137.242 97.2184 133.95 94.4322 130.81 93.7959C128.983 93.4258 128.266 93.7553 128.005 93.9902C127.739 94.2294 127.497 94.772 127.593 95.9062C127.783 98.1574 129.195 101.284 130.534 103.545C130.906 104.173 130.721 104.982 130.113 105.386C129.505 105.79 128.688 105.646 128.253 105.06C127.287 103.757 125.389 101.819 122.925 100.38C120.468 98.9453 117.559 98.0668 114.488 98.6572C112.991 98.9452 112.466 99.3596 112.314 99.5644C112.243 99.659 112.145 99.8368 112.363 100.352C112.594 100.897 113.095 101.572 113.823 102.306C114.534 103.023 115.387 103.721 116.222 104.323L119.299 106.542L115.515 106.805C86.1042 108.844 62.5723 130.259 61.1934 157.198C61.2005 177.471 66.0747 189.301 74.7188 196.329C83.4518 203.429 96.3364 205.9 113.052 206.653C135.852 207.681 156.089 204.174 168.395 189.459C168.88 188.878 169.745 188.801 170.326 189.287C170.907 189.773 170.984 190.638 170.498 191.219C157.316 206.981 135.896 210.429 112.929 209.394C96.1652 208.638 82.4682 206.165 72.9883 198.458C63.4237 190.682 58.4536 177.848 58.4512 157.169L58.4512 157.134L58.4532 157.1C59.8407 129.557 82.9905 107.819 112.022 104.381C111.973 104.333 111.924 104.286 111.876 104.237C111.049 103.403 110.268 102.436 109.838 101.421C109.395 100.375 109.258 99.0736 110.115 97.9248C110.89 96.8862 112.26 96.2928 113.971 95.9639C117.893 95.2097 121.482 96.3616 124.308 98.0117C124.671 98.224 125.024 98.4456 125.365 98.6738C125.111 97.803 124.929 96.9439 124.86 96.1367C124.739 94.6974 124.945 93.0539 126.171 91.9512Z" fill="#121212"/>
<path d="M119.08 156.231C122.649 167.715 152.937 154.276 157.118 164.715C163.742 181.254 143.01 195.148 127.027 199.682C111.044 204.216 82.4098 201.906 79.2292 190.247C76.3436 179.669 112.51 171.939 105.787 159.428C98.7521 146.337 71.9348 164.633 65.6346 156.231C57.8278 145.819 78.3135 124.5 96.8891 119.231C112.872 114.697 141.251 115.454 145.27 127.94C148.62 138.349 116.183 146.909 119.08 156.231Z" fill="white"/>
<path d="M125.003 168.452C125.797 171.481 122.88 176.77 117.898 178.011C112.917 179.251 107.757 175.973 106.963 172.944C106.17 169.914 110.044 168.282 115.026 167.041C120.008 165.801 124.21 165.423 125.003 168.452Z" fill="#121212"/>
<path d="M127.425 181.478C127.953 180.935 128.821 180.921 129.364 181.448C129.908 181.976 129.921 182.844 129.394 183.387L129.392 183.388L129.391 183.39C129.391 183.391 129.389 183.392 129.389 183.392C129.387 183.394 129.385 183.397 129.382 183.399C129.377 183.405 129.369 183.413 129.359 183.422C129.341 183.44 129.316 183.466 129.284 183.497C129.219 183.56 129.127 183.649 129.011 183.757C128.777 183.972 128.441 184.267 128.024 184.597C127.198 185.25 126.015 186.069 124.637 186.659C122.989 187.365 121.498 187.703 120.411 187.865C119.868 187.946 119.423 187.983 119.106 188C118.948 188.008 118.821 188.011 118.731 188.012C118.686 188.013 118.649 188.013 118.622 188.013C118.609 188.013 118.597 188.013 118.589 188.013C118.584 188.013 118.58 188.012 118.577 188.012C118.575 188.012 118.574 188.013 118.573 188.013L118.57 188.012C117.813 187.994 117.213 187.365 117.231 186.608C117.25 185.851 117.879 185.252 118.636 185.271L118.632 185.27C118.632 185.27 118.636 185.27 118.64 185.27C118.651 185.27 118.67 185.27 118.697 185.27C118.752 185.269 118.842 185.267 118.961 185.261C119.2 185.248 119.558 185.218 120.008 185.152C120.909 185.017 122.166 184.734 123.558 184.138C124.634 183.676 125.607 183.013 126.323 182.446C126.677 182.166 126.959 181.917 127.15 181.741C127.246 181.653 127.318 181.583 127.365 181.537C127.388 181.514 127.406 181.498 127.416 181.488L127.425 181.478Z" fill="#121212"/>
<path d="M132.254 149.619C135.859 149.019 138.859 150.805 140.139 152.298C140.678 152.927 140.606 153.874 139.977 154.413C139.348 154.952 138.4 154.879 137.861 154.25C137.141 153.41 135.141 152.179 132.746 152.578C131.673 152.757 130.693 153.327 129.913 154.096C129.123 154.875 128.628 155.771 128.455 156.463C128.254 157.266 127.439 157.755 126.636 157.554C125.832 157.353 125.344 156.538 125.545 155.734C125.872 154.426 126.69 153.061 127.807 151.96C128.934 150.848 130.454 149.919 132.254 149.619Z" fill="#121212"/>
<path d="M90.8282 167.195C91.838 168.944 94.6063 169.237 97.0113 167.848C99.4163 166.46 100.547 163.916 99.5375 162.167C98.5276 160.418 95.7593 160.126 93.3543 161.514C90.9493 162.903 89.8183 165.446 90.8282 167.195Z" fill="#121212"/>
<path d="M273.449 125.65C296.72 121.419 321.269 119.604 340.698 130.371C358.304 140.128 368.636 152.845 372.819 166.672C376.999 180.488 374.985 195.237 368.234 208.972C361.799 222.064 361.856 239.215 364.532 257.059C367.206 274.883 372.432 293.071 376.107 308.234C376.722 310.768 376.485 312.975 375.458 314.713C376.523 315.595 377.57 316.552 378.157 317.335C378.612 317.941 378.49 318.8 377.884 319.255C377.278 319.709 376.418 319.586 375.964 318.98C375.548 318.426 374.655 317.607 373.612 316.747C372.114 317.86 370.171 318.439 368.055 318.585C368.138 318.939 368.214 319.277 368.272 319.59C368.347 319.985 368.405 320.374 368.426 320.715C368.436 320.885 368.439 321.072 368.422 321.258C368.407 321.424 368.368 321.695 368.23 321.971C367.892 322.648 367.068 322.923 366.391 322.584C365.785 322.281 365.502 321.592 365.69 320.965C365.69 320.943 365.69 320.915 365.688 320.881C365.677 320.703 365.642 320.442 365.577 320.097C365.493 319.647 365.367 319.112 365.219 318.535C364.339 318.452 363.433 318.31 362.514 318.104C362.567 318.32 362.615 318.505 362.659 318.653C362.711 318.828 362.741 318.903 362.745 318.915C363.084 319.592 362.809 320.416 362.132 320.755C361.454 321.094 360.631 320.819 360.292 320.142C360.103 319.764 359.939 319.138 359.807 318.581C359.71 318.176 359.611 317.716 359.513 317.236C354.295 315.388 348.839 311.69 344.863 306.158C336.484 294.5 330.326 276.427 324.492 257.984C318.83 240.085 313.46 221.796 306.662 208.06C295.018 217.109 278.994 219.307 263.82 218.438C249.101 217.596 234.937 213.856 225.803 210.396C225.996 213.006 226.646 216.923 227.627 221.709C228.885 227.844 230.647 235.234 232.538 242.756C236.347 257.9 240.579 273.198 242.373 280.254C245.06 290.823 245.737 299.277 244.979 305.754C244.285 311.676 242.372 316.053 239.585 318.818C240.983 321.913 242.18 325.767 241.748 330.542C241.68 331.296 241.013 331.852 240.259 331.784C239.505 331.716 238.949 331.049 239.017 330.295C239.364 326.452 238.51 323.279 237.36 320.573C236.196 321.285 234.944 321.765 233.637 322.019C234.005 324.21 234.435 326.678 234.877 329.273C235.004 330.02 234.502 330.728 233.755 330.855C233.008 330.982 232.301 330.48 232.174 329.733C231.715 327.039 231.262 324.443 230.881 322.165C229.683 322.033 228.499 321.646 227.343 321.063C227.376 321.886 227.496 322.748 227.739 323.638C227.939 324.368 227.508 325.121 226.778 325.321C226.048 325.521 225.293 325.091 225.094 324.36C224.599 322.551 224.52 320.851 224.641 319.337C220.338 316.03 216.055 310.162 212.172 303.564C208.065 296.587 204.303 288.618 201.346 281.56C195.733 268.163 176.507 220.361 173.741 213.447C171.457 207.736 166.262 205.378 160.107 205.051C153.933 204.722 147.091 206.483 142.212 208.701C141.523 209.014 140.71 208.71 140.397 208.021C140.083 207.331 140.388 206.518 141.077 206.204C146.254 203.851 153.538 201.955 160.254 202.313C166.99 202.671 173.452 205.341 176.287 212.429C179.055 219.349 198.274 267.128 203.876 280.5C206.803 287.486 210.511 295.336 214.536 302.174C218.02 308.092 221.669 313.123 225.173 316.221C225.397 315.336 225.64 314.585 225.815 314.016C226.038 313.292 226.805 312.886 227.529 313.108C228.253 313.331 228.659 314.099 228.437 314.822C228.163 315.712 227.81 316.789 227.576 318.049C228.58 318.678 229.529 319.092 230.419 319.305C230.09 317.177 229.868 315.439 229.868 314.419C229.868 313.662 230.483 313.048 231.24 313.048C231.997 313.048 232.611 313.662 232.611 314.419C232.611 315.281 232.831 316.982 233.196 319.311C234.246 319.097 235.246 318.689 236.178 318.076C235.985 317.7 235.791 317.333 235.601 316.974C235.247 316.307 234.893 315.651 234.584 315.032C234.245 314.355 234.52 313.531 235.197 313.192C235.875 312.854 236.698 313.128 237.037 313.806C237.327 314.385 237.659 315 238.023 315.688C238.11 315.85 238.196 316.017 238.285 316.187C240.188 313.941 241.669 310.438 242.255 305.435C242.963 299.393 242.349 291.292 239.715 280.93C237.988 274.137 233.644 258.395 229.879 243.425C227.984 235.889 226.209 228.454 224.939 222.26C223.683 216.132 222.881 211.041 223.014 208.301L223.02 208.165L223.053 208.034C223.96 204.406 224.64 201.541 225.27 199.356C225.892 197.197 226.515 195.503 227.388 194.304C227.833 193.691 228.691 193.556 229.304 194.001C229.916 194.446 230.052 195.304 229.606 195.917C229.043 196.692 228.524 197.969 227.905 200.116C227.36 202.008 226.776 204.421 226.003 207.534C234.861 210.985 249.145 214.851 263.978 215.7C279.084 216.565 294.49 214.286 305.388 205.572C302.039 199.262 297.435 192.334 290.555 184.594C290.052 184.028 290.102 183.16 290.668 182.657C291.234 182.154 292.101 182.205 292.605 182.771C299.994 191.084 304.845 198.517 308.34 205.295C315.638 219.449 321.28 238.736 327.107 257.157C332.972 275.697 339.013 293.321 347.09 304.558C350.334 309.071 354.662 312.244 358.917 314.062C358.872 313.804 358.83 313.566 358.795 313.354C358.67 312.607 359.175 311.901 359.922 311.776C360.669 311.652 361.375 312.156 361.5 312.903C361.598 313.49 361.74 314.287 361.896 315.119C362.754 315.362 363.593 315.546 364.403 315.672C364.213 315.055 364.029 314.485 363.874 314.02C363.635 313.301 364.024 312.525 364.742 312.285C365.461 312.046 366.237 312.434 366.477 313.152C366.719 313.881 367.028 314.855 367.328 315.874C368.951 315.831 370.293 315.502 371.312 314.959C370.94 314.685 370.606 314.444 370.332 314.253C369.712 313.819 369.56 312.963 369.994 312.343C370.428 311.722 371.284 311.572 371.904 312.006C372.275 312.265 372.746 312.606 373.265 312.993C373.732 312.001 373.875 310.666 373.442 308.881C369.804 293.874 364.517 275.452 361.819 257.466C359.125 239.499 358.952 221.639 365.773 207.762C372.279 194.527 374.136 180.497 370.194 167.467C366.256 154.448 356.474 142.251 339.369 132.771C320.858 122.511 297.181 124.123 273.94 128.349C262.326 130.46 250.996 133.186 240.48 135.356C230.032 137.513 220.406 139.118 212.458 138.885C201.94 138.575 193.636 137.014 186.943 134.902C186.221 134.674 185.821 133.904 186.049 133.182C186.277 132.46 187.047 132.059 187.769 132.287C194.203 134.317 202.255 135.84 212.538 136.143C220.132 136.366 229.476 134.828 239.927 132.671C250.31 130.528 261.808 127.767 273.449 125.65Z" fill="#121212"/>
<path d="M155.115 7.41309C155.522 6.7742 156.37 6.5866 157.009 6.99317C157.648 7.39979 157.836 8.24687 157.43 8.88575C155.891 11.3035 154.554 14.1924 153.592 16.457C153.113 17.5846 152.733 18.5419 152.467 19.2041C152.338 19.5248 152.225 19.8017 152.144 19.9844C152.116 20.0456 152.047 20.2033 151.956 20.3398C151.931 20.3768 151.867 20.4706 151.766 20.5703C151.715 20.6205 151.617 20.7094 151.476 20.79C151.339 20.8676 151.068 20.9904 150.708 20.9678C149.8 20.9105 149.519 20.1286 149.479 19.9971C149.416 19.794 149.416 19.6231 149.416 19.5772C149.416 19.2766 149.514 18.9994 149.678 18.7734C149.734 18.642 149.815 18.4473 149.922 18.1807C150.184 17.5288 150.576 16.5427 151.068 15.3848C152.049 13.0782 153.454 10.0236 155.115 7.41309ZM151.803 0.895514C152.275 0.303349 153.138 0.205552 153.731 0.677741C154.322 1.1499 154.419 2.01239 153.947 2.6045C149.809 7.79469 148.481 14.3286 147.561 18.9326C147.412 19.6752 146.689 20.1563 145.946 20.0078C145.204 19.8591 144.723 19.1371 144.871 18.3945C145.779 13.8563 147.194 6.67609 151.803 0.895514ZM143.591 3.02149C143.898 2.3296 144.708 2.01801 145.4 2.3252C146.093 2.63271 146.405 3.44361 146.098 4.13575C145.216 6.12136 144.185 9.01942 143.505 11.7422C143.165 13.1034 142.921 14.388 142.82 15.4727C142.716 16.6027 142.786 17.343 142.929 17.7246C143.195 18.4337 142.835 19.2243 142.126 19.4902C141.417 19.7562 140.626 19.3967 140.36 18.6875C139.991 17.7024 139.975 16.4455 140.089 15.2197C140.207 13.9483 140.484 12.5178 140.844 11.0781C141.563 8.1991 142.645 5.14991 143.591 3.02149Z" fill="#121212"/>
<path d="M105.168 27.752C105.857 27.2924 106.788 27.4787 107.248 28.168C107.708 28.8573 107.521 29.7885 106.832 30.2481C100.259 34.6303 94.7439 40.5025 90.7959 45.4375C88.8268 47.8989 87.2586 50.1131 86.1543 51.7695C85.6022 52.5977 85.1672 53.2847 84.8574 53.791C84.7025 54.0442 84.5797 54.2507 84.4902 54.4053C84.4455 54.4825 84.4101 54.5452 84.3838 54.5928C84.3707 54.6164 84.3601 54.6353 84.3525 54.6494C84.3488 54.6563 84.3467 54.6622 84.3447 54.666C84.3431 54.6692 84.3419 54.6706 84.3418 54.6709C83.9713 55.4119 83.07 55.7123 82.3291 55.3418C81.5881 54.9713 81.2877 54.0701 81.6582 53.3291C81.9708 52.7038 84.4138 48.6128 88.4541 43.5625C92.506 38.4976 98.2416 32.3695 105.168 27.752Z" fill="#121212"/>
<path d="M104.939 40.9395C105.525 40.3537 106.475 40.3537 107.061 40.9395C107.646 41.5252 107.646 42.4748 107.061 43.0606C105.381 44.7404 103.929 46.5526 102.894 47.9541C102.377 48.6524 101.968 49.2432 101.689 49.6572C101.55 49.8639 101.445 50.0265 101.374 50.1358C101.339 50.1903 101.312 50.232 101.295 50.2588C101.286 50.2721 101.28 50.282 101.276 50.2881C101.274 50.2911 101.273 50.2938 101.272 50.2949L101.185 50.4209C100.719 51.0217 99.8638 51.1839 99.2051 50.7725C98.5027 50.3335 98.2887 49.4076 98.7276 48.7051H98.7285V48.7041L98.7295 48.7031C98.73 48.7023 98.7307 48.7014 98.7315 48.7002C98.7332 48.6975 98.7354 48.6931 98.7383 48.6885C98.7441 48.6792 98.7522 48.6661 98.7627 48.6494C98.7839 48.6161 98.8148 48.5682 98.8545 48.5068C98.9342 48.3836 99.0514 48.2061 99.2012 47.9834C99.5007 47.5381 99.9352 46.91 100.481 46.1709C101.571 44.6974 103.119 42.7596 104.939 40.9395Z" fill="#121212"/>
</g>
<defs>
<clipPath id="clip0_250_263">
<rect width="393" height="332" fill="white"/>
</clipPath>
</defs>
</svg>
