<svg width="180" height="171" viewBox="0 0 180 171" fill="none" xmlns="http://www.w3.org/2000/svg">
<g clip-path="url(#clip0_974_2865)">
<path d="M102.424 17.4294C98.4156 10.741 93.3121 -2.05277 104.966 0.280564C115.676 2.4251 125.874 18.4535 130.614 28.0955C181.623 57.3377 180.134 70.4911 178.511 102.349C176.277 146.169 128.951 170.336 79.6865 168.141C30.4222 165.945 -2.12516 138.218 0.108159 94.3983C2.16661 54.0142 37.7857 22.1875 81.9198 19.1638C76.7492 15.4797 70.7251 9.14131 80.1679 7.34673C90.4582 5.39114 99.293 13.2538 102.424 17.4294Z" fill="#C9C9C9"/>
<path d="M122.978 14.3877C125.009 13.4542 127.424 13.967 130.002 15.3798C135.004 18.1209 138.535 24.115 140.98 30.2668C143.359 36.2521 144.865 42.7932 145.658 47.7417C151.114 52.8042 156.66 58.5958 160.715 65.2331C161.248 66.1062 160.973 67.2466 160.1 67.78C159.227 68.3131 158.086 68.0377 157.553 67.1648C153.65 60.7764 148.2 55.1166 142.674 50.0257L142.195 49.5852L142.098 48.9417C141.364 44.1145 139.888 37.5504 137.537 31.6359C135.147 25.6247 132.019 20.7103 128.222 18.6295C126.014 17.4196 124.957 17.5566 124.525 17.7548C124.086 17.9565 123.556 18.5587 123.225 20.0598C122.568 23.0391 123.135 27.637 123.956 31.0904C124.184 32.0497 123.621 33.0202 122.675 33.2974C121.728 33.5742 120.731 33.061 120.406 32.1304C119.683 30.0627 118.01 26.8021 115.408 23.9576C112.814 21.122 109.413 18.8211 105.214 18.3506C103.167 18.1213 102.324 18.4457 102.045 18.6485C101.916 18.742 101.719 18.9313 101.794 19.6826C101.873 20.4784 102.249 21.5488 102.894 22.7876C103.524 23.9978 104.343 25.2427 105.179 26.3538L108.26 30.4493L103.272 29.2698C64.5089 20.0995 25.5599 38.2786 12.9777 72.4674C4.85707 98.6143 6.40066 115.827 14.7342 128.358C23.1539 141.019 38.7872 149.374 60.0506 157.053C89.0549 167.526 116.57 171.122 138.348 157.082C139.208 156.527 140.354 156.775 140.909 157.635C141.463 158.495 141.215 159.641 140.356 160.195C117.027 175.235 88.0089 171.088 58.7927 160.538C37.468 152.837 20.7889 144.154 11.6493 130.411C2.42789 116.544 1.16253 97.9984 9.45257 71.3284L9.46628 71.2844L9.48251 71.241C22.3185 36.2765 60.9033 17.5288 99.7359 24.7413C99.6926 24.6606 99.6488 24.5803 99.6067 24.4994C98.8739 23.0918 98.2547 21.5306 98.1074 20.0489C97.9557 18.5226 98.301 16.7885 99.8675 15.6505C101.283 14.6222 103.289 14.4068 105.627 14.6688C110.99 15.2697 115.158 18.1957 118.142 21.4575C118.526 21.8772 118.892 22.3046 119.241 22.7358C119.262 21.5108 119.373 20.3294 119.608 19.261C120.029 17.3558 120.954 15.3179 122.978 14.3877Z" fill="#121212"/>
<path d="M88.0278 94.4557C88.0243 110.701 132.484 105.515 133.69 120.657C135.601 144.649 103.285 154.255 80.8497 153.692C58.4143 153.13 22.4042 138.664 22.9782 122.349C23.4989 107.547 73.2516 112.082 69.5977 93.2472C65.7746 73.5391 23.8433 86.3827 19.0868 73.0174C13.1929 56.4559 48.1695 37.1729 74.2444 37.827C96.6798 38.3898 132.983 50.7495 133.158 68.4682C133.304 83.2385 88.0306 81.2685 88.0278 94.4557Z" fill="#EFEFEF"/>
<path d="M90.7645 112.594C90.5727 116.82 84.6889 122.473 77.7654 122.074C70.842 121.676 65.5007 115.377 65.6925 111.152C65.8843 106.926 71.5366 106.374 78.4601 106.772C85.3835 107.171 90.9563 108.369 90.7645 112.594Z" fill="#121212"/>
<path d="M88.6685 130.369C89.5666 129.88 90.6917 130.211 91.1813 131.109C91.6706 132.007 91.339 133.132 90.4412 133.622L90.4394 133.622L90.437 133.624C90.4359 133.625 90.4342 133.626 90.4328 133.626C90.4298 133.628 90.4264 133.63 90.4221 133.633C90.4126 133.638 90.3989 133.644 90.3833 133.652C90.3523 133.669 90.3097 133.692 90.2557 133.719C90.1471 133.775 89.993 133.852 89.7991 133.944C89.4114 134.128 88.8593 134.375 88.1894 134.633C86.8622 135.144 85.0069 135.725 82.9936 135.934C80.5838 136.184 78.5247 136.021 77.059 135.794C76.3252 135.68 75.736 135.55 75.3212 135.445C75.1137 135.393 74.9493 135.345 74.8319 135.31C74.7735 135.293 74.7266 135.279 74.6917 135.268C74.6745 135.262 74.6596 135.257 74.6483 135.254C74.6427 135.252 74.6372 135.25 74.6331 135.249C74.6312 135.248 74.6294 135.248 74.6278 135.247L74.6243 135.246C73.6554 134.918 73.1337 133.866 73.461 132.897C73.7886 131.928 74.8405 131.408 75.8097 131.736L75.8038 131.733C75.8051 131.733 75.809 131.735 75.815 131.737C75.8283 131.741 75.853 131.749 75.8883 131.759C75.96 131.781 76.0758 131.814 76.2321 131.854C76.5453 131.933 77.0199 132.038 77.6267 132.132C78.843 132.321 80.5778 132.46 82.6123 132.249C84.1864 132.086 85.7068 131.619 86.8581 131.176C87.4269 130.956 87.8908 130.749 88.2083 130.598C88.3667 130.523 88.4882 130.461 88.5665 130.421C88.6057 130.401 88.6348 130.387 88.6518 130.378L88.6685 130.369Z" fill="#121212"/>
<path d="M107.676 91.2094C112.567 91.8809 115.72 95.3878 116.772 97.8275C117.215 98.8551 116.742 100.048 115.714 100.491C114.687 100.934 113.494 100.46 113.051 99.4321C112.46 98.0598 110.373 95.6696 107.124 95.2237C105.668 95.024 104.174 95.366 102.861 96.0448C101.529 96.7327 100.531 97.6905 100.03 98.5135C99.4486 99.4692 98.2019 99.7722 97.2459 99.1908C96.2903 98.6091 95.9872 97.3624 96.5686 96.4064C97.5152 94.8505 99.1176 93.4177 101 92.4449C102.9 91.4631 105.234 90.8743 107.676 91.2094Z" fill="#121212"/>
<path d="M47.1887 97.2644C47.7898 99.9257 51.2434 101.413 54.9026 100.587C58.5619 99.7604 61.0411 96.933 60.44 94.2718C59.839 91.6105 56.3854 90.1231 52.7262 90.9495C49.0669 91.7759 46.5877 94.6032 47.1887 97.2644Z" fill="#121212"/>
</g>
<defs>
<clipPath id="clip0_974_2865">
<rect width="179.07" height="170.015" fill="white"/>
</clipPath>
</defs>
</svg>
