<svg width="393" height="332" viewBox="0 0 393 332" fill="none" xmlns="http://www.w3.org/2000/svg">
<g clip-path="url(#clip0_609_2447)">
<path d="M29 190.5L-2.5 185.5L-13 232.5L98 227H162H230.5L271.5 232.5L315.5 244L377.5 252.5L405 254.5L418.5 246.5L412 200H372C339.333 203.167 273.5 209.5 271.5 209.5C269.5 209.5 155 203.167 98 200L29 190.5Z" fill="white"/>
<path d="M339.848 293.413C332.444 263.243 330.13 257.863 330.13 246.133L291.75 238.331C306.388 266.373 294.033 267.317 310.693 290.213C314.732 295.764 320.351 299.384 325.6 301.047C327.574 301.673 329.495 302.022 331.261 302.093C334.412 302.22 337.065 301.461 338.631 299.81C340.002 298.364 340.54 296.233 339.848 293.413Z" fill="#BDBDBD"/>
<path d="M332.77 294.205C337.484 294.855 339.603 293.061 340.275 290.371L338.255 279.12C339.694 282.252 341.114 287.01 340.275 290.371L341.455 296.948L338.255 301.976H329.113L317.685 296.948L298.145 260.549L291.182 238.348L304.598 240.729C312.98 264.732 324.225 293.026 332.77 294.205Z" fill="#FAFAFA"/>
<path d="M334.093 193.632C320.836 220.602 334.55 263.653 341.864 293.823C344.929 306.466 323.579 305.251 313.065 290.623C304.283 278.404 297.926 258.892 291.709 239.09M338.207 298.394C339.73 299.461 343.052 301.96 344.149 303.422M332.264 298.851C333.026 301.137 334.458 305.891 334.093 306.622M327.236 298.394C327.541 300.222 328.242 304.062 328.607 304.794" stroke="black" stroke-width="2.74271" stroke-linecap="round"/>
<path d="M144.296 56.6178C140.669 87.8906 150.037 98.9204 175.016 131.151V134.173C175.016 134.173 141.873 134.173 135.734 125.612C129.596 117.05 117.404 89.1507 114.584 80.2873C111.058 69.208 112.569 44.5311 123.145 27.4086C133.72 10.2861 152.354 9.78261 158.9 18.3439C164.138 25.1929 146.139 40.7262 144.296 56.6178Z" fill="#BDBDBD"/>
<path d="M144.295 56.6173C140.667 87.8902 150.036 98.92 175.015 131.151V134.172C175.015 134.172 159.812 129.777 153.674 121.216C147.536 112.654 138.553 99.045 135.733 90.1816C132.208 79.1023 130.475 54.8557 141.051 37.7332C151.626 20.6107 154.444 19.5759 156.73 21.4053C160.72 24.5988 146.138 40.7258 144.295 56.6173Z" fill="#FAFAFA"/>
<path d="M144.296 56.6178C140.669 87.8906 150.037 98.9204 175.016 131.151V134.173C175.016 134.173 141.873 134.173 135.734 125.612C129.596 117.05 117.404 89.1507 114.584 80.2873C111.058 69.208 112.569 44.5311 123.145 27.4086C133.72 10.2861 152.354 9.78261 158.9 18.3439C164.138 25.1929 146.139 40.7262 144.296 56.6178Z" stroke="black" stroke-width="2.74271" stroke-linecap="round"/>
<path d="M165.416 197.853C192.234 199.224 249.983 201.144 266.439 197.853C287.01 193.739 404.032 203.338 421.86 199.681" stroke="black" stroke-width="2.74271" stroke-linecap="round"/>
<path d="M-27.0312 233.966C-24.7662 233.554 0.594517 231.658 30.5 229.824C66.984 227.586 110.232 225.441 126.561 226.195C156.273 227.566 233.069 220.252 276.495 233.966C311.236 244.936 365.024 251.641 387.575 253.622" stroke="black" stroke-width="2.74271" stroke-linecap="round"/>
<path d="M21.4238 198.311C28.9899 198.92 45.194 202.425 55.2506 202.425" stroke="black" stroke-width="2.74271" stroke-linecap="round"/>
<path d="M139.359 209.281C147.334 209.823 164.414 212.938 175.015 212.938" stroke="black" stroke-width="2.74271" stroke-linecap="round"/>
<path d="M359.691 223.91C367.666 224.452 384.746 227.567 395.347 227.567" stroke="black" stroke-width="2.74271" stroke-linecap="round"/>
<path d="M358.777 232.138C363.249 232.869 365.634 233.235 372.491 233.966" stroke="black" stroke-width="2.74271" stroke-linecap="round"/>
<path d="M225.299 218.424C233.274 218.966 250.354 222.081 260.954 222.081" stroke="black" stroke-width="2.74271" stroke-linecap="round"/>
<path d="M78.3086 215.119C74.3572 214.963 65.8209 215.41 60.5961 214.916" stroke="black" stroke-width="2.74271" stroke-linecap="round"/>
<path d="M35.5938 221.623C38.3365 221.623 41.5363 220.709 47.9359 220.709" stroke="black" stroke-width="2.74271" stroke-linecap="round"/>
<path d="M143.931 219.328C146.643 219.736 149.943 219.307 156.271 220.258" stroke="black" stroke-width="2.74271" stroke-linecap="round"/>
<path d="M301.181 218.414C303.893 218.822 307.193 218.393 313.521 219.344" stroke="black" stroke-width="2.74271" stroke-linecap="round"/>
<path d="M218.949 135.267C193.774 134.535 169.172 125.366 161.305 120.186L142.561 208.368C152.279 203.034 170.234 200.139 175.417 212.939C176.661 216.01 178.652 221.666 180.508 226.652C182.832 232.895 199.992 274.938 203.148 282.379C209.028 296.241 218.036 314.117 226.575 320.6C228.596 322.135 230.591 323.031 232.512 323.085C232.764 323.092 233.015 323.085 233.264 323.062C234.907 322.915 236.468 322.391 237.883 321.473C244.33 317.294 247.749 304.951 242.057 282.836C238.493 268.988 224.898 218.512 225.397 208.368C243.347 215.576 286.205 225.179 309.159 205.924C323.797 233.966 327.67 282.139 344.33 305.035C348.369 310.586 353.988 314.205 359.237 315.869C361.211 316.495 363.132 316.844 364.897 316.915C368.048 317.042 370.702 316.283 372.268 314.632C373.639 313.186 374.177 311.055 373.485 308.235C366.08 278.065 356.362 235.338 369.782 208.368C383.203 181.398 382.286 143.187 347.146 123.95C308.736 102.922 250.417 136.181 218.949 135.267Z" fill="#BDBDBD"/>
<path d="M372.129 121.427C366.05 114.181 361.955 126.619 360.668 133.743C361.072 129.004 359.961 118.715 352.288 115.477C345.248 112.506 345.444 120.291 346.621 125.59C362.099 140.253 370.316 151.455 372.49 155.224C375.007 145.435 377.715 128.087 372.129 121.427Z" fill="#BDBDBD"/>
<path d="M294.781 188.254C278.325 206.539 247.241 202.882 227.584 197.853L225.299 208.824C286.096 225.738 306.666 208.824 307.123 206.539C307.489 204.71 299.047 193.587 294.781 188.254Z" fill="#FAFAFA"/>
<path d="M-16.9746 181.397C2.98623 185.969 51.9589 195.568 88.1626 197.397" stroke="black" stroke-width="2.74271" stroke-linecap="round"/>
<path d="M293.41 184.598C302.4 195.264 319.312 203.832 326.78 224.367C332.265 239.452 352.019 306.54 365.275 308.368C369.99 309.018 372.108 307.224 372.78 304.534L370.761 293.283C372.2 296.415 373.62 301.173 372.78 304.534L373.961 311.111L370.761 316.139H361.618L350.19 311.111L330.651 274.712L316.723 230.31L308.495 206.539L293.41 184.598Z" fill="#FAFAFA"/>
<path d="M191.472 178.197C192.569 167.958 192.996 161.741 189.643 156.255C186.194 150.611 182.787 169.969 182.787 169.969L171.816 179.568L161.302 196.025L154.902 203.796H164.502L173.187 209.281L182.787 234.423L215.23 307.542L224.829 319.428L229.4 321.256L236.257 320.342C237.324 318.97 239.914 315.771 241.743 313.942C243.571 312.114 243.114 301.6 242.657 296.572C242.657 307.085 233.108 308.208 225.756 302.99C211.585 292.933 191.472 222.995 188.729 208.367C186.586 196.939 190.1 190.996 191.472 178.197Z" fill="#FAFAFA"/>
<path d="M128.333 96.9328C125.366 91.9815 121.588 82.5107 130.215 84.238C138.143 85.8255 145.692 97.6908 149.201 104.829C186.962 126.476 185.86 136.213 184.658 159.796C183.005 192.235 147.97 210.125 111.501 208.5C75.0324 206.875 50.9385 186.349 52.5917 153.911C54.1155 124.015 80.4833 100.455 113.155 98.2167C109.327 95.4894 104.867 90.7973 111.858 89.4689C119.475 88.0212 126.015 93.8417 128.333 96.9328Z" fill="#BDBDBD"/>
<path d="M129.367 104.241L128.266 105.058C128.7 105.644 129.518 105.787 130.126 105.383C130.734 104.979 130.919 104.17 130.547 103.542L129.367 104.241ZM131.095 92.4517L131.367 91.1076L131.367 91.1076L131.095 92.4517ZM148.528 111.574L147.295 112.173L147.505 112.606L147.94 112.813L148.528 111.574ZM113 208L112.938 209.37V209.37L113 208ZM59.8222 157.156L58.4526 157.086L58.4508 157.121L58.4508 157.156L59.8222 157.156ZM115.43 105.433L115.525 106.802L119.31 106.539L116.232 104.321L115.43 105.433ZM114.24 97.3095L113.981 95.9628L113.981 95.9628L114.24 97.3095ZM170.518 191.199C171.004 190.618 170.927 189.753 170.347 189.268C169.766 188.782 168.901 188.858 168.415 189.439L169.467 190.319L170.518 191.199ZM162.226 121.657C162.795 122.157 163.661 122.101 164.161 121.532C164.661 120.963 164.605 120.096 164.036 119.597L163.131 120.627L162.226 121.657ZM129.367 104.241L130.547 103.542C129.207 101.281 127.796 98.1555 127.605 95.905C127.51 94.7711 127.751 94.2293 128.017 93.9902C128.278 93.7552 128.996 93.4257 130.823 93.7957L131.095 92.4517L131.367 91.1076C129.234 90.6756 127.414 90.8439 126.183 91.9506C124.957 93.0533 124.751 94.6969 124.873 96.1361C125.117 99.0318 126.802 102.603 128.187 104.94L129.367 104.241ZM131.095 92.4517L130.823 93.7957C133.964 94.4319 137.256 97.2178 140.267 100.942C143.229 104.606 145.715 108.922 147.295 112.173L148.528 111.574L149.762 110.974C148.12 107.597 145.529 103.089 142.4 99.2178C139.319 95.4066 135.506 91.9458 131.367 91.1076L131.095 92.4517ZM113 208L113.062 206.63C96.3431 205.876 83.4555 203.407 74.7207 196.308C66.0709 189.278 61.1959 177.442 61.1936 157.155L59.8222 157.156L58.4508 157.156C58.4533 177.83 63.4245 190.662 72.9909 198.436C82.4725 206.142 96.1714 208.614 112.938 209.37L113 208ZM59.8222 157.156L61.1918 157.225C62.5501 130.273 86.0942 108.841 115.525 106.802L115.43 105.433L115.336 104.065C84.7698 106.183 59.8926 128.512 58.4526 157.086L59.8222 157.156ZM115.43 105.433L116.232 104.321C115.397 103.719 114.544 103.02 113.833 102.303C113.104 101.569 112.604 100.895 112.373 100.35C112.155 99.835 112.252 99.6577 112.323 99.5633C112.476 99.3585 113 98.9442 114.498 98.6562L114.24 97.3095L113.981 95.9628C112.27 96.2917 110.899 96.8847 110.125 97.9231C109.267 99.0719 109.405 100.374 109.847 101.419C110.277 102.434 111.058 103.401 111.886 104.235C112.73 105.086 113.706 105.881 114.629 106.546L115.43 105.433ZM114.24 97.3095L114.498 98.6562C117.57 98.0658 120.48 98.9446 122.937 100.379C125.402 101.818 127.3 103.755 128.266 105.058L129.367 104.241L130.469 103.424C129.306 101.856 127.138 99.6558 124.32 98.0103C121.493 96.3605 117.904 95.2087 113.981 95.9628L114.24 97.3095ZM169.467 190.319L168.415 189.439C156.107 204.152 135.867 207.658 113.062 206.63L113 208L112.938 209.37C135.91 210.405 157.334 206.959 170.518 191.199L169.467 190.319ZM148.528 111.574L147.94 112.813C152.966 115.197 158.062 117.999 162.226 121.657L163.131 120.627L164.036 119.597C159.585 115.686 154.215 112.754 149.116 110.335L148.528 111.574Z" fill="black"/>
<path d="M119.08 156.231C122.649 167.715 152.936 154.276 157.118 164.715C163.742 181.254 143.01 195.148 127.027 199.682C111.044 204.216 82.4097 201.906 79.2291 190.247C76.3435 179.669 112.51 171.939 105.787 159.428C98.752 146.337 71.9347 164.633 65.6346 156.231C57.8278 145.819 78.3134 124.5 96.889 119.231C112.872 114.697 141.251 115.454 145.269 127.94C148.619 138.349 116.183 146.909 119.08 156.231Z" fill="#FAFAFA"/>
<path d="M125.003 168.452C125.797 171.481 122.88 176.77 117.898 178.011C112.917 179.251 107.757 175.973 106.963 172.944C106.17 169.914 110.044 168.282 115.026 167.041C120.007 165.801 124.21 165.423 125.003 168.452Z" fill="black"/>
<path d="M118.603 186.641C118.603 186.641 121.057 186.701 124.098 185.399C126.552 184.347 128.409 182.433 128.409 182.433" stroke="black" stroke-width="2.74271" stroke-linecap="round"/>
<path d="M139 153.274C138 152.107 135.5 150.599 132.5 151.098C129.628 151.577 127.5 154.099 127 156.099" stroke="black" stroke-width="3" stroke-linecap="round"/>
<ellipse cx="5.0283" cy="3.65695" rx="5.0283" ry="3.65695" transform="matrix(-0.866025 0.5 0.5 0.866025 97.709 159)" fill="black"/>
<path d="M291.579 183.683C298.893 191.911 303.68 199.249 307.121 205.923M228.497 195.111C227.061 197.085 226.211 201.053 224.383 208.367C223.89 218.511 237.524 266.745 241.044 280.592C247.901 307.562 241.373 319.999 232.359 320.819C222.302 321.733 209.973 298.603 202.611 281.03C197.004 267.646 177.781 219.855 175.014 212.938C169.894 200.139 151.701 202.882 141.645 207.453M224.383 208.367C242.114 215.575 284.448 225.179 307.121 205.923M307.121 205.923C321.581 233.966 329.52 282.462 345.976 305.358C356.49 319.986 377.84 321.201 374.775 308.558C367.461 278.388 353.748 235.337 367.004 208.367C380.26 181.397 374.745 150.808 340.034 131.571C302.093 110.544 243.582 138.428 212.498 137.514C202.097 137.208 193.92 135.665 187.356 133.595M227.126 314.419C226.516 316.4 225.297 319.904 226.416 323.999M231.24 314.419C231.24 316.552 232.359 322.647 233.525 329.504M235.811 314.419C237.639 318.076 241.044 323.104 240.382 330.418M371.118 313.129C372.642 314.196 375.963 316.695 377.061 318.157M365.175 313.586C365.937 315.872 367.37 320.626 367.004 321.357M360.147 313.129C360.452 314.958 361.153 318.797 361.519 319.529" stroke="black" stroke-width="2.74271" stroke-linecap="round"/>
<path d="M146.216 18.6634C147.13 14.0922 148.501 7.23542 152.875 1.75M150.787 19.5776C150.787 20.0347 153.073 13.178 156.273 8.14966M141.644 18.2063C140.619 15.4726 143.016 7.69254 144.844 3.57847" stroke="black" stroke-width="2.74271" stroke-linecap="round"/>
<path d="M83 54C83.5 53 92.5 38 106 29" stroke="black" stroke-width="3" stroke-linecap="round"/>
<path d="M100 49.5C100 49.5 102.5 45.5 106 42" stroke="black" stroke-width="3" stroke-linecap="round"/>
</g>
<defs>
<clipPath id="clip0_609_2447">
<rect width="393" height="332" fill="white"/>
</clipPath>
</defs>
</svg>
