<svg width="24" height="24" viewBox="0 0 20 20" fill="none" xmlns="http://www.w3.org/2000/svg">
<path d="M 6.1000000000000005 19.212500000000002 C 4.88333330154419 18.687500000000004 3.825 17.974999999999998 2.9250000000000003 17.075 C 2.0250000000000004 16.175 1.3125 15.116666698455811 0.7875000000000001 13.9 C 0.26250000000000007 12.68333330154419 0 11.383333301544189 0 10 C 0 8.616666698455811 0.26250000000000007 7.316666698455811 0.7875000000000001 6.1000000000000005 C 1.3125 4.88333330154419 2.0250000000000004 3.825 2.9250000000000003 2.9250000000000003 C 3.825 2.0250000000000004 4.88333330154419 1.3125 6.1000000000000005 0.7875000000000001 C 7.316666698455811 0.26250000000000007 8.616666698455811 0 10 0 C 11.383333301544189 0 12.68333330154419 0.26250000000000007 13.9 0.7875000000000001 C 15.116666698455811 1.3125 16.175 2.0250000000000004 17.075 2.9250000000000003 C 17.974999999999998 3.825 18.687500000000004 4.88333330154419 19.212500000000002 6.1000000000000005 C 19.7375 7.316666698455811 20 8.616666698455811 20 10 C 20 11.383333301544189 19.7375 12.68333330154419 19.212500000000002 13.9 C 18.687500000000004 15.116666698455811 17.974999999999998 16.175 17.075 17.075 C 16.175 17.974999999999998 15.116666698455811 18.687500000000004 13.9 19.212500000000002 C 12.68333330154419 19.7375 11.383333301544189 20 10 20 C 8.616666698455811 20 7.316666698455811 19.7375 6.1000000000000005 19.212500000000002 Z M 10 18 C 10.9 18 11.766666698455811 17.854166674613953 12.600000000000001 17.5625 C 13.433333301544192 17.270833325386047 14.200000000000001 16.85 14.9 16.3 L 3.7 5.1000000000000005 C 3.1500000000000004 5.800000000000001 2.7291666746139525 6.566666698455811 2.4375 7.4 C 2.1458333253860475 8.23333330154419 2 9.1 2 10 C 2 12.233333396911622 2.7750000000000004 14.125 4.325 15.675 C 5.875 17.225 7.766666603088378 18 10 18 Z M 16.3 14.9 C 16.85 14.200000000000001 17.270833325386047 13.433333301544192 17.5625 12.600000000000001 C 17.854166674613953 11.766666698455811 18 10.9 18 10 C 18 7.766666603088378 17.225 5.875 15.675 4.325 C 14.125 2.7750000000000004 12.233333396911622 2 10 2 C 9.1 2 8.23333330154419 2.1458333253860475 7.4 2.4375 C 6.566666698455811 2.7291666746139525 5.800000000000001 3.1500000000000004 5.1000000000000005 3.7 L 16.3 14.9 Z" fill="currentColor"/>
</svg>
