<svg width="24" height="24" viewBox="0 0 24 24" fill="none" xmlns="http://www.w3.org/2000/svg">
<path d="M10.5999 13.8001L8.44988 11.6501C8.26654 11.4667 8.03321 11.3751 7.74988 11.3751C7.46654 11.3751 7.23321 11.4667 7.04988 11.6501C6.86654 11.8334 6.77488 12.0667 6.77488 12.3501C6.77488 12.6334 6.86654 12.8667 7.04988 13.0501L9.89988 15.9001C10.0999 16.1001 10.3332 16.2001 10.5999 16.2001C10.8665 16.2001 11.0999 16.1001 11.2999 15.9001L16.9499 10.2501C17.1332 10.0667 17.2249 9.83339 17.2249 9.55006C17.2249 9.26673 17.1332 9.03339 16.9499 8.85006C16.7665 8.66673 16.5332 8.57506 16.2499 8.57506C15.9665 8.57506 15.7332 8.66673 15.5499 8.85006L10.5999 13.8001ZM11.9999 22.0001C10.6165 22.0001 9.31654 21.7376 8.09988 21.2126C6.88321 20.6876 5.82488 19.9751 4.92488 19.0751C4.02488 18.1751 3.31238 17.1167 2.78738 15.9001C2.26238 14.6834 1.99988 13.3834 1.99988 12.0001C1.99988 10.6167 2.26238 9.31673 2.78738 8.10006C3.31238 6.88339 4.02488 5.82506 4.92488 4.92506C5.82488 4.02506 6.88321 3.31256 8.09988 2.78756C9.31654 2.26256 10.6165 2.00006 11.9999 2.00006C13.3832 2.00006 14.6832 2.26256 15.8999 2.78756C17.1165 3.31256 18.1749 4.02506 19.0749 4.92506C19.9749 5.82506 20.6874 6.88339 21.2124 8.10006C21.7374 9.31673 21.9999 10.6167 21.9999 12.0001C21.9999 13.3834 21.7374 14.6834 21.2124 15.9001C20.6874 17.1167 19.9749 18.1751 19.0749 19.0751C18.1749 19.9751 17.1165 20.6876 15.8999 21.2126C14.6832 21.7376 13.3832 22.0001 11.9999 22.0001Z" fill="white"/>
</svg>
