<svg width="24" height="24" viewBox="0 0 15.463 11.225" fill="none" xmlns="http://www.w3.org/2000/svg">
<path d="M 5.288000041584469 8.775000298209074 L 13.76300031851575 0.300000010195182 C 13.963000316048767 0.10000000339839402 14.196333638556665 0 14.463000309881306 0 C 14.729666981205947 0 14.963000303713846 0.10000000339839402 15.163000301246862 0.300000010195182 C 15.363000298779879 0.50000001699197 15.463000297546387 0.7375000250631558 15.463000297546387 1.0125000344087394 C 15.463000297546387 1.287500043754323 15.363000298779879 1.5250000518255085 15.163000301246862 1.7250000586222964 L 5.988000032950025 10.925000371274544 C 5.788000035417009 11.125000378071332 5.55466671290911 11.225000381469727 5.288000041584469 11.225000381469727 C 5.0213333702598275 11.225000381469727 4.788000047751929 11.125000378071332 4.588000050218913 10.925000371274544 L 0.2880000078916349 6.625000225143602 C 0.08800001035861874 6.425000218346814 -0.007833333449672224 6.187500210275629 0.0005000000292227978 5.912500200930046 C 0.008833333508117821 5.637500191584462 0.11300001005024576 5.400000183513276 0.3130000075832619 5.200000176716488 C 0.5130000051162781 5.0000001699197 0.7505000021867346 4.900000166521306 1.0254999987946318 4.900000166521306 C 1.3004999954025291 4.900000166521306 1.5379998971055553 5.0000001699197 1.7379998946385715 5.200000176716488 L 5.288000041584469 8.775000298209074 Z" fill="currentColor"/>
</svg>
