<svg width="24" height="24" viewBox="0 0 11.15 6.55" fill="none" xmlns="http://www.w3.org/2000/svg">
<path d="M 5.200000266857746 6.487500188914874 C 5.083333598177529 6.445833522028292 4.975000255311016 6.375000185638894 4.875000250179137 6.275000182726911 L 0.2750000141126693 1.6750000487757093 C 0.09166666739724658 1.4916667061300979 0 1.2583333620284953 0 0.9750000283918308 C 0 0.6916666947551662 0.09166666739724658 0.45833335065356356 0.2750000141126693 0.27500000800795227 C 0.45833336082809195 0.09166666536234097 0.6916667101094545 0 0.9750000500358273 0 C 1.2583333899622002 0 1.4916667392435627 0.09166666536234097 1.6750000859589855 0.27500000800795227 L 5.575000286102295 4.175000121575276 L 9.475000486245605 0.27500000800795227 C 9.658333832961027 0.09166666536234097 9.89166718224239 0 10.175000522168762 0 C 10.458333862095134 0 10.6916672113765 0.09166666536234097 10.875000558091921 0.27500000800795227 C 11.058333904807343 0.45833335065356356 11.15000057220459 0.6916666947551662 11.15000057220459 0.9750000283918308 C 11.15000057220459 1.2583333620284953 11.058333904807343 1.4916667061300979 10.875000558091921 1.6750000487757093 L 6.275000322025453 6.275000182726911 C 6.175000316893573 6.375000185638894 6.0666669740270605 6.445833522028292 5.950000305346844 6.487500188914874 C 5.8333336366666275 6.5291668558014555 5.7083336302517775 6.550000190734863 5.575000286102295 6.550000190734863 C 5.441666941952812 6.550000190734863 5.316666935537962 6.5291668558014555 5.200000266857746 6.487500188914874 Z" fill="currentColor"/>
</svg>
