<svg width="24" height="24" viewBox="0 0 13.15 13.15" fill="none" xmlns="http://www.w3.org/2000/svg">
<path d="M 6.575000286102295 7.975000347021415 L 1.6750000728853756 12.875000560238334 C 1.4916667276008952 13.058333905522813 1.2583333801407321 13.15000057220459 0.9750000424258156 13.15000057220459 C 0.6916667047108991 13.15000057220459 0.458333357250736 13.058333905522813 0.2750000119662557 12.875000560238334 C 0.0916666666817754 12.691667214953855 0 12.45833386749369 0 12.175000529778774 C 0 11.891667192063858 0.0916666666817754 11.658333844603694 0.2750000119662557 11.475000499319215 L 5.175000225183175 6.575000286102295 L 0.2750000119662557 1.6750000728853756 C 0.0916666666817754 1.4916667276008952 0 1.2583333801407321 0 0.9750000424258156 C 0 0.6916667047108991 0.0916666666817754 0.458333357250736 0.2750000119662557 0.2750000119662557 C 0.458333357250736 0.0916666666817754 0.6916667047108991 0 0.9750000424258156 0 C 1.2583333801407321 0 1.4916667276008952 0.0916666666817754 1.6750000728853756 0.2750000119662557 L 6.575000286102295 5.175000225183175 L 11.475000499319215 0.2750000119662557 C 11.658333844603694 0.0916666666817754 11.891667192063858 0 12.175000529778774 0 C 12.45833386749369 0 12.691667214953855 0.0916666666817754 12.875000560238334 0.2750000119662557 C 13.058333905522813 0.458333357250736 13.15000057220459 0.6916667047108991 13.15000057220459 0.9750000424258156 C 13.15000057220459 1.2583333801407321 13.058333905522813 1.4916667276008952 12.875000560238334 1.6750000728853756 L 7.975000347021415 6.575000286102295 L 12.875000560238334 11.475000499319215 C 13.058333905522813 11.658333844603694 13.15000057220459 11.891667192063858 13.15000057220459 12.175000529778774 C 13.15000057220459 12.45833386749369 13.058333905522813 12.691667214953855 12.875000560238334 12.875000560238334 C 12.691667214953855 13.058333905522813 12.45833386749369 13.15000057220459 12.175000529778774 13.15000057220459 C 11.891667192063858 13.15000057220459 11.658333844603694 13.058333905522813 11.475000499319215 12.875000560238334 L 6.575000286102295 7.975000347021415 Z" fill="currentColor"/>
</svg>
