<svg width="31" height="31" viewBox="0 0 31 31" fill="none" xmlns="http://www.w3.org/2000/svg">
<mask id="mask0_185_76" style="mask-type:alpha" maskUnits="userSpaceOnUse" x="0" y="0" width="31" height="31">
<rect width="31" height="31" fill="#D9D9D9"/>
</mask>
<g mask="url(#mask0_185_76)">
<path d="M9.04167 27.125C8.33125 27.125 7.72309 26.872 7.21719 26.3661C6.71129 25.8602 6.45833 25.2521 6.45833 24.5417V7.75C6.09236 7.75 5.78559 7.62622 5.53802 7.37865C5.29045 7.13108 5.16667 6.82431 5.16667 6.45833C5.16667 6.09236 5.29045 5.78559 5.53802 5.53802C5.78559 5.29045 6.09236 5.16667 6.45833 5.16667H11.625C11.625 4.80069 11.7488 4.49392 11.9964 4.24635C12.2439 3.99878 12.5507 3.875 12.9167 3.875H18.0833C18.4493 3.875 18.7561 3.99878 19.0036 4.24635C19.2512 4.49392 19.375 4.80069 19.375 5.16667H24.5417C24.9076 5.16667 25.2144 5.29045 25.462 5.53802C25.7096 5.78559 25.8333 6.09236 25.8333 6.45833C25.8333 6.82431 25.7096 7.13108 25.462 7.37865C25.2144 7.62622 24.9076 7.75 24.5417 7.75V24.5417C24.5417 25.2521 24.2887 25.8602 23.7828 26.3661C23.2769 26.872 22.6688 27.125 21.9583 27.125H9.04167ZM21.9583 7.75H9.04167V24.5417H21.9583V7.75ZM13.837 21.587C14.0845 21.3394 14.2083 21.0326 14.2083 20.6667V11.625C14.2083 11.259 14.0845 10.9523 13.837 10.7047C13.5894 10.4571 13.2826 10.3333 12.9167 10.3333C12.5507 10.3333 12.2439 10.4571 11.9964 10.7047C11.7488 10.9523 11.625 11.259 11.625 11.625V20.6667C11.625 21.0326 11.7488 21.3394 11.9964 21.587C12.2439 21.8345 12.5507 21.9583 12.9167 21.9583C13.2826 21.9583 13.5894 21.8345 13.837 21.587ZM19.0036 21.587C19.2512 21.3394 19.375 21.0326 19.375 20.6667V11.625C19.375 11.259 19.2512 10.9523 19.0036 10.7047C18.7561 10.4571 18.4493 10.3333 18.0833 10.3333C17.7174 10.3333 17.4106 10.4571 17.163 10.7047C16.9155 10.9523 16.7917 11.259 16.7917 11.625V20.6667C16.7917 21.0326 16.9155 21.3394 17.163 21.587C17.4106 21.8345 17.7174 21.9583 18.0833 21.9583C18.4493 21.9583 18.7561 21.8345 19.0036 21.587Z" fill="currentColor"/>
</g>
</svg>
