<svg width="24" height="24" viewBox="0 0 24 24" fill="none" xmlns="http://www.w3.org/2000/svg">
<path d="M7.99988 13.0001H15.9999C16.2832 13.0001 16.5207 12.9042 16.7124 12.7126C16.904 12.5209 16.9999 12.2834 16.9999 12.0001C16.9999 11.7167 16.904 11.4792 16.7124 11.2876C16.5207 11.0959 16.2832 11.0001 15.9999 11.0001H7.99988C7.71654 11.0001 7.47904 11.0959 7.28738 11.2876C7.09571 11.4792 6.99988 11.7167 6.99988 12.0001C6.99988 12.2834 7.09571 12.5209 7.28738 12.7126C7.47904 12.9042 7.71654 13.0001 7.99988 13.0001ZM11.9999 22.0001C10.6165 22.0001 9.31654 21.7376 8.09988 21.2126C6.88321 20.6876 5.82488 19.9751 4.92488 19.0751C4.02488 18.1751 3.31238 17.1167 2.78738 15.9001C2.26238 14.6834 1.99988 13.3834 1.99988 12.0001C1.99988 10.6167 2.26238 9.31673 2.78738 8.10006C3.31238 6.88339 4.02488 5.82506 4.92488 4.92506C5.82488 4.02506 6.88321 3.31256 8.09988 2.78756C9.31654 2.26256 10.6165 2.00006 11.9999 2.00006C13.3832 2.00006 14.6832 2.26256 15.8999 2.78756C17.1165 3.31256 18.1749 4.02506 19.0749 4.92506C19.9749 5.82506 20.6874 6.88339 21.2124 8.10006C21.7374 9.31673 21.9999 10.6167 21.9999 12.0001C21.9999 13.3834 21.7374 14.6834 21.2124 15.9001C20.6874 17.1167 19.9749 18.1751 19.0749 19.0751C18.1749 19.9751 17.1165 20.6876 15.8999 21.2126C14.6832 21.7376 13.3832 22.0001 11.9999 22.0001Z" fill="currentColor"/>
</svg>
