<svg width="31" height="31" viewBox="0 0 31 31" fill="none" xmlns="http://www.w3.org/2000/svg">
<mask id="mask0_185_69" style="mask-type:alpha" maskUnits="userSpaceOnUse" x="0" y="0" width="31" height="31">
<rect width="31" height="31" fill="#D9D9D9"/>
</mask>
<g mask="url(#mask0_185_69)">
<path d="M6.45833 24.5417H8.29896L20.925 11.9156L19.0844 10.075L6.45833 22.701V24.5417ZM5.16667 27.125C4.80069 27.125 4.49392 27.0012 4.24635 26.7536C3.99878 26.5061 3.875 26.1993 3.875 25.8333V22.701C3.875 22.3566 3.93958 22.0283 4.06875 21.7161C4.19792 21.404 4.3809 21.1295 4.61771 20.8927L20.925 4.61771C21.1833 4.3809 21.4686 4.19792 21.7807 4.06875C22.0929 3.93958 22.4212 3.875 22.7656 3.875C23.1101 3.875 23.4437 3.93958 23.7667 4.06875C24.0896 4.19792 24.3694 4.39167 24.6062 4.65L26.3823 6.45833C26.6406 6.69514 26.829 6.975 26.9474 7.29792C27.0658 7.62083 27.125 7.94375 27.125 8.26667C27.125 8.61111 27.0658 8.93941 26.9474 9.25156C26.829 9.56371 26.6406 9.84896 26.3823 10.1073L10.1073 26.3823C9.87049 26.6191 9.59601 26.8021 9.28385 26.9313C8.9717 27.0604 8.6434 27.125 8.29896 27.125H5.16667ZM19.9885 11.0115L19.0844 10.075L20.925 11.9156L19.9885 11.0115Z" fill="currentColor"/>
</g>
</svg>
