<svg width="24" height="24" viewBox="0 0 20 22" fill="none" xmlns="http://www.w3.org/2000/svg">
<path d="M 4.5 2 C 3.75 2 3.1458333492279054 2.4166666984558107 2.6875 3.25 C 2.2291666507720946 4.083333301544189 2 5 2 6 C 2 7.05 2.1458333253860475 7.97916669845581 2.4375 8.7875 C 2.7291666746139525 9.59583330154419 3 10.200000000000001 3.25 10.600000000000001 L 6 10.05 C 6.216666674613952 9.516666650772095 6.437500000000001 8.908333349227904 6.6625000000000005 8.225 C 6.8875 7.541666650772094 7 6.8 7 6 C 7 5 6.770833349227905 4.083333301544189 6.3125 3.25 C 5.854166650772095 2.4166666984558107 5.25 2 4.5 2 Z M 5.875 15 C 6.191666674613953 15 6.458333325386048 14.883333325386047 6.675000000000001 14.65 C 6.891666674613953 14.416666674613953 7 14.091666650772096 7 13.675 C 7 13.391666674613953 6.933333337306977 13.100000000000001 6.800000000000001 12.8 C 6.666666662693024 12.5 6.533333337306977 12.233333325386047 6.4 12 L 4 12.5 C 4 13.166666650772095 4.1458333253860475 13.75 4.4375 14.25 C 4.7291666746139525 14.75 5.208333349227905 15 5.875 15 Z M 15.5 7 C 14.75 7 14.145833349227905 7.416666698455811 13.6875 8.25 C 13.229166650772095 9.08333330154419 13 10 13 11 C 13 11.8 13.1125 12.5375 13.3375 13.2125 C 13.5625 13.887500000000001 13.783333325386048 14.5 14 15.05 L 16.75 15.600000000000001 C 17 15.200000000000001 17.270833325386047 14.600000000000001 17.5625 13.8 C 17.854166674613953 13 18 12.06666669845581 18 11 C 18 10 17.770833349227907 9.08333330154419 17.3125 8.25 C 16.854166650772093 7.416666698455811 16.25 7 15.5 7 Z M 14.125 20 C 14.791666650772095 20 15.270833325386047 19.75 15.5625 19.25 C 15.854166674613953 18.75 16 18.166666650772093 16 17.5 L 13.600000000000001 17 C 13.466666662693026 17.23333332538605 13.333333337306977 17.5 13.200000000000001 17.8 C 13.066666662693025 18.1 13 18.391666674613955 13 18.675 C 13 19.008333325386047 13.104166674613953 19.312500000000004 13.3125 19.587500000000002 C 13.520833325386047 19.8625 13.791666674613953 20 14.125 20 Z M 5.875 17 C 4.5916666984558105 17 3.616666650772095 16.525000000000002 2.95 15.575000000000001 C 2.2833333492279055 14.625000000000002 1.9666666656732559 13.55833330154419 2 12.375 L 1.55 11.700000000000001 C 1.3666666626930237 11.416666674613953 1.0625 10.775 0.6375000000000001 9.775 C 0.21250000000000002 8.775 0 7.51666669845581 0 6 C 0 4.283333396911621 0.42500000000000004 2.8541666984558107 1.2750000000000001 1.7125000000000001 C 2.125 0.5708333015441895 3.2 0 4.5 0 C 5.916666698455811 0 7.020833349227905 0.6291666984558106 7.8125 1.8875000000000002 C 8.604166650772095 3.1458333015441897 9 4.51666669845581 9 6 C 9 6.9666666984558105 8.866666674613953 7.8583333015441905 8.6 8.675 C 8.333333325386047 9.491666698455811 8.1 10.15 7.9 10.65 L 8.1 10.975000000000001 C 8.233333337306975 11.208333325386048 8.416666674613953 11.579166650772095 8.65 12.0875 C 8.883333325386047 12.595833349227906 9 13.125 9 13.675 C 9 14.625 8.704166650772095 15.416666650772095 8.1125 16.05 C 7.520833349227906 16.683333349227905 6.775 17 5.875 17 Z M 14.125 22 C 13.225 22 12.479166650772095 21.683333349227905 11.887500000000001 21.05 C 11.295833349227907 20.416666650772097 11 19.625 11 18.675 C 11 18.125 11.116666674613954 17.595833349227906 11.350000000000001 17.087500000000002 C 11.583333325386048 16.5791666507721 11.766666662693025 16.20833332538605 11.9 15.975000000000001 L 12.100000000000001 15.65 C 11.900000000000002 15.15 11.666666674613953 14.491666698455811 11.4 13.675 C 11.133333325386047 12.85833330154419 11 11.96666669845581 11 11 C 11 9.516666698455811 11.395833349227905 8.14583330154419 12.1875 6.8875 C 12.979166650772095 5.62916669845581 14.08333330154419 5 15.5 5 C 16.8 5 17.875 5.57083330154419 18.725 6.7125 C 19.575000000000003 7.854166698455811 20 9.28333339691162 20 11 C 20 12.516666698455811 19.7875 13.77083330154419 19.3625 14.762500000000001 C 18.9375 15.754166698455812 18.633333337306976 16.391666674613955 18.45 16.675 L 18 17.375 C 18.01666666716337 18.558333301544188 17.695833349227907 19.625000000000004 17.0375 20.575000000000003 C 16.379166650772095 21.525000000000002 15.40833330154419 22 14.125 22 Z" fill="currentColor"/>
</svg>
