<svg width="24" height="24" viewBox="0 0 4 16" fill="none" xmlns="http://www.w3.org/2000/svg">
<path d="M 2 16 C 1.45 16 0.9791666746139527 15.804166674613954 0.5875 15.412500000000001 C 0.19583332538604736 15.020833325386048 0 14.55 0 14 C 0 13.45 0.19583332538604736 12.979166674613953 0.5875 12.5875 C 0.9791666746139527 12.195833325386047 1.45 12 2 12 C 2.55 12 3.0208333253860475 12.195833325386047 3.4125 12.5875 C 3.8041666746139526 12.979166674613953 4 13.45 4 14 C 4 14.55 3.8041666746139526 15.020833325386048 3.4125 15.412500000000001 C 3.0208333253860475 15.804166674613954 2.55 16 2 16 Z M 2 10 C 1.45 10 0.9791666746139527 9.804166674613953 0.5875 9.4125 C 0.19583332538604736 9.020833325386047 0 8.55 0 8 C 0 7.45 0.19583332538604736 6.979166674613953 0.5875 6.5875 C 0.9791666746139527 6.195833325386047 1.45 6 2 6 C 2.55 6 3.0208333253860475 6.195833325386047 3.4125 6.5875 C 3.8041666746139526 6.979166674613953 4 7.45 4 8 C 4 8.55 3.8041666746139526 9.020833325386047 3.4125 9.4125 C 3.0208333253860475 9.804166674613953 2.55 10 2 10 Z M 2 4 C 1.45 4 0.9791666746139527 3.8041666746139526 0.5875 3.4125 C 0.19583332538604736 3.0208333253860475 0 2.55 0 2 C 0 1.45 0.19583332538604736 0.9791666746139527 0.5875 0.5875 C 0.9791666746139527 0.19583332538604736 1.45 0 2 0 C 2.55 0 3.0208333253860475 0.19583332538604736 3.4125 0.5875 C 3.8041666746139526 0.9791666746139527 4 1.45 4 2 C 4 2.55 3.8041666746139526 3.0208333253860475 3.4125 3.4125 C 3.0208333253860475 3.8041666746139526 2.55 4 2 4 Z" fill="currentColor"/>
</svg>
