<svg width="24" height="24" viewBox="0 0 18 20" fill="none" xmlns="http://www.w3.org/2000/svg">
<path d="M 15 20 C 14.16666669845581 20 13.458333349227905 19.708333349227907 12.875 19.125 C 12.291666650772095 18.541666650772093 12 17.83333330154419 12 17 C 12 16.9 12.025 16.666666674613953 12.075000000000001 16.3 L 5.050000000000001 12.200000000000001 C 4.783333325386048 12.450000000000001 4.475 12.645833337306978 4.125 12.787500000000001 C 3.775 12.929166662693024 3.4 13 3 13 C 2.1666666984558107 13 1.4583333492279054 12.708333349227905 0.875 12.125 C 0.29166665077209475 11.541666650772095 0 10.83333330154419 0 10 C 0 9.16666669845581 0.29166665077209475 8.458333349227905 0.875 7.875 C 1.4583333492279054 7.291666650772095 2.1666666984558107 7 3 7 C 3.4 7 3.775 7.0708333373069765 4.125 7.2125 C 4.475 7.354166662693024 4.783333325386048 7.550000000000001 5.050000000000001 7.800000000000001 L 12.075000000000001 3.7 C 12.041666665673256 3.5833333373069767 12.020833333581686 3.4708333373069764 12.012500000000001 3.3625000000000003 C 12.004166666418316 3.254166662693024 12 3.1333333373069765 12 3 C 12 2.1666666984558107 12.291666650772095 1.4583333492279054 12.875 0.875 C 13.458333349227905 0.29166665077209475 14.16666669845581 0 15 0 C 15.83333330154419 0 16.541666650772093 0.29166665077209475 17.125 0.875 C 17.708333349227907 1.4583333492279054 18 2.1666666984558107 18 3 C 18 3.8333333015441893 17.708333349227907 4.541666650772095 17.125 5.125 C 16.541666650772093 5.708333349227905 15.83333330154419 6 15 6 C 14.6 6 14.225 5.929166662693024 13.875 5.7875000000000005 C 13.525 5.645833337306977 13.216666674613954 5.45 12.950000000000001 5.2 L 5.925000000000001 9.3 C 5.958333334326745 9.416666662693025 5.9791666664183145 9.529166662693024 5.987500000000001 9.637500000000001 C 5.995833333581687 9.745833337306978 6 9.866666662693024 6 10 C 6 10.133333337306976 5.995833333581687 10.254166662693024 5.987500000000001 10.3625 C 5.9791666664183145 10.470833337306978 5.958333334326745 10.583333337306977 5.925000000000001 10.700000000000001 L 12.950000000000001 14.8 C 13.216666674613954 14.55 13.525 14.354166662693023 13.875 14.2125 C 14.225 14.070833337306977 14.6 14 15 14 C 15.83333330154419 14 16.541666650772093 14.291666650772095 17.125 14.875 C 17.708333349227907 15.458333349227905 18 16.16666669845581 18 17 C 18 17.83333330154419 17.708333349227907 18.541666650772093 17.125 19.125 C 16.541666650772093 19.708333349227907 15.83333330154419 20 15 20 Z M 15 18 C 15.283333325386048 18 15.520833337306977 17.904166662693026 15.7125 17.712500000000002 C 15.904166662693024 17.52083333730698 16 17.283333325386046 16 17 C 16 16.716666674613954 15.904166662693024 16.479166662693025 15.7125 16.2875 C 15.520833337306977 16.095833337306978 15.283333325386048 16 15 16 C 14.716666674613952 16 14.479166662693025 16.095833337306978 14.287500000000001 16.2875 C 14.095833337306978 16.479166662693025 14 16.716666674613954 14 17 C 14 17.283333325386046 14.095833337306978 17.52083333730698 14.287500000000001 17.712500000000002 C 14.479166662693025 17.904166662693026 14.716666674613952 18 15 18 Z M 3 11 C 3.2833333253860473 11 3.5208333373069767 10.904166662693024 3.7125000000000004 10.7125 C 3.904166662693024 10.520833337306977 4 10.283333325386048 4 10 C 4 9.716666674613952 3.904166662693024 9.479166662693023 3.7125000000000004 9.2875 C 3.5208333373069767 9.095833337306976 3.2833333253860473 9 3 9 C 2.7166666746139527 9 2.4791666626930238 9.095833337306976 2.2875 9.2875 C 2.0958333373069764 9.479166662693023 2 9.716666674613952 2 10 C 2 10.283333325386048 2.0958333373069764 10.520833337306977 2.2875 10.7125 C 2.4791666626930238 10.904166662693024 2.7166666746139527 11 3 11 Z M 15.7125 3.7125000000000004 C 15.904166662693024 3.5208333373069767 16 3.2833333253860473 16 3 C 16 2.7166666746139527 15.904166662693024 2.4791666626930238 15.7125 2.2875 C 15.520833337306977 2.0958333373069764 15.283333325386048 2 15 2 C 14.716666674613952 2 14.479166662693025 2.0958333373069764 14.287500000000001 2.2875 C 14.095833337306978 2.4791666626930238 14 2.7166666746139527 14 3 C 14 3.2833333253860473 14.095833337306978 3.5208333373069767 14.287500000000001 3.7125000000000004 C 14.479166662693025 3.904166662693024 14.716666674613952 4 15 4 C 15.283333325386048 4 15.520833337306977 3.904166662693024 15.7125 3.7125000000000004 Z" fill="currentColor"/>
</svg>
