<svg width="24" height="24" viewBox="0 0 24 24" fill="none" xmlns="http://www.w3.org/2000/svg">
<path d="M3.5 19C3.08333 19 2.72917 18.8542 2.4375 18.5625C2.14583 18.2708 2 17.9167 2 17.5C2 17.0833 2.14583 16.7292 2.4375 16.4375C2.72917 16.1458 3.08333 16 3.5 16H16.25C16.4667 16 16.6458 16.0708 16.7875 16.2125C16.9292 16.3542 17 16.5333 17 16.75V18.25C17 18.4667 16.9292 18.6458 16.7875 18.7875C16.6458 18.9292 16.4667 19 16.25 19H3.5ZM18.2125 18.7875C18.0708 18.6458 18 18.4667 18 18.25V16.75C18 16.5333 18.0708 16.3542 18.2125 16.2125C18.3542 16.0708 18.5333 16 18.75 16C18.9667 16 19.1458 16.0708 19.2875 16.2125C19.4292 16.3542 19.5 16.5333 19.5 16.75V18.25C19.5 18.4667 19.4292 18.6458 19.2875 18.7875C19.1458 18.9292 18.9667 19 18.75 19C18.5333 19 18.3542 18.9292 18.2125 18.7875ZM20.7125 18.7875C20.5708 18.6458 20.5 18.4667 20.5 18.25V16.75C20.5 16.5333 20.5708 16.3542 20.7125 16.2125C20.8542 16.0708 21.0333 16 21.25 16C21.4667 16 21.6458 16.0708 21.7875 16.2125C21.9292 16.3542 22 16.5333 22 16.75V18.25C22 18.4667 21.9292 18.6458 21.7875 18.7875C21.6458 18.9292 21.4667 19 21.25 19C21.0333 19 20.8542 18.9292 20.7125 18.7875ZM18.2125 14.7875C18.0708 14.6458 18 14.4667 18 14.25V13.7C18 13.05 17.8083 12.5542 17.425 12.2125C17.0417 11.8708 16.5833 11.7 16.05 11.7H14.5C13.5667 11.7 12.775 11.375 12.125 10.725C11.475 10.075 11.15 9.28333 11.15 8.35C11.15 7.41667 11.475 6.625 12.125 5.975C12.775 5.325 13.5667 5 14.5 5C14.7167 5 14.8958 5.07083 15.0375 5.2125C15.1792 5.35417 15.25 5.53333 15.25 5.75C15.25 5.96667 15.1792 6.14583 15.0375 6.2875C14.8958 6.42917 14.7167 6.5 14.5 6.5C14 6.5 13.5667 6.675 13.2 7.025C12.8333 7.375 12.65 7.81667 12.65 8.35C12.65 8.88333 12.8333 9.325 13.2 9.675C13.5667 10.025 14 10.2 14.5 10.2H16.05C16.9833 10.2 17.7917 10.5 18.475 11.1C19.1583 11.7 19.5 12.45 19.5 13.35V14.25C19.5 14.4667 19.4292 14.6458 19.2875 14.7875C19.1458 14.9292 18.9667 15 18.75 15C18.5333 15 18.3542 14.9292 18.2125 14.7875ZM20.7125 14.7875C20.5708 14.6458 20.5 14.4667 20.5 14.25V12.75C20.5 11.65 20.1167 10.7 19.35 9.9C18.5833 9.1 17.6333 8.7 16.5 8.7C16.2833 8.7 16.1042 8.62917 15.9625 8.4875C15.8208 8.34583 15.75 8.16667 15.75 7.95C15.75 7.73333 15.8208 7.55417 15.9625 7.4125C16.1042 7.27083 16.2833 7.2 16.5 7.2C17 7.2 17.4333 7.01667 17.8 6.65C18.1667 6.28333 18.35 5.85 18.35 5.35C18.35 4.85 18.1667 4.41667 17.8 4.05C17.4333 3.68333 17 3.5 16.5 3.5C16.2833 3.5 16.1042 3.42917 15.9625 3.2875C15.8208 3.14583 15.75 2.96667 15.75 2.75C15.75 2.53333 15.8208 2.35417 15.9625 2.2125C16.1042 2.07083 16.2833 2 16.5 2C17.4333 2 18.225 2.325 18.875 2.975C19.525 3.625 19.85 4.41667 19.85 5.35C19.85 5.83333 19.7583 6.27083 19.575 6.6625C19.3917 7.05417 19.15 7.41667 18.85 7.75C19.7833 8.18333 20.5417 8.85 21.125 9.75C21.7083 10.65 22 11.65 22 12.75V14.25C22 14.4667 21.9292 14.6458 21.7875 14.7875C21.6458 14.9292 21.4667 15 21.25 15C21.0333 15 20.8542 14.9292 20.7125 14.7875Z" fill="currentColor"/>
</svg>
